Literata-M3.ufo
<glyph name="numbersign" format="2">
	<unicode hex="0023"/>
	<advance width="632"/>
	<outline>
		<contour>
			<point x="145" y="6" type="line"/>
			<point x="183" y="6" type="line"/>
			<point x="204" y="146" type="line"/>
			<point x="389" y="146" type="line"/>
			<point x="368" y="6" type="line"/>
			<point x="406" y="6" type="line"/>
			<point x="427" y="146" type="line"/>
			<point x="552" y="146" type="line"/>
			<point x="557" y="182" type="line"/>
			<point x="433" y="182" type="line"/>
			<point x="463" y="377" type="line"/>
			<point x="581" y="377" type="line"/>
			<point x="587" y="413" type="line"/>
			<point x="469" y="413" type="line"/>
			<point x="489" y="544" type="line"/>
			<point x="451" y="544" type="line"/>
			<point x="431" y="413" type="line"/>
			<point x="246" y="413" type="line"/>
			<point x="266" y="544" type="line"/>
			<point x="228" y="544" type="line"/>
			<point x="208" y="413" type="line"/>
			<point x="87" y="413" type="line"/>
			<point x="79" y="377" type="line"/>
			<point x="203" y="377" type="line"/>
			<point x="172" y="182" type="line"/>
			<point x="53" y="182" type="line"/>
			<point x="45" y="146" type="line"/>
			<point x="166" y="146" type="line"/>
		</contour>
		<contour>
			<point x="210" y="182" type="line"/>
			<point x="240" y="377" type="line"/>
			<point x="426" y="377" type="line"/>
			<point x="394" y="182" type="line"/>
		</contour>
	</outline>
</glyph>
<glyph name="dollar" format="2">
	<unicode hex="0024"/>
	<advance width="545"/>
	<outline>
		<contour>
			<point x="260" y="-85" type="line"/>
			<point x="301" y="-85" type="line"/>
			<point x="301" y="-14" type="line"/>
			<point x="423" y="-11"/>
			<point x="495" y="66"/>
			<point x="495" y="178" type="curve" smooth="yes"/>
			<point x="495" y="256"/>
			<point x="465" y="326"/>
			<point x="322" y="379" type="curve" smooth="yes"/>
			<point x="316" y="381"/>
			<point x="308" y="384"/>
			<point x="301" y="386" type="curve"/>
			<point x="301" y="669" type="line"/>
			<point x="367" y="658"/>
			<point x="415" y="616"/>
			<point x="449" y="517" type="curve"/>
			<point x="477" y="520" type="line"/>
			<point x="455" y="714" type="line"/>
			<point x="433" y="714" type="line"/>
			<point x="419" y="654" type="line"/>
			<point x="383" y="685"/>
			<point x="343" y="705"/>
			<point x="301" y="712" type="curve"/>
			<point x="301" y="782" type="line"/>
			<point x="260" y="782" type="line"/>
			<point x="260" y="714" type="line"/>
			<point x="168" y="710"/>
			<point x="79" y="655"/>
			<point x="79" y="544" type="curve" smooth="yes"/>
			<point x="79" y="458"/>
			<point x="113" y="408"/>
			<point x="232" y="361" type="curve" smooth="yes"/>
			<point x="240.997" y="357"/>
			<point x="250" y="353"/>
			<point x="260" y="350" type="curve"/>
			<point x="260" y="29" type="line"/>
			<point x="183" y="40"/>
			<point x="114" y="93"/>
			<point x="76" y="224" type="curve"/>
			<point x="52" y="221" type="line"/>
			<point x="75" y="-6" type="line"/>
			<point x="99" y="-6" type="line"/>
			<point x="110" y="66" type="line"/>
			<point x="144" y="28"/>
			<point x="198" y="-3"/>
			<point x="260" y="-12" type="curve"/>
		</contour>
		<contour>
			<point x="301" y="27" type="curve"/>
			<point x="301" y="336" type="line"/>
			<point x="423" y="291"/>
			<point x="445" y="243"/>
			<point x="445" y="180" type="curve" smooth="yes"/>
			<point x="445" y="68"/>
			<point x="374" y="30"/>
		</contour>
		<contour>
			<point x="260" y="401" type="line"/>
			<point x="153" y="442"/>
			<point x="130" y="488"/>
			<point x="130" y="550" type="curve" smooth="yes"/>
			<point x="130" y="625"/>
			<point x="182" y="668"/>
			<point x="260" y="671" type="curve"/>
		</contour>
	</outline>
	<anchor name="bottom" x="288" y="-30"/>
	<anchor name="top" x="270" y="730"/>
</glyph>
<glyph name="parenright" format="2">
	<unicode hex="0029"/>
	<advance width="269"/>
	<outline>
		<contour>
			<point x="51" y="-198" type="line"/>
			<point x="107" y="-115"/>
			<point x="229" y="70"/>
			<point x="229" y="314" type="curve" smooth="yes"/>
			<point x="229" y="538"/>
			<point x="109" y="733"/>
			<point x="56" y="811" type="curve"/>
			<point x="30" y="796" type="line"/>
			<point x="122" y="620"/>
			<point x="182" y="488"/>
			<point x="182" y="296" type="curve" smooth="yes"/>
			<point x="182" y="114"/>
			<point x="114" y="-29"/>
			<point x="26" y="-184" type="curve"/>
		</contour>
	</outline>
</glyph>
<glyph name="plus" format="2">
	<unicode hex="002B"/>
	<advance width="582"/>
	<outline>
		<contour>
			<point x="267" y="97" type="line"/>
			<point x="309" y="97" type="line"/>
			<point x="309" y="287" type="line"/>
			<point x="492" y="287" type="line"/>
			<point x="492" y="327" type="line"/>
			<point x="309" y="327" type="line"/>
			<point x="309" y="507" type="line"/>
			<point x="267" y="507" type="line"/>
			<point x="267" y="327" type="line"/>
			<point x="91" y="327" type="line"/>
			<point x="91" y="287" type="line"/>
			<point x="267" y="287" type="line"/>
		</contour>
	</outline>
</glyph>
<glyph name="period" format="2">
	<unicode hex="002E"/>
	<advance width="255"/>
	<outline>
		<contour>
			<point x="127" y="-10" type="curve" smooth="yes"/>
			<point x="156" y="-10"/>
			<point x="175" y="10"/>
			<point x="175" y="38" type="curve" smooth="yes"/>
			<point x="175" y="66"/>
			<point x="156" y="86"/>
			<point x="127" y="86" type="curve" smooth="yes"/>
			<point x="99" y="86"/>
			<point x="80" y="65"/>
			<point x="80" y="37" type="curve" smooth="yes"/>
			<point x="80" y="9"/>
			<point x="99" y="-10"/>
		</contour>
	</outline>
</glyph>
<glyph name="zero" format="2">
	<unicode hex="0030"/>
	<advance width="590"/>
	<outline>
		<contour>
			<point x="293" y="-12" type="curve" smooth="yes"/>
			<point x="440" y="-12"/>
			<point x="540" y="112"/>
			<point x="540" y="362" type="curve" smooth="yes"/>
			<point x="540" y="604"/>
			<point x="434" y="714"/>
			<point x="303" y="714" type="curve" smooth="yes"/>
			<point x="165" y="714"/>
			<point x="50" y="618"/>
			<point x="50" y="337" type="curve" smooth="yes"/>
			<point x="50" y="133"/>
			<point x="133" y="-12"/>
		</contour>
		<contour>
			<point x="298" y="33" type="curve" smooth="yes"/>
			<point x="159" y="33"/>
			<point x="101" y="171"/>
			<point x="101" y="355" type="curve" smooth="yes"/>
			<point x="101" y="574"/>
			<point x="181" y="670"/>
			<point x="297" y="670" type="curve" smooth="yes"/>
			<point x="433" y="670"/>
			<point x="489" y="552"/>
			<point x="489" y="348" type="curve" smooth="yes"/>
			<point x="489" y="144"/>
			<point x="419" y="33"/>
		</contour>
	</outline>
</glyph>
<glyph name="three" format="2">
	<unicode hex="0033"/>
	<advance width="501"/>
	<outline>
		<contour>
			<point x="243" y="-14" type="curve" smooth="yes"/>
			<point x="372" y="-14"/>
			<point x="451" y="70"/>
			<point x="451" y="192" type="curve" smooth="yes"/>
			<point x="451" y="295"/>
			<point x="384" y="352"/>
			<point x="299" y="369" type="curve"/>
			<point x="299" y="371" type="line"/>
			<point x="364" y="393"/>
			<point x="429" y="462"/>
			<point x="429" y="548" type="curve" smooth="yes"/>
			<point x="429" y="644"/>
			<point x="366" y="714"/>
			<point x="246" y="714" type="curve" smooth="yes"/>
			<point x="127" y="714"/>
			<point x="53" y="648"/>
			<point x="53" y="577" type="curve" smooth="yes"/>
			<point x="53" y="549"/>
			<point x="68" y="524"/>
			<point x="102" y="524" type="curve" smooth="yes"/>
			<point x="130" y="524"/>
			<point x="148" y="540"/>
			<point x="148" y="563" type="curve" smooth="yes"/>
			<point x="148" y="576"/>
			<point x="142" y="595"/>
			<point x="113" y="621" type="curve"/>
			<point x="138" y="656"/>
			<point x="184" y="673"/>
			<point x="245" y="673" type="curve" smooth="yes"/>
			<point x="335" y="673"/>
			<point x="378" y="619"/>
			<point x="378" y="548" type="curve" smooth="yes"/>
			<point x="378" y="466"/>
			<point x="321" y="387"/>
			<point x="210" y="380" type="curve"/>
			<point x="206" y="347" type="line"/>
			<point x="329" y="349"/>
			<point x="400" y="290"/>
			<point x="400" y="193" type="curve" smooth="yes"/>
			<point x="400" y="103"/>
			<point x="349" y="29"/>
			<point x="242" y="29" type="curve" smooth="yes"/>
			<point x="164" y="29"/>
			<point x="105" y="63"/>
			<point x="55" y="137" type="curve"/>
			<point x="25" y="115" type="line"/>
			<point x="68" y="38"/>
			<point x="129" y="-14"/>
		</contour>
	</outline>
</glyph>
<glyph name="four" format="2">
	<unicode hex="0034"/>
	<advance width="553"/>
	<outline>
		<contour>
			<point x="231" y="0" type="line"/>
			<point x="499" y="0" type="line"/>
			<point x="499" y="29" type="line"/>
			<point x="439" y="35" type="line" smooth="yes"/>
			<point x="410" y="38"/>
			<point x="405" y="54"/>
			<point x="405" y="89" type="curve" smooth="yes"/>
			<point x="405" y="174" type="line"/>
			<point x="523" y="174" type="line"/>
			<point x="523" y="215" type="line"/>
			<point x="405" y="215" type="line"/>
			<point x="405" y="700" type="line"/>
			<point x="396" y="707" type="line"/>
			<point x="359" y="700" type="line"/>
			<point x="30" y="206" type="line"/>
			<point x="37" y="174" type="line"/>
			<point x="356" y="174" type="line"/>
			<point x="356" y="92" type="line" smooth="yes"/>
			<point x="356" y="52"/>
			<point x="348" y="39"/>
			<point x="324" y="36" type="curve" smooth="yes"/>
			<point x="231" y="26" type="line"/>
		</contour>
		<contour>
			<point x="85" y="215" type="line"/>
			<point x="353" y="617" type="line"/>
			<point x="356" y="617" type="line"/>
			<point x="356" y="215" type="line"/>
		</contour>
	</outline>
</glyph>
<glyph name="five" format="2">
	<unicode hex="0035"/>
	<advance width="515"/>
	<outline>
		<contour>
			<point x="243" y="-14" type="curve" smooth="yes"/>
			<point x="390" y="-14"/>
			<point x="465" y="80"/>
			<point x="465" y="228" type="curve" smooth="yes"/>
			<point x="465" y="347"/>
			<point x="402" y="440"/>
			<point x="269" y="440" type="curve" smooth="yes"/>
			<point x="210" y="440"/>
			<point x="158" y="418"/>
			<point x="121" y="390" type="curve"/>
			<point x="151" y="659" type="line"/>
			<point x="429" y="659" type="line"/>
			<point x="437" y="687" type="line"/>
			<point x="437" y="700" type="line"/>
			<point x="113" y="700" type="line"/>
			<point x="77" y="365" type="line"/>
			<point x="101" y="341" type="line"/>
			<point x="152" y="377"/>
			<point x="200" y="397"/>
			<point x="265" y="397" type="curve" smooth="yes"/>
			<point x="365" y="397"/>
			<point x="414" y="328"/>
			<point x="414" y="226" type="curve" smooth="yes"/>
			<point x="414" y="114"/>
			<point x="369" y="29"/>
			<point x="245" y="29" type="curve" smooth="yes"/>
			<point x="172" y="29"/>
			<point x="110" y="74"/>
			<point x="65" y="133" type="curve"/>
			<point x="35" y="111" type="line"/>
			<point x="82" y="35"/>
			<point x="153" y="-14"/>
		</contour>
	</outline>
</glyph>
<glyph name="at" format="2">
	<unicode hex="0040"/>
	<advance width="823"/>
	<outline>
		<contour>
			<point x="397" y="-171" type="curve" smooth="yes"/>
			<point x="492" y="-171"/>
			<point x="571" y="-147"/>
			<point x="629" y="-93" type="curve"/>
			<point x="604" y="-64" type="line"/>
			<point x="557" y="-102"/>
			<point x="505" y="-130"/>
			<point x="406" y="-130" type="curve" smooth="yes"/>
			<point x="252" y="-130"/>
			<point x="97" y="-42"/>
			<point x="97" y="187" type="curve" smooth="yes"/>
			<point x="97" y="394"/>
			<point x="236" y="517"/>
			<point x="428" y="517" type="curve" smooth="yes"/>
			<point x="637" y="517"/>
			<point x="726" y="413"/>
			<point x="726" y="235" type="curve" smooth="yes"/>
			<point x="726" y="103"/>
			<point x="665" y="32"/>
			<point x="595" y="32" type="curve" smooth="yes"/>
			<point x="553" y="32"/>
			<point x="546" y="60"/>
			<point x="548" y="111" type="curve" smooth="yes"/>
			<point x="561" y="381" type="line"/>
			<point x="558" y="384" type="line"/>
			<point x="519" y="364" type="line"/>
			<point x="492" y="375"/>
			<point x="455" y="385"/>
			<point x="413" y="385" type="curve" smooth="yes"/>
			<point x="315" y="385"/>
			<point x="228" y="315"/>
			<point x="228" y="147" type="curve" smooth="yes"/>
			<point x="228" y="63"/>
			<point x="264" y="-6"/>
			<point x="346" y="-6" type="curve" smooth="yes"/>
			<point x="425" y="-6"/>
			<point x="452" y="62"/>
			<point x="481" y="151" type="curve" smooth="yes"/>
			<point x="511" y="244" type="line"/>
			<point x="514" y="244" type="line"/>
			<point x="504" y="88" type="line" smooth="yes"/>
			<point x="503" y="45"/>
			<point x="519" y="-6"/>
			<point x="589" y="-6" type="curve" smooth="yes"/>
			<point x="684" y="-6"/>
			<point x="769" y="68"/>
			<point x="769" y="244" type="curve" smooth="yes"/>
			<point x="769" y="453"/>
			<point x="639" y="558"/>
			<point x="428" y="558" type="curve" smooth="yes"/>
			<point x="197" y="558"/>
			<point x="54" y="396"/>
			<point x="54" y="197" type="curve" smooth="yes"/>
			<point x="54" y="-67"/>
			<point x="218" y="-171"/>
		</contour>
		<contour>
			<point x="355" y="33" type="curve" smooth="yes"/>
			<point x="303" y="33"/>
			<point x="276" y="71"/>
			<point x="276" y="156" type="curve" smooth="yes"/>
			<point x="276" y="263"/>
			<point x="323" y="350"/>
			<point x="421" y="350" type="curve" smooth="yes"/>
			<point x="453" y="350"/>
			<point x="481" y="342"/>
			<point x="507" y="333" type="curve"/>
			<point x="480" y="241" type="line" smooth="yes"/>
			<point x="438" y="99"/>
			<point x="411" y="33"/>
		</contour>
	</outline>
</glyph>
<glyph name="B" format="2">
	<unicode hex="0042"/>
	<advance width="623"/>
	<outline>
		<contour>
			<point x="67" y="0" type="line"/>
			<point x="301" y="0" type="line" smooth="yes"/>
			<point x="457" y="0"/>
			<point x="572" y="51"/>
			<point x="572" y="194" type="curve" smooth="yes"/>
			<point x="572" y="297"/>
			<point x="517" y="357"/>
			<point x="382" y="372" type="curve"/>
			<point x="382" y="374" type="line"/>
			<point x="478" y="397"/>
			<point x="532" y="457"/>
			<point x="532" y="538" type="curve" smooth="yes"/>
			<point x="532" y="663"/>
			<point x="439" y="700"/>
			<point x="302" y="700" type="curve" smooth="yes"/>
			<point x="67" y="700" type="line"/>
			<point x="67" y="672" type="line"/>
			<point x="122" y="663" type="line" smooth="yes"/>
			<point x="149" y="659"/>
			<point x="156" y="650"/>
			<point x="156" y="615" type="curve" smooth="yes"/>
			<point x="156" y="86" type="line" smooth="yes"/>
			<point x="156" y="49"/>
			<point x="150" y="39"/>
			<point x="125" y="35" type="curve" smooth="yes"/>
			<point x="67" y="26" type="line"/>
		</contour>
		<contour>
			<point x="290" y="39" type="curve" smooth="yes"/>
			<point x="253" y="39"/>
			<point x="218" y="42"/>
			<point x="205" y="44" type="curve"/>
			<point x="205" y="345" type="line"/>
			<point x="221" y="347"/>
			<point x="257" y="348"/>
			<point x="308" y="348" type="curve" smooth="yes"/>
			<point x="462" y="348"/>
			<point x="521" y="286"/>
			<point x="521" y="196" type="curve" smooth="yes"/>
			<point x="521" y="78"/>
			<point x="430" y="39"/>
		</contour>
		<contour>
			<point x="281" y="387" type="curve" smooth="yes"/>
			<point x="237" y="387"/>
			<point x="218" y="388"/>
			<point x="205" y="389" type="curve"/>
			<point x="205" y="661" type="line"/>
			<point x="298" y="661" type="line" smooth="yes"/>
			<point x="423" y="661"/>
			<point x="481" y="629"/>
			<point x="481" y="535" type="curve" smooth="yes"/>
			<point x="481" y="441"/>
			<point x="401" y="387"/>
		</contour>
	</outline>
</glyph>
<glyph name="E" format="2">
	<unicode hex="0045"/>
	<advance width="607"/>
	<outline>
		<contour>
			<point x="67" y="0" type="line"/>
			<point x="529" y="0" type="line"/>
			<point x="552" y="170" type="line"/>
			<point x="522" y="170" type="line"/>
			<point x="502" y="67"/>
			<point x="481" y="39"/>
			<point x="389" y="39" type="curve" smooth="yes"/>
			<point x="205" y="39" type="line"/>
			<point x="205" y="337" type="line"/>
			<point x="332" y="337" type="line" smooth="yes"/>
			<point x="410" y="337"/>
			<point x="422" y="330"/>
			<point x="433" y="254" type="curve"/>
			<point x="461" y="258" type="line"/>
			<point x="461" y="460" type="line"/>
			<point x="433" y="457" type="line"/>
			<point x="420" y="382"/>
			<point x="410" y="376"/>
			<point x="347" y="376" type="curve" smooth="yes"/>
			<point x="205" y="376" type="line"/>
			<point x="205" y="661" type="line"/>
			<point x="347" y="661" type="line" smooth="yes"/>
			<point x="442" y="661"/>
			<point x="464" y="656"/>
			<point x="501" y="537" type="curve"/>
			<point x="531" y="546" type="line"/>
			<point x="495" y="700" type="line"/>
			<point x="67" y="700" type="line"/>
			<point x="67" y="672" type="line"/>
			<point x="122" y="663" type="line" smooth="yes"/>
			<point x="153" y="658"/>
			<point x="156" y="647"/>
			<point x="156" y="615" type="curve" smooth="yes"/>
			<point x="156" y="86" type="line" smooth="yes"/>
			<point x="156" y="49"/>
			<point x="150" y="39"/>
			<point x="125" y="35" type="curve" smooth="yes"/>
			<point x="67" y="26" type="line"/>
		</contour>
	</outline>
	<anchor name="bottom" x="323" y="-30"/>
	<anchor name="top" x="314" y="730"/>
</glyph>
<glyph name="F" format="2">
	<unicode hex="0046"/>
	<advance width="581"/>
	<outline>
		<contour>
			<point x="67" y="0" type="line"/>
			<point x="327" y="0" type="line"/>
			<point x="327" y="26" type="line"/>
			<point x="241" y="35" type="line" smooth="yes"/>
			<point x="215" y="38"/>
			<point x="205" y="50"/>
			<point x="205" y="83" type="curve" smooth="yes"/>
			<point x="205" y="326" type="line"/>
			<point x="328" y="326" type="line" smooth="yes"/>
			<point x="401" y="326"/>
			<point x="411" y="321"/>
			<point x="424" y="235" type="curve"/>
			<point x="452" y="239" type="line"/>
			<point x="452" y="449" type="line"/>
			<point x="424" y="446" type="line"/>
			<point x="411" y="371"/>
			<point x="401" y="365"/>
			<point x="336" y="365" type="curve" smooth="yes"/>
			<point x="205" y="365" type="line"/>
			<point x="205" y="661" type="line"/>
			<point x="346" y="661" type="line" smooth="yes"/>
			<point x="442" y="661"/>
			<point x="464" y="656"/>
			<point x="501" y="537" type="curve"/>
			<point x="531" y="546" type="line"/>
			<point x="495" y="700" type="line"/>
			<point x="67" y="700" type="line"/>
			<point x="67" y="672" type="line"/>
			<point x="121" y="663" type="line" smooth="yes"/>
			<point x="153" y="658"/>
			<point x="156" y="646"/>
			<point x="156" y="616" type="curve" smooth="yes"/>
			<point x="156" y="86" type="line" smooth="yes"/>
			<point x="156" y="50"/>
			<point x="150" y="39"/>
			<point x="125" y="35" type="curve" smooth="yes"/>
			<point x="67" y="26" type="line"/>
		</contour>
	</outline>
</glyph>
<glyph name="J" format="2">
	<unicode hex="004A"/>
	<advance width="504"/>
	<outline>
		<contour>
			<point x="204" y="-14" type="curve" smooth="yes"/>
			<point x="320" y="-14"/>
			<point x="386" y="59"/>
			<point x="386" y="206" type="curve" smooth="yes"/>
			<point x="386" y="612" type="line" smooth="yes"/>
			<point x="386" y="648"/>
			<point x="392" y="660"/>
			<point x="416" y="663" type="curve" smooth="yes"/>
			<point x="494" y="672" type="line"/>
			<point x="494" y="700" type="line"/>
			<point x="219" y="700" type="line"/>
			<point x="219" y="672" type="line"/>
			<point x="304" y="662" type="line" smooth="yes"/>
			<point x="331" y="659"/>
			<point x="337" y="648"/>
			<point x="337" y="615" type="curve" smooth="yes"/>
			<point x="337" y="195" type="line" smooth="yes"/>
			<point x="337" y="91"/>
			<point x="294" y="30"/>
			<point x="211" y="30" type="curve" smooth="yes"/>
			<point x="174" y="30"/>
			<point x="137" y="36"/>
			<point x="119" y="51" type="curve"/>
			<point x="135" y="82"/>
			<point x="140" y="96"/>
			<point x="140" y="110" type="curve" smooth="yes"/>
			<point x="140" y="134"/>
			<point x="117" y="146"/>
			<point x="98" y="146" type="curve" smooth="yes"/>
			<point x="64" y="146"/>
			<point x="40" y="127"/>
			<point x="40" y="89" type="curve" smooth="yes"/>
			<point x="40" y="29"/>
			<point x="100" y="-14"/>
		</contour>
	</outline>
	<anchor name="top" x="359" y="722"/>
</glyph>
<glyph name="M" format="2">
	<unicode hex="004D"/>
	<advance width="905"/>
	<outline>
		<contour>
			<point x="40" y="0" type="line"/>
			<point x="272" y="0" type="line"/>
			<point x="272" y="26" type="line"/>
			<point x="214" y="35" type="line" smooth="yes"/>
			<point x="187" y="39"/>
			<point x="180" y="48"/>
			<point x="181" y="80" type="curve" smooth="yes"/>
			<point x="214" y="632" type="line"/>
			<point x="215" y="632" type="line"/>
			<point x="430" y="94" type="line"/>
			<point x="471" y="94" type="line"/>
			<point x="685" y="632" type="line"/>
			<point x="686" y="632" type="line"/>
			<point x="723" y="83" type="line" smooth="yes"/>
			<point x="726" y="41"/>
			<point x="709" y="34"/>
			<point x="690" y="33" type="curve" smooth="yes"/>
			<point x="624" y="26" type="line"/>
			<point x="624" y="0" type="line"/>
			<point x="865" y="0" type="line"/>
			<point x="865" y="26" type="line"/>
			<point x="806" y="34" type="line" smooth="yes"/>
			<point x="782" y="37"/>
			<point x="774" y="45"/>
			<point x="772" y="81" type="curve" smooth="yes"/>
			<point x="735" y="614" type="line" smooth="yes"/>
			<point x="732" y="659"/>
			<point x="743" y="663"/>
			<point x="764" y="665" type="curve" smooth="yes"/>
			<point x="821" y="672" type="line"/>
			<point x="821" y="700" type="line"/>
			<point x="664" y="700" type="line"/>
			<point x="453" y="157" type="line"/>
			<point x="451" y="157" type="line"/>
			<point x="238" y="700" type="line"/>
			<point x="81" y="700" type="line"/>
			<point x="81" y="672" type="line"/>
			<point x="137" y="664" type="line" smooth="yes"/>
			<point x="161" y="661"/>
			<point x="170" y="653"/>
			<point x="167" y="618" type="curve" smooth="yes"/>
			<point x="133" y="92" type="line" smooth="yes"/>
			<point x="131" y="62"/>
			<point x="131" y="38"/>
			<point x="102" y="34" type="curve" smooth="yes"/>
			<point x="40" y="26" type="line"/>
		</contour>
	</outline>
	<anchor name="bottom" x="452" y="-30"/>
</glyph>
<glyph name="Q" format="2">
	<unicode hex="0051"/>
	<advance width="747"/>
	<outline>
		<contour>
			<point x="690" y="-191" type="curve" smooth="yes"/>
			<point x="751" y="-191"/>
			<point x="799" y="-170"/>
			<point x="862" y="-95" type="curve"/>
			<point x="844" y="-74" type="line"/>
			<point x="796" y="-121"/>
			<point x="756" y="-140"/>
			<point x="699" y="-140" type="curve" smooth="yes"/>
			<point x="627" y="-140"/>
			<point x="570" y="-110"/>
			<point x="502" y="12" type="curve"/>
			<point x="618" y="62"/>
			<point x="684" y="187"/>
			<point x="684" y="362" type="curve" smooth="yes"/>
			<point x="684" y="580"/>
			<point x="576" y="714"/>
			<point x="379" y="714" type="curve" smooth="yes"/>
			<point x="173" y="714"/>
			<point x="65" y="578"/>
			<point x="65" y="342" type="curve" smooth="yes"/>
			<point x="65" y="124"/>
			<point x="169" y="-14"/>
			<point x="373" y="-14" type="curve" smooth="yes"/>
			<point x="404" y="-14"/>
			<point x="431" y="-11"/>
			<point x="457" y="-4" type="curve"/>
			<point x="530" y="-142"/>
			<point x="610" y="-191"/>
		</contour>
		<contour>
			<point x="378" y="31" type="curve" smooth="yes"/>
			<point x="277" y="31"/>
			<point x="204" y="73"/>
			<point x="168" y="136" type="curve"/>
			<point x="201" y="187"/>
			<point x="232" y="206"/>
			<point x="276" y="206" type="curve" smooth="yes"/>
			<point x="338" y="206"/>
			<point x="374" y="157"/>
			<point x="438" y="37" type="curve"/>
			<point x="419" y="33"/>
			<point x="399" y="31"/>
		</contour>
		<contour>
			<point x="482" y="51" type="curve"/>
			<point x="399" y="208"/>
			<point x="351" y="245"/>
			<point x="279" y="245" type="curve" smooth="yes"/>
			<point x="232" y="245"/>
			<point x="188" y="221"/>
			<point x="152" y="170" type="curve"/>
			<point x="126" y="228"/>
			<point x="116" y="285"/>
			<point x="116" y="350" type="curve" smooth="yes"/>
			<point x="116" y="548"/>
			<point x="203" y="669"/>
			<point x="371" y="669" type="curve" smooth="yes"/>
			<point x="546" y="669"/>
			<point x="633" y="552"/>
			<point x="633" y="356" type="curve" smooth="yes"/>
			<point x="633" y="203"/>
			<point x="579" y="94"/>
		</contour>
	</outline>
</glyph>
<glyph name="S" format="2">
	<unicode hex="0053"/>
	<advance width="545"/>
	<outline>
		<contour>
			<point x="294" y="-14" type="curve" smooth="yes"/>
			<point x="420" y="-14"/>
			<point x="495" y="64"/>
			<point x="495" y="178" type="curve" smooth="yes"/>
			<point x="495" y="261"/>
			<point x="461" y="334"/>
			<point x="296" y="388" type="curve" smooth="yes"/>
			<point x="158" y="433"/>
			<point x="130" y="482"/>
			<point x="130" y="550" type="curve" smooth="yes"/>
			<point x="130" y="627"/>
			<point x="185" y="671"/>
			<point x="267" y="671" type="curve" smooth="yes"/>
			<point x="351" y="671"/>
			<point x="409" y="632"/>
			<point x="449" y="517" type="curve"/>
			<point x="477" y="520" type="line"/>
			<point x="455" y="714" type="line"/>
			<point x="433" y="714" type="line"/>
			<point x="419" y="654" type="line"/>
			<point x="374" y="693"/>
			<point x="324" y="714"/>
			<point x="270" y="714" type="curve" smooth="yes"/>
			<point x="174" y="714"/>
			<point x="79" y="659"/>
			<point x="79" y="544" type="curve" smooth="yes"/>
			<point x="79" y="448"/>
			<point x="122" y="396"/>
			<point x="280" y="343" type="curve" smooth="yes"/>
			<point x="421" y="296"/>
			<point x="445" y="246"/>
			<point x="445" y="180" type="curve" smooth="yes"/>
			<point x="445" y="63"/>
			<point x="367" y="27"/>
			<point x="291" y="27" type="curve" smooth="yes"/>
			<point x="202" y="27"/>
			<point x="119" y="76"/>
			<point x="76" y="224" type="curve"/>
			<point x="52" y="221" type="line"/>
			<point x="75" y="-6" type="line"/>
			<point x="99" y="-6" type="line"/>
			<point x="110" y="66" type="line"/>
			<point x="150" y="21"/>
			<point x="218" y="-14"/>
		</contour>
	</outline>
	<anchor name="bottom" x="288" y="-30"/>
	<anchor name="top" x="270" y="730"/>
</glyph>
<glyph name="U" format="2">
	<unicode hex="0055"/>
	<advance width="803"/>
	<outline>
		<contour>
			<point x="395" y="-14" type="curve" smooth="yes"/>
			<point x="593" y="-14"/>
			<point x="663" y="105"/>
			<point x="663" y="308" type="curve" smooth="yes"/>
			<point x="663" y="612" type="line" smooth="yes"/>
			<point x="663" y="649"/>
			<point x="669" y="659"/>
			<point x="693" y="663" type="curve" smooth="yes"/>
			<point x="753" y="672" type="line"/>
			<point x="753" y="700" type="line"/>
			<point x="524" y="700" type="line"/>
			<point x="524" y="672" type="line"/>
			<point x="582" y="663" type="line" smooth="yes"/>
			<point x="609" y="659"/>
			<point x="615" y="649"/>
			<point x="615" y="616" type="curve" smooth="yes"/>
			<point x="615" y="284" type="line" smooth="yes"/>
			<point x="615" y="116"/>
			<point x="542" y="30"/>
			<point x="404" y="30" type="curve" smooth="yes"/>
			<point x="247" y="30"/>
			<point x="191" y="105"/>
			<point x="191" y="270" type="curve" smooth="yes"/>
			<point x="191" y="612" type="line" smooth="yes"/>
			<point x="191" y="649"/>
			<point x="198" y="660"/>
			<point x="221" y="663" type="curve" smooth="yes"/>
			<point x="282" y="672" type="line"/>
			<point x="282" y="700" type="line"/>
			<point x="50" y="700" type="line"/>
			<point x="50" y="672" type="line"/>
			<point x="109" y="663" type="line" smooth="yes"/>
			<point x="136" y="659"/>
			<point x="142" y="649"/>
			<point x="142" y="616" type="curve" smooth="yes"/>
			<point x="142" y="269" type="line" smooth="yes"/>
			<point x="142" y="81"/>
			<point x="213" y="-14"/>
		</contour>
	</outline>
	<anchor name="bottom" x="400" y="-30"/>
	<anchor name="top" x="404" y="730"/>
</glyph>
<glyph name="V" format="2">
	<unicode hex="0056"/>
	<advance width="660"/>
	<outline>
		<contour>
			<point x="307" y="0" type="line"/>
			<point x="346" y="0" type="line"/>
			<point x="565" y="610" type="line" smooth="yes"/>
			<point x="580" y="654"/>
			<point x="587" y="662"/>
			<point x="613" y="666" type="curve" smooth="yes"/>
			<point x="650" y="673" type="line"/>
			<point x="650" y="700" type="line"/>
			<point x="439" y="700" type="line"/>
			<point x="439" y="673" type="line"/>
			<point x="493" y="666" type="line" smooth="yes"/>
			<point x="527" y="662"/>
			<point x="532" y="651"/>
			<point x="518" y="611" type="curve" smooth="yes"/>
			<point x="330" y="70" type="line"/>
			<point x="328" y="70" type="line"/>
			<point x="142" y="615" type="line" smooth="yes"/>
			<point x="130" y="649"/>
			<point x="134" y="661"/>
			<point x="161" y="665" type="curve" smooth="yes"/>
			<point x="220" y="673" type="line"/>
			<point x="220" y="700" type="line"/>
			<point x="10" y="700" type="line"/>
			<point x="10" y="673" type="line"/>
			<point x="50" y="665" type="line" smooth="yes"/>
			<point x="74" y="660"/>
			<point x="79" y="654"/>
			<point x="93" y="612" type="curve" smooth="yes"/>
		</contour>
	</outline>
	<anchor name="top" x="330" y="730"/>
</glyph>
<glyph name="W" format="2">
	<unicode hex="0057"/>
	<advance width="1005"/>
	<outline>
		<contour>
			<point x="256" y="0" type="line"/>
			<point x="307" y="0" type="line"/>
			<point x="490" y="626" type="line"/>
			<point x="493" y="626" type="line"/>
			<point x="702" y="0" type="line"/>
			<point x="752" y="0" type="line"/>
			<point x="909" y="610" type="line" smooth="yes"/>
			<point x="920" y="654"/>
			<point x="928" y="658"/>
			<point x="957" y="665" type="curve" smooth="yes"/>
			<point x="995" y="673" type="line"/>
			<point x="995" y="700" type="line"/>
			<point x="787" y="700" type="line"/>
			<point x="787" y="673" type="line"/>
			<point x="837" y="667" type="line" smooth="yes"/>
			<point x="872" y="663"/>
			<point x="872" y="649"/>
			<point x="864" y="615" type="curve" smooth="yes"/>
			<point x="728" y="74" type="line"/>
			<point x="726" y="74" type="line"/>
			<point x="518" y="700" type="line"/>
			<point x="464" y="700" type="line"/>
			<point x="285" y="74" type="line"/>
			<point x="283" y="74" type="line"/>
			<point x="142" y="615" type="line" smooth="yes"/>
			<point x="133" y="649"/>
			<point x="134" y="661"/>
			<point x="161" y="665" type="curve" smooth="yes"/>
			<point x="217" y="673" type="line"/>
			<point x="217" y="700" type="line"/>
			<point x="10" y="700" type="line"/>
			<point x="10" y="673" type="line"/>
			<point x="50" y="665" type="line" smooth="yes"/>
			<point x="74" y="660"/>
			<point x="82" y="654"/>
			<point x="93" y="612" type="curve" smooth="yes"/>
		</contour>
	</outline>
	<anchor name="top" x="492" y="730"/>
</glyph>
<glyph name="X" format="2">
	<unicode hex="0058"/>
	<advance width="690"/>
	<outline>
		<contour>
			<point x="12" y="0" type="line"/>
			<point x="240" y="0" type="line"/>
			<point x="240" y="25" type="line"/>
			<point x="184" y="33" type="line" smooth="yes"/>
			<point x="151" y="38"/>
			<point x="155" y="64"/>
			<point x="173" y="89" type="curve" smooth="yes"/>
			<point x="341" y="322" type="line"/>
			<point x="507" y="92" type="line" smooth="yes"/>
			<point x="529" y="61"/>
			<point x="535" y="40"/>
			<point x="498" y="33" type="curve" smooth="yes"/>
			<point x="454" y="25" type="line"/>
			<point x="454" y="0" type="line"/>
			<point x="680" y="0" type="line"/>
			<point x="680" y="25" type="line"/>
			<point x="642" y="33" type="line" smooth="yes"/>
			<point x="599" y="42"/>
			<point x="590" y="62"/>
			<point x="566" y="95" type="curve" smooth="yes"/>
			<point x="371" y="362" type="line"/>
			<point x="556" y="618" type="line" smooth="yes"/>
			<point x="579" y="650"/>
			<point x="595" y="661"/>
			<point x="619" y="666" type="curve" smooth="yes"/>
			<point x="654" y="672" type="line"/>
			<point x="654" y="700" type="line"/>
			<point x="452" y="700" type="line"/>
			<point x="447" y="672" type="line"/>
			<point x="496" y="666" type="line" smooth="yes"/>
			<point x="529" y="662"/>
			<point x="523" y="644"/>
			<point x="504" y="618" type="curve" smooth="yes"/>
			<point x="345" y="395" type="line"/>
			<point x="177" y="630" type="line" smooth="yes"/>
			<point x="156" y="659"/>
			<point x="175" y="665"/>
			<point x="204" y="668" type="curve" smooth="yes"/>
			<point x="244" y="672" type="line"/>
			<point x="244" y="700" type="line"/>
			<point x="26" y="700" type="line"/>
			<point x="21" y="672" type="line"/>
			<point x="70" y="666" type="line" smooth="yes"/>
			<point x="103" y="662"/>
			<point x="111" y="641"/>
			<point x="137" y="605" type="curve" smooth="yes"/>
			<point x="317" y="357" type="line"/>
			<point x="122" y="90" type="line" smooth="yes"/>
			<point x="96" y="54"/>
			<point x="81" y="39"/>
			<point x="42" y="31" type="curve" smooth="yes"/>
			<point x="12" y="25" type="line"/>
		</contour>
	</outline>
	<guideline x="326" y="672" angle="0"/>
	<guideline x="326" y="666" angle="0"/>
</glyph>
<glyph name="Y" format="2">
	<unicode hex="0059"/>
	<advance width="627"/>
	<outline>
		<contour>
			<point x="193" y="0" type="line"/>
			<point x="418" y="0" type="line"/>
			<point x="418" y="26" type="line"/>
			<point x="363" y="35" type="line" smooth="yes"/>
			<point x="336" y="39"/>
			<point x="330" y="49"/>
			<point x="330" y="82" type="curve" smooth="yes"/>
			<point x="330" y="308" type="line"/>
			<point x="505" y="609" type="line" smooth="yes"/>
			<point x="528" y="649"/>
			<point x="538" y="661"/>
			<point x="561" y="664" type="curve" smooth="yes"/>
			<point x="627" y="672" type="line"/>
			<point x="627" y="700" type="line"/>
			<point x="401" y="700" type="line"/>
			<point x="401" y="673" type="line"/>
			<point x="443" y="669" type="line" smooth="yes"/>
			<point x="476" y="666"/>
			<point x="483" y="646"/>
			<point x="465" y="615" type="curve" smooth="yes"/>
			<point x="311" y="351" type="line"/>
			<point x="310" y="351" type="line"/>
			<point x="156" y="617" type="line" smooth="yes"/>
			<point x="140" y="644"/>
			<point x="144" y="666"/>
			<point x="177" y="669" type="curve" smooth="yes"/>
			<point x="227" y="673" type="line"/>
			<point x="227" y="700" type="line"/>
			<point x="0" y="700" type="line"/>
			<point x="0" y="673" type="line"/>
			<point x="40" y="666" type="line" smooth="yes"/>
			<point x="69" y="661"/>
			<point x="82" y="644"/>
			<point x="100" y="615" type="curve" smooth="yes"/>
			<point x="281" y="308" type="line"/>
			<point x="281" y="86" type="line" smooth="yes"/>
			<point x="281" y="49"/>
			<point x="275" y="39"/>
			<point x="250" y="35" type="curve" smooth="yes"/>
			<point x="193" y="26" type="line"/>
		</contour>
	</outline>
	<anchor name="bottom" x="305" y="-30"/>
	<anchor name="top" x="313" y="730"/>
</glyph>
<glyph name="bracketright" format="2">
	<unicode hex="005D"/>
	<advance width="297"/>
	<outline>
		<contour>
			<point x="42" y="-212" type="line"/>
			<point x="192" y="-212" type="line"/>
			<point x="192" y="812" type="line"/>
			<point x="42" y="812" type="line"/>
			<point x="40" y="783" type="line"/>
			<point x="119" y="778" type="line" smooth="yes"/>
			<point x="149" y="776"/>
			<point x="149" y="762"/>
			<point x="149" y="722" type="curve" smooth="yes"/>
			<point x="149" y="-125" type="line" smooth="yes"/>
			<point x="149" y="-165"/>
			<point x="146" y="-176"/>
			<point x="120" y="-178" type="curve" smooth="yes"/>
			<point x="40" y="-184" type="line"/>
		</contour>
	</outline>
</glyph>
<glyph name="asciicircum" format="2">
	<unicode hex="005E"/>
	<advance width="582"/>
	<outline>
		<contour>
			<point x="78" y="355" type="line"/>
			<point x="291" y="675" type="line"/>
			<point x="504" y="355" type="line"/>
			<point x="534" y="374" type="line"/>
			<point x="309" y="712" type="line"/>
			<point x="273" y="712" type="line"/>
			<point x="48" y="374" type="line"/>
		</contour>
	</outline>
</glyph>
<glyph name="grave" format="2">
	<unicode hex="0060"/>
	<advance width="500"/>
	<outline>
		<contour>
			<point x="297" y="584" type="line"/>
			<point x="316" y="602" type="line"/>
			<point x="215" y="734" type="line" smooth="yes"/>
			<point x="203" y="749"/>
			<point x="194" y="756"/>
			<point x="184" y="756" type="curve" smooth="yes"/>
			<point x="170" y="756"/>
			<point x="156" y="740"/>
			<point x="156" y="726" type="curve" smooth="yes"/>
			<point x="156" y="714"/>
			<point x="163" y="701"/>
			<point x="189" y="678" type="curve" smooth="yes"/>
		</contour>
	</outline>
	<anchor name="_top" x="250" y="550"/>
</glyph>
<glyph name="a" format="2">
	<unicode hex="0061"/>
	<advance width="516"/>
	<outline>
		<contour>
			<point x="202" y="-14" type="curve" smooth="yes"/>
			<point x="269" y="-14"/>
			<point x="325" y="15"/>
			<point x="362" y="75" type="curve"/>
			<point x="366" y="13"/>
			<point x="397" y="-14"/>
			<point x="440" y="-14" type="curve" smooth="yes"/>
			<point x="470" y="-14"/>
			<point x="500" y="-4"/>
			<point x="521" y="15" type="curve"/>
			<point x="510" y="39" type="line"/>
			<point x="492" y="31"/>
			<point x="473" y="26"/>
			<point x="457" y="26" type="curve" smooth="yes"/>
			<point x="423" y="26"/>
			<point x="406" y="47"/>
			<point x="406" y="90" type="curve" smooth="yes"/>
			<point x="406" y="349" type="line" smooth="yes"/>
			<point x="406" y="452"/>
			<point x="366" y="517"/>
			<point x="242" y="517" type="curve" smooth="yes"/>
			<point x="160" y="517"/>
			<point x="68" y="468"/>
			<point x="68" y="394" type="curve" smooth="yes"/>
			<point x="68" y="365"/>
			<point x="86" y="348"/>
			<point x="110" y="348" type="curve" smooth="yes"/>
			<point x="134" y="348"/>
			<point x="154" y="363"/>
			<point x="154" y="384" type="curve" smooth="yes"/>
			<point x="154" y="395"/>
			<point x="149" y="407"/>
			<point x="127" y="441" type="curve"/>
			<point x="148" y="463"/>
			<point x="191" y="478"/>
			<point x="236" y="478" type="curve" smooth="yes"/>
			<point x="310" y="478"/>
			<point x="357" y="445"/>
			<point x="357" y="360" type="curve" smooth="yes"/>
			<point x="357" y="280" type="line"/>
			<point x="131" y="271"/>
			<point x="60" y="230"/>
			<point x="60" y="117" type="curve" smooth="yes"/>
			<point x="60" y="31"/>
			<point x="116" y="-14"/>
		</contour>
		<contour>
			<point x="214" y="29" type="curve" smooth="yes"/>
			<point x="150" y="29"/>
			<point x="110" y="55"/>
			<point x="110" y="126" type="curve" smooth="yes"/>
			<point x="110" y="206"/>
			<point x="177" y="238"/>
			<point x="357" y="241" type="curve"/>
			<point x="357" y="151" type="line" smooth="yes"/>
			<point x="357" y="77"/>
			<point x="285" y="29"/>
		</contour>
	</outline>
	<anchor name="bottom" x="253" y="-30"/>
	<anchor name="top" x="242" y="550"/>
</glyph>
<glyph name="b" format="2">
	<unicode hex="0062"/>
	<advance width="584"/>
	<outline>
		<contour>
			<point x="128" y="-9" type="line"/>
			<point x="157" y="25" type="line"/>
			<point x="195" y="2"/>
			<point x="253" y="-14"/>
			<point x="302" y="-14" type="curve" smooth="yes"/>
			<point x="437" y="-14"/>
			<point x="529" y="86"/>
			<point x="529" y="261" type="curve" smooth="yes"/>
			<point x="529" y="429"/>
			<point x="456" y="517"/>
			<point x="331" y="517" type="curve" smooth="yes"/>
			<point x="267" y="517"/>
			<point x="209" y="495"/>
			<point x="166" y="429" type="curve"/>
			<point x="165" y="429" type="line"/>
			<point x="165" y="755" type="line"/>
			<point x="154" y="766" type="line"/>
			<point x="32" y="761" type="line"/>
			<point x="29" y="732" type="line"/>
			<point x="68" y="726" type="line" smooth="yes"/>
			<point x="109" y="720"/>
			<point x="116" y="713"/>
			<point x="116" y="661" type="curve" smooth="yes"/>
			<point x="116" y="-5" type="line"/>
		</contour>
		<contour>
			<point x="301" y="27" type="curve" smooth="yes"/>
			<point x="252" y="27"/>
			<point x="201" y="45"/>
			<point x="165" y="70" type="curve"/>
			<point x="165" y="321" type="line" smooth="yes"/>
			<point x="165" y="414"/>
			<point x="234" y="474"/>
			<point x="321" y="474" type="curve" smooth="yes"/>
			<point x="417" y="474"/>
			<point x="478" y="420"/>
			<point x="478" y="261" type="curve" smooth="yes"/>
			<point x="478" y="105"/>
			<point x="402" y="27"/>
		</contour>
	</outline>
</glyph>
<glyph name="e" format="2">
	<unicode hex="0065"/>
	<advance width="472"/>
	<outline>
		<contour>
			<point x="263" y="-14" type="curve" smooth="yes"/>
			<point x="326" y="-14"/>
			<point x="385" y="11"/>
			<point x="431" y="62" type="curve"/>
			<point x="410" y="85" type="line"/>
			<point x="369" y="50"/>
			<point x="321" y="31"/>
			<point x="271" y="31" type="curve" smooth="yes"/>
			<point x="170" y="31"/>
			<point x="100" y="93"/>
			<point x="99" y="254" type="curve"/>
			<point x="422" y="254" type="line"/>
			<point x="426" y="286"/>
			<point x="427" y="316"/>
			<point x="427" y="344" type="curve" smooth="yes"/>
			<point x="427" y="446"/>
			<point x="369" y="517"/>
			<point x="255" y="517" type="curve" smooth="yes"/>
			<point x="123" y="517"/>
			<point x="50" y="407"/>
			<point x="50" y="254" type="curve" smooth="yes"/>
			<point x="50" y="83"/>
			<point x="130" y="-14"/>
		</contour>
		<contour>
			<point x="100" y="293" type="line"/>
			<point x="110" y="413"/>
			<point x="163" y="478"/>
			<point x="257" y="478" type="curve" smooth="yes"/>
			<point x="338" y="478"/>
			<point x="380" y="424"/>
			<point x="380" y="352" type="curve" smooth="yes"/>
			<point x="380" y="329"/>
			<point x="380" y="314"/>
			<point x="378" y="293" type="curve"/>
		</contour>
	</outline>
	<anchor name="bottom" x="260" y="-30"/>
	<anchor name="top" x="257" y="550"/>
</glyph>
<glyph name="f" format="2">
	<unicode hex="0066"/>
	<advance width="343"/>
	<outline>
		<contour>
			<point x="50" y="0" type="line"/>
			<point x="285" y="0" type="line"/>
			<point x="285" y="24" type="line"/>
			<point x="203" y="35" type="line" smooth="yes"/>
			<point x="180" y="38"/>
			<point x="173" y="48"/>
			<point x="173" y="80" type="curve" smooth="yes"/>
			<point x="173" y="461" type="line"/>
			<point x="323" y="461" type="line"/>
			<point x="323" y="503" type="line"/>
			<point x="173" y="503" type="line"/>
			<point x="173" y="582" type="line" smooth="yes"/>
			<point x="173" y="690"/>
			<point x="212" y="741"/>
			<point x="279" y="741" type="curve" smooth="yes"/>
			<point x="303" y="741"/>
			<point x="324" y="735"/>
			<point x="336" y="725" type="curve"/>
			<point x="319" y="698"/>
			<point x="315" y="686"/>
			<point x="315" y="674" type="curve" smooth="yes"/>
			<point x="315" y="656"/>
			<point x="329" y="645"/>
			<point x="349" y="645" type="curve" smooth="yes"/>
			<point x="380" y="645"/>
			<point x="395" y="666"/>
			<point x="395" y="695" type="curve" smooth="yes"/>
			<point x="395" y="757"/>
			<point x="337" y="782"/>
			<point x="276" y="782" type="curve" smooth="yes"/>
			<point x="194" y="782"/>
			<point x="124" y="727"/>
			<point x="124" y="565" type="curve" smooth="yes"/>
			<point x="124" y="503" type="line"/>
			<point x="50" y="493" type="line"/>
			<point x="50" y="461" type="line"/>
			<point x="124" y="461" type="line"/>
			<point x="124" y="84" type="line" smooth="yes"/>
			<point x="124" y="44"/>
			<point x="118" y="36"/>
			<point x="93" y="32" type="curve" smooth="yes"/>
			<point x="50" y="25" type="line"/>
		</contour>
	</outline>
</glyph>
<glyph name="i" format="2">
	<unicode hex="0069"/>
	<advance width="298"/>
	<outline>
		<contour>
			<point x="61" y="0" type="line"/>
			<point x="258" y="0" type="line"/>
			<point x="258" y="25" type="line"/>
			<point x="209" y="34" type="line" smooth="yes"/>
			<point x="189" y="38"/>
			<point x="184" y="47"/>
			<point x="184" y="78" type="curve" smooth="yes"/>
			<point x="184" y="503" type="line"/>
			<point x="173" y="509" type="line"/>
			<point x="53" y="497" type="line"/>
			<point x="50" y="469" type="line"/>
			<point x="101" y="462" type="line" smooth="yes"/>
			<point x="130" y="458"/>
			<point x="135" y="448"/>
			<point x="135" y="400" type="curve" smooth="yes"/>
			<point x="135" y="82" type="line" smooth="yes"/>
			<point x="135" y="44"/>
			<point x="128" y="36"/>
			<point x="109" y="33" type="curve" smooth="yes"/>
			<point x="61" y="25" type="line"/>
		</contour>
		<contour>
			<point x="143" y="633" type="curve" smooth="yes"/>
			<point x="172" y="633"/>
			<point x="186" y="657"/>
			<point x="186" y="683" type="curve" smooth="yes"/>
			<point x="186" y="711"/>
			<point x="173" y="727"/>
			<point x="144" y="727" type="curve" smooth="yes"/>
			<point x="115" y="727"/>
			<point x="101" y="706"/>
			<point x="101" y="678" type="curve" smooth="yes"/>
			<point x="101" y="652"/>
			<point x="114" y="633"/>
		</contour>
	</outline>
	<anchor name="bottom" x="162" y="-30"/>
</glyph>
<glyph name="j" format="2">
	<unicode hex="006A"/>
	<advance width="263"/>
	<outline>
		<contour>
			<point x="50" y="-229" type="line"/>
			<point x="159" y="-158"/>
			<point x="171" y="-93"/>
			<point x="171" y="93" type="curve" smooth="yes"/>
			<point x="171" y="503" type="line"/>
			<point x="160" y="509" type="line"/>
			<point x="40" y="497" type="line"/>
			<point x="37" y="469" type="line"/>
			<point x="88" y="462" type="line" smooth="yes"/>
			<point x="117" y="458"/>
			<point x="122" y="449"/>
			<point x="122" y="396" type="curve" smooth="yes"/>
			<point x="122" y="20" type="line" smooth="yes"/>
			<point x="122" y="-111"/>
			<point x="95" y="-156"/>
			<point x="35" y="-206" type="curve"/>
		</contour>
		<contour>
			<point x="130" y="633" type="curve" smooth="yes"/>
			<point x="159" y="633"/>
			<point x="173" y="657"/>
			<point x="173" y="683" type="curve" smooth="yes"/>
			<point x="173" y="711"/>
			<point x="160" y="727"/>
			<point x="131" y="727" type="curve" smooth="yes"/>
			<point x="102" y="727"/>
			<point x="88" y="706"/>
			<point x="88" y="678" type="curve" smooth="yes"/>
			<point x="88" y="652"/>
			<point x="101" y="633"/>
		</contour>
	</outline>
</glyph>
<glyph name="k" format="2">
	<unicode hex="006B"/>
	<advance width="571"/>
	<outline>
		<contour>
			<point x="484" y="-8" type="curve" smooth="yes"/>
			<point x="512" y="-8"/>
			<point x="541" y="3"/>
			<point x="566" y="26" type="curve"/>
			<point x="554" y="51" type="line"/>
			<point x="538" y="43"/>
			<point x="512" y="36"/>
			<point x="492" y="36" type="curve" smooth="yes"/>
			<point x="463" y="36"/>
			<point x="433" y="57"/>
			<point x="397" y="104" type="curve" smooth="yes"/>
			<point x="266" y="277" type="line"/>
			<point x="438" y="433" type="line" smooth="yes"/>
			<point x="471" y="463"/>
			<point x="482" y="469"/>
			<point x="517" y="475" type="curve" smooth="yes"/>
			<point x="537" y="478" type="line"/>
			<point x="537" y="503" type="line"/>
			<point x="328" y="503" type="line"/>
			<point x="323" y="476" type="line"/>
			<point x="371" y="471" type="line" smooth="yes"/>
			<point x="401" y="468"/>
			<point x="403" y="452"/>
			<point x="382" y="434" type="curve" smooth="yes"/>
			<point x="206" y="277" type="line"/>
			<point x="206" y="271" type="line"/>
			<point x="371" y="61" type="line" smooth="yes"/>
			<point x="408" y="14"/>
			<point x="442" y="-8"/>
		</contour>
		<contour>
			<point x="47" y="0" type="line"/>
			<point x="259" y="0" type="line"/>
			<point x="259" y="25" type="line"/>
			<point x="205" y="33" type="line" smooth="yes"/>
			<point x="185" y="36"/>
			<point x="180" y="47"/>
			<point x="180" y="78" type="curve" smooth="yes"/>
			<point x="180" y="755" type="line"/>
			<point x="169" y="766" type="line"/>
			<point x="47" y="761" type="line"/>
			<point x="44" y="732" type="line"/>
			<point x="98" y="723" type="line" smooth="yes"/>
			<point x="124" y="719"/>
			<point x="131" y="707"/>
			<point x="131" y="670" type="curve" smooth="yes"/>
			<point x="131" y="82" type="line" smooth="yes"/>
			<point x="131" y="47"/>
			<point x="126" y="36"/>
			<point x="105" y="33" type="curve" smooth="yes"/>
			<point x="47" y="25" type="line"/>
		</contour>
	</outline>
	<anchor name="bottom" x="298" y="-30"/>
	<anchor name="top" x="116" y="780"/>
</glyph>
<glyph name="l" format="2">
	<unicode hex="006C"/>
	<advance width="300"/>
	<outline>
		<contour>
			<point x="57" y="0" type="line"/>
			<point x="254" y="0" type="line"/>
			<point x="254" y="25" type="line"/>
			<point x="205" y="34" type="line" smooth="yes"/>
			<point x="185" y="38"/>
			<point x="180" y="47"/>
			<point x="180" y="78" type="curve" smooth="yes"/>
			<point x="180" y="755" type="line"/>
			<point x="169" y="766" type="line"/>
			<point x="47" y="761" type="line"/>
			<point x="44" y="732" type="line"/>
			<point x="98" y="723" type="line" smooth="yes"/>
			<point x="124" y="719"/>
			<point x="131" y="707"/>
			<point x="131" y="670" type="curve" smooth="yes"/>
			<point x="131" y="82" type="line" smooth="yes"/>
			<point x="131" y="44"/>
			<point x="124" y="36"/>
			<point x="105" y="33" type="curve" smooth="yes"/>
			<point x="57" y="25" type="line"/>
		</contour>
	</outline>
	<anchor name="bottom" x="157" y="-30"/>
	<anchor name="top" x="116" y="780"/>
</glyph>
<glyph name="m" format="2">
	<unicode hex="006D"/>
	<advance width="949"/>
	<outline>
		<contour>
			<point x="54" y="0" type="line"/>
			<point x="256" y="0" type="line"/>
			<point x="256" y="25" type="line"/>
			<point x="201" y="35" type="line" smooth="yes"/>
			<point x="183" y="38"/>
			<point x="177" y="49"/>
			<point x="177" y="77" type="curve" smooth="yes"/>
			<point x="177" y="319" type="line" smooth="yes"/>
			<point x="177" y="404"/>
			<point x="245" y="473"/>
			<point x="338" y="473" type="curve" smooth="yes"/>
			<point x="426" y="473"/>
			<point x="457" y="434"/>
			<point x="457" y="337" type="curve" smooth="yes"/>
			<point x="457" y="77" type="line" smooth="yes"/>
			<point x="457" y="43"/>
			<point x="452" y="38"/>
			<point x="422" y="32" type="curve" smooth="yes"/>
			<point x="386" y="25" type="line"/>
			<point x="386" y="0" type="line"/>
			<point x="585" y="0" type="line"/>
			<point x="585" y="25" type="line"/>
			<point x="528" y="38" type="line" smooth="yes"/>
			<point x="506" y="43"/>
			<point x="506" y="57"/>
			<point x="506" y="80" type="curve" smooth="yes"/>
			<point x="506" y="318" type="line" smooth="yes"/>
			<point x="506" y="400"/>
			<point x="569" y="473"/>
			<point x="670" y="473" type="curve" smooth="yes"/>
			<point x="743" y="473"/>
			<point x="786" y="444"/>
			<point x="786" y="341" type="curve" smooth="yes"/>
			<point x="786" y="73" type="line" smooth="yes"/>
			<point x="786" y="40"/>
			<point x="776" y="34"/>
			<point x="751" y="31" type="curve" smooth="yes"/>
			<point x="706" y="25" type="line"/>
			<point x="706" y="0" type="line"/>
			<point x="909" y="0" type="line"/>
			<point x="909" y="25" type="line"/>
			<point x="866" y="32" type="line" smooth="yes"/>
			<point x="842" y="36"/>
			<point x="835" y="41"/>
			<point x="835" y="74" type="curve" smooth="yes"/>
			<point x="835" y="345" type="line" smooth="yes"/>
			<point x="835" y="473"/>
			<point x="770" y="517"/>
			<point x="677" y="517" type="curve" smooth="yes"/>
			<point x="601" y="517"/>
			<point x="533" y="477"/>
			<point x="498" y="415" type="curve"/>
			<point x="478" y="488"/>
			<point x="423" y="517"/>
			<point x="349" y="517" type="curve" smooth="yes"/>
			<point x="293" y="517"/>
			<point x="218" y="492"/>
			<point x="177" y="421" type="curve"/>
			<point x="176" y="421" type="line"/>
			<point x="173" y="503" type="line"/>
			<point x="162" y="509" type="line"/>
			<point x="48" y="497" type="line"/>
			<point x="45" y="469" type="line"/>
			<point x="94" y="462" type="line" smooth="yes"/>
			<point x="128" y="457"/>
			<point x="128" y="439"/>
			<point x="128" y="400" type="curve" smooth="yes"/>
			<point x="128" y="81" type="line" smooth="yes"/>
			<point x="128" y="40"/>
			<point x="119" y="36"/>
			<point x="102" y="33" type="curve" smooth="yes"/>
			<point x="54" y="25" type="line"/>
		</contour>
	</outline>
	<anchor name="bottom" x="482" y="-30"/>
</glyph>
<glyph name="o" format="2">
	<unicode hex="006F"/>
	<advance width="544"/>
	<outline>
		<contour>
			<point x="269" y="-14" type="curve" smooth="yes"/>
			<point x="416" y="-14"/>
			<point x="494" y="88"/>
			<point x="494" y="261" type="curve" smooth="yes"/>
			<point x="494" y="416"/>
			<point x="417" y="517"/>
			<point x="280" y="517" type="curve" smooth="yes"/>
			<point x="132" y="517"/>
			<point x="50" y="414"/>
			<point x="50" y="249" type="curve" smooth="yes"/>
			<point x="50" y="87"/>
			<point x="124" y="-14"/>
		</contour>
		<contour>
			<point x="278" y="27" type="curve" smooth="yes"/>
			<point x="163" y="27"/>
			<point x="101" y="105"/>
			<point x="101" y="257" type="curve" smooth="yes"/>
			<point x="101" y="405"/>
			<point x="163" y="476"/>
			<point x="272" y="476" type="curve" smooth="yes"/>
			<point x="384" y="476"/>
			<point x="443" y="401"/>
			<point x="443" y="249" type="curve" smooth="yes"/>
			<point x="443" y="104"/>
			<point x="383" y="27"/>
		</contour>
	</outline>
	<anchor name="bottom" x="272" y="-30"/>
	<anchor name="top" x="273" y="550"/>
	<guideline x="273" y="254" angle="90"/>
</glyph>
<glyph name="r" format="2">
	<unicode hex="0072"/>
	<advance width="438"/>
	<outline>
		<contour>
			<point x="54" y="0" type="line"/>
			<point x="277" y="0" type="line"/>
			<point x="277" y="25" type="line"/>
			<point x="202" y="34" type="line" smooth="yes"/>
			<point x="182" y="36"/>
			<point x="177" y="49"/>
			<point x="177" y="77" type="curve" smooth="yes"/>
			<point x="177" y="317" type="line" smooth="yes"/>
			<point x="177" y="408"/>
			<point x="266" y="505"/>
			<point x="345" y="471" type="curve"/>
			<point x="326" y="443"/>
			<point x="321" y="427"/>
			<point x="321" y="414" type="curve" smooth="yes"/>
			<point x="321" y="394"/>
			<point x="337" y="383"/>
			<point x="358" y="383" type="curve" smooth="yes"/>
			<point x="390" y="383"/>
			<point x="408" y="397"/>
			<point x="408" y="438" type="curve" smooth="yes"/>
			<point x="408" y="487"/>
			<point x="373" y="517"/>
			<point x="319" y="517" type="curve" smooth="yes"/>
			<point x="259" y="517"/>
			<point x="214" y="479"/>
			<point x="177" y="417" type="curve"/>
			<point x="176" y="417" type="line"/>
			<point x="173" y="503" type="line"/>
			<point x="162" y="509" type="line"/>
			<point x="48" y="497" type="line"/>
			<point x="45" y="469" type="line"/>
			<point x="94" y="462" type="line" smooth="yes"/>
			<point x="123" y="458"/>
			<point x="128" y="447"/>
			<point x="128" y="400" type="curve" smooth="yes"/>
			<point x="128" y="79" type="line" smooth="yes"/>
			<point x="128" y="46"/>
			<point x="122" y="37"/>
			<point x="101" y="33" type="curve" smooth="yes"/>
			<point x="54" y="25" type="line"/>
		</contour>
	</outline>
	<anchor name="bottom" x="159" y="-30"/>
	<anchor name="top" x="239" y="550"/>
</glyph>
<glyph name="t" format="2">
	<unicode hex="0074"/>
	<advance width="375"/>
	<outline>
		<contour>
			<point x="233" y="-14" type="curve" smooth="yes"/>
			<point x="279" y="-14"/>
			<point x="320" y="2"/>
			<point x="365" y="45" type="curve"/>
			<point x="346" y="71" type="line"/>
			<point x="311" y="44"/>
			<point x="278" y="31"/>
			<point x="245" y="31" type="curve" smooth="yes"/>
			<point x="195" y="31"/>
			<point x="165" y="49"/>
			<point x="165" y="127" type="curve" smooth="yes"/>
			<point x="165" y="461" type="line"/>
			<point x="326" y="461" type="line"/>
			<point x="326" y="503" type="line"/>
			<point x="165" y="503" type="line"/>
			<point x="165" y="638" type="line"/>
			<point x="157" y="643" type="line"/>
			<point x="137" y="640" type="line"/>
			<point x="129" y="525"/>
			<point x="93" y="494"/>
			<point x="33" y="493" type="curve"/>
			<point x="33" y="461" type="line"/>
			<point x="116" y="461" type="line"/>
			<point x="116" y="134" type="line" smooth="yes"/>
			<point x="116" y="40"/>
			<point x="142" y="-14"/>
		</contour>
	</outline>
	<anchor name="bottom" x="240" y="-30"/>
</glyph>
<glyph name="v" format="2">
	<unicode hex="0076"/>
	<advance width="513"/>
	<outline>
		<contour>
			<point x="242" y="0" type="line"/>
			<point x="276" y="0" type="line"/>
			<point x="435" y="415" type="line" smooth="yes"/>
			<point x="451" y="457"/>
			<point x="457" y="467"/>
			<point x="481" y="471" type="curve" smooth="yes"/>
			<point x="513" y="477" type="line"/>
			<point x="513" y="503" type="line"/>
			<point x="334" y="503" type="line"/>
			<point x="328" y="475" type="line"/>
			<point x="367" y="469" type="line" smooth="yes"/>
			<point x="396" y="465"/>
			<point x="403" y="450"/>
			<point x="390" y="416" type="curve" smooth="yes"/>
			<point x="262" y="70" type="line"/>
			<point x="260" y="70" type="line"/>
			<point x="125" y="421" type="line" smooth="yes"/>
			<point x="112" y="455"/>
			<point x="117" y="466"/>
			<point x="144" y="470" type="curve" smooth="yes"/>
			<point x="190" y="476" type="line"/>
			<point x="190" y="503" type="line"/>
			<point x="6" y="503" type="line"/>
			<point x="0" y="475" type="line"/>
			<point x="33" y="469" type="line" smooth="yes"/>
			<point x="58" y="464"/>
			<point x="61" y="456"/>
			<point x="76" y="419" type="curve" smooth="yes"/>
		</contour>
	</outline>
	<anchor name="top" x="260" y="550"/>
	<guideline x="262" y="222" angle="90"/>
</glyph>
<glyph name="w" format="2">
	<unicode hex="0077"/>
	<advance width="760"/>
	<outline>
		<contour>
			<point x="198" y="0" type="line"/>
			<point x="246" y="0" type="line"/>
			<point x="374" y="432" type="line"/>
			<point x="376" y="432" type="line"/>
			<point x="505" y="0" type="line"/>
			<point x="552" y="0" type="line"/>
			<point x="676" y="411" type="line" smooth="yes"/>
			<point x="691" y="461"/>
			<point x="706" y="466"/>
			<point x="723" y="469" type="curve" smooth="yes"/>
			<point x="760" y="475" type="line"/>
			<point x="760" y="502" type="line"/>
			<point x="568" y="502" type="line"/>
			<point x="562" y="475" type="line"/>
			<point x="610" y="468" type="line" smooth="yes"/>
			<point x="636" y="464"/>
			<point x="643" y="452"/>
			<point x="630" y="408" type="curve" smooth="yes"/>
			<point x="530" y="70" type="line"/>
			<point x="528" y="70" type="line"/>
			<point x="402" y="502" type="line"/>
			<point x="352" y="502" type="line"/>
			<point x="224" y="70" type="line"/>
			<point x="222" y="70" type="line"/>
			<point x="124" y="418" type="line" smooth="yes"/>
			<point x="112" y="459"/>
			<point x="116" y="466"/>
			<point x="139" y="469" type="curve" smooth="yes"/>
			<point x="188" y="475" type="line"/>
			<point x="188" y="502" type="line"/>
			<point x="6" y="502" type="line"/>
			<point x="0" y="474" type="line"/>
			<point x="31" y="468" type="line" smooth="yes"/>
			<point x="62" y="462"/>
			<point x="68" y="449"/>
			<point x="77" y="417" type="curve" smooth="yes"/>
		</contour>
	</outline>
	<anchor name="top" x="378" y="550"/>
</glyph>
<glyph name="braceright" format="2">
	<unicode hex="007D"/>
	<advance width="307"/>
	<outline>
		<contour>
			<point x="78" y="-227" type="curve" smooth="yes"/>
			<point x="142" y="-227"/>
			<point x="177" y="-180"/>
			<point x="177" y="-106" type="curve" smooth="yes"/>
			<point x="177" y="-45"/>
			<point x="158" y="100"/>
			<point x="158" y="172" type="curve" smooth="yes"/>
			<point x="158" y="272"/>
			<point x="189" y="283"/>
			<point x="252" y="284" type="curve"/>
			<point x="252" y="315" type="line"/>
			<point x="189" y="316"/>
			<point x="158" y="324"/>
			<point x="158" y="424" type="curve" smooth="yes"/>
			<point x="158" y="496"/>
			<point x="177" y="641"/>
			<point x="177" y="702" type="curve" smooth="yes"/>
			<point x="177" y="776"/>
			<point x="146" y="823"/>
			<point x="78" y="823" type="curve" smooth="yes"/>
			<point x="62" y="823"/>
			<point x="46" y="820"/>
			<point x="28" y="814" type="curve"/>
			<point x="33" y="787" type="line"/>
			<point x="47" y="790"/>
			<point x="55" y="791"/>
			<point x="70" y="791" type="curve" smooth="yes"/>
			<point x="114" y="791"/>
			<point x="131" y="756"/>
			<point x="131" y="699" type="curve" smooth="yes"/>
			<point x="131" y="659"/>
			<point x="113" y="497"/>
			<point x="113" y="432" type="curve" smooth="yes"/>
			<point x="113" y="338"/>
			<point x="131" y="316"/>
			<point x="198" y="300" type="curve"/>
			<point x="125" y="283"/>
			<point x="113" y="258"/>
			<point x="113" y="164" type="curve" smooth="yes"/>
			<point x="113" y="99"/>
			<point x="131" y="-63"/>
			<point x="131" y="-103" type="curve" smooth="yes"/>
			<point x="131" y="-160"/>
			<point x="114" y="-195"/>
			<point x="70" y="-195" type="curve" smooth="yes"/>
			<point x="55" y="-195"/>
			<point x="47" y="-194"/>
			<point x="33" y="-191" type="curve"/>
			<point x="28" y="-218" type="line"/>
			<point x="46" y="-224"/>
			<point x="62" y="-227"/>
		</contour>
	</outline>
</glyph>
<glyph name="currency" format="2">
	<unicode hex="00A4"/>
	<advance width="509"/>
	<outline>
		<contour>
			<point x="436" y="107" type="line"/>
			<point x="456" y="127" type="line"/>
			<point x="389" y="209" type="line"/>
			<point x="413" y="241"/>
			<point x="426" y="282"/>
			<point x="426" y="323" type="curve" smooth="yes"/>
			<point x="426" y="361"/>
			<point x="415" y="398"/>
			<point x="394" y="428" type="curve"/>
			<point x="457" y="506" type="line"/>
			<point x="437" y="527" type="line"/>
			<point x="358" y="464" type="line"/>
			<point x="332" y="483"/>
			<point x="300" y="494"/>
			<point x="262" y="494" type="curve" smooth="yes"/>
			<point x="218" y="494"/>
			<point x="181" y="481"/>
			<point x="152" y="459" type="curve"/>
			<point x="72" y="522" type="line"/>
			<point x="52" y="502" type="line"/>
			<point x="117" y="422" type="line"/>
			<point x="95" y="391"/>
			<point x="84" y="352"/>
			<point x="84" y="311" type="curve" smooth="yes"/>
			<point x="84" y="275"/>
			<point x="95" y="238"/>
			<point x="118" y="208" type="curve"/>
			<point x="53" y="128" type="line"/>
			<point x="73" y="108" type="line"/>
			<point x="155" y="172" type="line"/>
			<point x="180" y="154"/>
			<point x="212" y="143"/>
			<point x="251" y="143" type="curve" smooth="yes"/>
			<point x="291" y="143"/>
			<point x="325" y="154"/>
			<point x="352" y="173" type="curve"/>
		</contour>
		<contour>
			<point x="260" y="184" type="curve" smooth="yes"/>
			<point x="172" y="184"/>
			<point x="130" y="246"/>
			<point x="130" y="319" type="curve" smooth="yes"/>
			<point x="130" y="402"/>
			<point x="182" y="453"/>
			<point x="254" y="453" type="curve" smooth="yes"/>
			<point x="340" y="453"/>
			<point x="379" y="398"/>
			<point x="379" y="317" type="curve" smooth="yes"/>
			<point x="379" y="246"/>
			<point x="330" y="184"/>
		</contour>
	</outline>
</glyph>
<glyph name="dieresis" format="2">
	<unicode hex="00A8"/>
	<advance width="500"/>
	<outline>
		<contour>
			<point x="340" y="633" type="curve" smooth="yes"/>
			<point x="369" y="633"/>
			<point x="383" y="657"/>
			<point x="383" y="683" type="curve" smooth="yes"/>
			<point x="383" y="711"/>
			<point x="370" y="727"/>
			<point x="341" y="727" type="curve" smooth="yes"/>
			<point x="312" y="727"/>
			<point x="298" y="706"/>
			<point x="298" y="678" type="curve" smooth="yes"/>
			<point x="298" y="652"/>
			<point x="311" y="633"/>
		</contour>
		<contour>
			<point x="159" y="633" type="curve" smooth="yes"/>
			<point x="188" y="633"/>
			<point x="202" y="657"/>
			<point x="202" y="683" type="curve" smooth="yes"/>
			<point x="202" y="711"/>
			<point x="189" y="727"/>
			<point x="160" y="727" type="curve" smooth="yes"/>
			<point x="131" y="727"/>
			<point x="117" y="706"/>
			<point x="117" y="678" type="curve" smooth="yes"/>
			<point x="117" y="652"/>
			<point x="130" y="633"/>
		</contour>
	</outline>
	<anchor name="_top" x="250" y="550"/>
</glyph>
<glyph name="copyright" format="2">
	<unicode hex="00A9"/>
	<advance width="768"/>
	<outline>
		<contour>
			<point x="383" y="-12" type="curve" smooth="yes"/>
			<point x="558" y="-12"/>
			<point x="708" y="114"/>
			<point x="708" y="319" type="curve" smooth="yes"/>
			<point x="708" y="497"/>
			<point x="596" y="635"/>
			<point x="385" y="635" type="curve" smooth="yes"/>
			<point x="210" y="635"/>
			<point x="60" y="509"/>
			<point x="60" y="304" type="curve" smooth="yes"/>
			<point x="60" y="126"/>
			<point x="172" y="-12"/>
		</contour>
		<contour>
			<point x="383" y="28" type="curve" smooth="yes"/>
			<point x="223" y="28"/>
			<point x="103" y="128"/>
			<point x="103" y="305" type="curve" smooth="yes"/>
			<point x="103" y="483"/>
			<point x="222" y="595"/>
			<point x="386" y="595" type="curve" smooth="yes"/>
			<point x="546" y="595"/>
			<point x="666" y="495"/>
			<point x="666" y="318" type="curve" smooth="yes"/>
			<point x="666" y="140"/>
			<point x="547" y="28"/>
		</contour>
		<contour>
			<point x="388" y="104" type="curve" smooth="yes"/>
			<point x="447" y="104"/>
			<point x="495" y="124"/>
			<point x="533" y="174" type="curve"/>
			<point x="513" y="194" type="line"/>
			<point x="477" y="156"/>
			<point x="445" y="142"/>
			<point x="390" y="142" type="curve" smooth="yes"/>
			<point x="304" y="142"/>
			<point x="252" y="210"/>
			<point x="252" y="313" type="curve" smooth="yes"/>
			<point x="252" y="410"/>
			<point x="305" y="477"/>
			<point x="383" y="477" type="curve" smooth="yes"/>
			<point x="445" y="477"/>
			<point x="480" y="446"/>
			<point x="499" y="385" type="curve"/>
			<point x="524" y="389" type="line"/>
			<point x="503" y="513" type="line"/>
			<point x="485" y="513" type="line"/>
			<point x="478" y="481" type="line"/>
			<point x="458" y="499"/>
			<point x="422" y="515"/>
			<point x="385" y="515" type="curve" smooth="yes"/>
			<point x="283" y="515"/>
			<point x="206" y="435"/>
			<point x="206" y="311" type="curve" smooth="yes"/>
			<point x="206" y="197"/>
			<point x="267" y="104"/>
		</contour>
	</outline>
</glyph>
<glyph name="ordfeminine" format="2">
	<unicode hex="00AA"/>
	<advance width="390"/>
	<outline>
		<contour>
			<point x="152" y="362" type="curve" smooth="yes"/>
			<point x="204" y="362"/>
			<point x="239" y="377"/>
			<point x="267" y="417" type="curve"/>
			<point x="271" y="382"/>
			<point x="287" y="362"/>
			<point x="328" y="362" type="curve" smooth="yes"/>
			<point x="351" y="362"/>
			<point x="370" y="372"/>
			<point x="385" y="382" type="curve"/>
			<point x="378" y="405" type="line"/>
			<point x="364" y="399"/>
			<point x="349" y="396"/>
			<point x="339" y="396" type="curve" smooth="yes"/>
			<point x="316" y="396"/>
			<point x="306" y="407"/>
			<point x="306" y="432" type="curve" smooth="yes"/>
			<point x="306" y="611" type="line" smooth="yes"/>
			<point x="306" y="701"/>
			<point x="263" y="742"/>
			<point x="182" y="742" type="curve" smooth="yes"/>
			<point x="100" y="742"/>
			<point x="40" y="699"/>
			<point x="40" y="650" type="curve" smooth="yes"/>
			<point x="40" y="621"/>
			<point x="58" y="604"/>
			<point x="79" y="604" type="curve" smooth="yes"/>
			<point x="101" y="604"/>
			<point x="120" y="617"/>
			<point x="120" y="630" type="curve" smooth="yes"/>
			<point x="120" y="641"/>
			<point x="110" y="667"/>
			<point x="102" y="686" type="curve"/>
			<point x="119" y="699"/>
			<point x="139" y="706"/>
			<point x="171" y="706" type="curve" smooth="yes"/>
			<point x="228" y="706"/>
			<point x="266" y="684"/>
			<point x="266" y="617" type="curve" smooth="yes"/>
			<point x="266" y="574" type="line"/>
			<point x="233" y="573"/>
			<point x="184" y="570"/>
			<point x="152" y="565" type="curve" smooth="yes"/>
			<point x="77" y="554"/>
			<point x="38" y="523"/>
			<point x="38" y="461" type="curve" smooth="yes"/>
			<point x="38" y="390"/>
			<point x="96" y="362"/>
		</contour>
		<contour>
			<point x="160" y="396" type="curve" smooth="yes"/>
			<point x="102" y="396"/>
			<point x="80" y="419"/>
			<point x="80" y="464" type="curve" smooth="yes"/>
			<point x="80" y="531"/>
			<point x="168" y="543"/>
			<point x="266" y="543" type="curve"/>
			<point x="266" y="487" type="line" smooth="yes"/>
			<point x="266" y="433"/>
			<point x="211" y="396"/>
		</contour>
	</outline>
</glyph>
<glyph name="logicalnot" format="2">
	<unicode hex="00AC"/>
	<advance width="582"/>
	<outline>
		<contour>
			<point x="453" y="154" type="line"/>
			<point x="494" y="154" type="line"/>
			<point x="494" y="367" type="line"/>
			<point x="86" y="367" type="line"/>
			<point x="86" y="325" type="line"/>
			<point x="453" y="325" type="line"/>
		</contour>
	</outline>
</glyph>
<glyph name="registered" format="2">
	<unicode hex="00AE"/>
	<advance width="469"/>
	<outline>
		<contour>
			<point x="234" y="413" type="curve" smooth="yes"/>
			<point x="336" y="413"/>
			<point x="409" y="483"/>
			<point x="409" y="586" type="curve" smooth="yes"/>
			<point x="409" y="686"/>
			<point x="341" y="753"/>
			<point x="235" y="753" type="curve" smooth="yes"/>
			<point x="138" y="753"/>
			<point x="60" y="686"/>
			<point x="60" y="579" type="curve" smooth="yes"/>
			<point x="60" y="484"/>
			<point x="119" y="413"/>
		</contour>
		<contour>
			<point x="322" y="468" type="curve" smooth="yes"/>
			<point x="302" y="468"/>
			<point x="292" y="480"/>
			<point x="284" y="501" type="curve" smooth="yes"/>
			<point x="274" y="527" type="line" smooth="yes"/>
			<point x="260" y="564"/>
			<point x="250" y="577"/>
			<point x="223" y="577" type="curve" smooth="yes"/>
			<point x="193" y="577" type="line"/>
			<point x="193" y="506" type="line" smooth="yes"/>
			<point x="193" y="491"/>
			<point x="197" y="488"/>
			<point x="207" y="487" type="curve" smooth="yes"/>
			<point x="223" y="485" type="line"/>
			<point x="223" y="472" type="line"/>
			<point x="142" y="472" type="line"/>
			<point x="142" y="485" type="line"/>
			<point x="157" y="487" type="line" smooth="yes"/>
			<point x="169" y="489"/>
			<point x="171" y="497"/>
			<point x="171" y="506" type="curve" smooth="yes"/>
			<point x="171" y="666" type="line" smooth="yes"/>
			<point x="171" y="679"/>
			<point x="166" y="682"/>
			<point x="157" y="684" type="curve" smooth="yes"/>
			<point x="142" y="687" type="line"/>
			<point x="142" y="700" type="line"/>
			<point x="233" y="700" type="line" smooth="yes"/>
			<point x="287" y="700"/>
			<point x="315" y="685"/>
			<point x="315" y="645" type="curve" smooth="yes"/>
			<point x="315" y="599"/>
			<point x="271" y="588"/>
			<point x="247" y="586" type="curve"/>
			<point x="247" y="584" type="line"/>
			<point x="279" y="578"/>
			<point x="288" y="557"/>
			<point x="299" y="529" type="curve" smooth="yes"/>
			<point x="307" y="508" type="line" smooth="yes"/>
			<point x="314" y="489"/>
			<point x="325" y="484"/>
			<point x="332" y="484" type="curve" smooth="yes"/>
			<point x="338" y="484"/>
			<point x="344" y="485"/>
			<point x="347" y="486" type="curve"/>
			<point x="347" y="474" type="line"/>
			<point x="340" y="470"/>
			<point x="330" y="468"/>
		</contour>
		<contour>
			<point x="193" y="595" type="line"/>
			<point x="229" y="595" type="line" smooth="yes"/>
			<point x="260" y="595"/>
			<point x="292" y="607"/>
			<point x="292" y="645" type="curve" smooth="yes"/>
			<point x="292" y="682"/>
			<point x="255" y="684"/>
			<point x="223" y="684" type="curve" smooth="yes"/>
			<point x="193" y="684" type="line"/>
		</contour>
	</outline>
</glyph>
<glyph name="macron" format="2">
	<unicode hex="00AF"/>
	<advance width="500"/>
	<outline>
		<contour>
			<point x="120" y="644" type="line"/>
			<point x="380" y="644" type="line"/>
			<point x="380" y="691" type="line"/>
			<point x="120" y="691" type="line"/>
		</contour>
	</outline>
	<anchor name="_top" x="250" y="550"/>
</glyph>
<glyph name="plusminus" format="2">
	<unicode hex="00B1"/>
	<advance width="582"/>
	<outline>
		<contour>
			<point x="267" y="141" type="line"/>
			<point x="309" y="141" type="line"/>
			<point x="309" y="317" type="line"/>
			<point x="495" y="317" type="line"/>
			<point x="495" y="357" type="line"/>
			<point x="309" y="357" type="line"/>
			<point x="309" y="521" type="line"/>
			<point x="267" y="521" type="line"/>
			<point x="267" y="357" type="line"/>
			<point x="87" y="357" type="line"/>
			<point x="87" y="317" type="line"/>
			<point x="267" y="317" type="line"/>
		</contour>
		<contour>
			<point x="87" y="1" type="line"/>
			<point x="495" y="1" type="line"/>
			<point x="495" y="41" type="line"/>
			<point x="87" y="41" type="line"/>
		</contour>
	</outline>
</glyph>
<glyph name="paragraph" format="2">
	<unicode hex="00B6"/>
	<advance width="488"/>
	<outline>
		<contour>
			<point x="187" y="-144" type="line"/>
			<point x="340" y="-144" type="line"/>
			<point x="340" y="600" type="line" smooth="yes"/>
			<point x="340" y="637"/>
			<point x="344" y="659"/>
			<point x="375" y="663" type="curve" smooth="yes"/>
			<point x="431" y="671" type="line"/>
			<point x="431" y="700" type="line"/>
			<point x="291" y="700" type="line"/>
			<point x="291" y="-43" type="line" smooth="yes"/>
			<point x="291" y="-82"/>
			<point x="286" y="-103"/>
			<point x="256" y="-107" type="curve" smooth="yes"/>
			<point x="187" y="-116" type="line"/>
		</contour>
		<contour>
			<point x="236" y="237" type="curve" smooth="yes"/>
			<point x="245" y="237" type="line"/>
			<point x="245" y="700" type="line"/>
			<point x="236" y="700" type="line" smooth="yes"/>
			<point x="114" y="700"/>
			<point x="35" y="622"/>
			<point x="35" y="470" type="curve" smooth="yes"/>
			<point x="35" y="319"/>
			<point x="116" y="237"/>
		</contour>
	</outline>
</glyph>
<glyph name="cedilla" format="2">
	<unicode hex="00B8"/>
	<advance width="500"/>
	<outline>
		<contour>
			<point x="246" y="-229" type="curve" smooth="yes"/>
			<point x="311" y="-229"/>
			<point x="342" y="-189"/>
			<point x="342" y="-138" type="curve" smooth="yes"/>
			<point x="342" y="-85"/>
			<point x="298" y="-58"/>
			<point x="237" y="-62" type="curve"/>
			<point x="266" y="13" type="line"/>
			<point x="228" y="13" type="line"/>
			<point x="192" y="-80" type="line"/>
			<point x="200" y="-97" type="line"/>
			<point x="209" y="-95"/>
			<point x="220" y="-93"/>
			<point x="234" y="-93" type="curve" smooth="yes"/>
			<point x="263" y="-93"/>
			<point x="295" y="-102"/>
			<point x="295" y="-140" type="curve" smooth="yes"/>
			<point x="295" y="-176"/>
			<point x="271" y="-189"/>
			<point x="239" y="-189" type="curve" smooth="yes"/>
			<point x="212" y="-189"/>
			<point x="178" y="-174"/>
			<point x="159" y="-160" type="curve"/>
			<point x="141" y="-189" type="line"/>
			<point x="152" y="-201"/>
			<point x="189" y="-229"/>
		</contour>
	</outline>
	<anchor name="_bottom" x="250" y="-30"/>
</glyph>
<glyph name="onesuperior" format="2">
	<unicode hex="00B9"/>
	<advance width="281"/>
	<outline>
		<contour>
			<point x="36" y="374" type="line"/>
			<point x="256" y="374" type="line"/>
			<point x="256" y="399" type="line"/>
			<point x="194" y="407" type="line" smooth="yes"/>
			<point x="173" y="410"/>
			<point x="169" y="417"/>
			<point x="169" y="439" type="curve" smooth="yes"/>
			<point x="169" y="823" type="line"/>
			<point x="161" y="830" type="line"/>
			<point x="38" y="813" type="line"/>
			<point x="35" y="788" type="line"/>
			<point x="94" y="784" type="line" smooth="yes"/>
			<point x="123" y="782"/>
			<point x="125" y="773"/>
			<point x="125" y="745" type="curve" smooth="yes"/>
			<point x="125" y="441" type="line" smooth="yes"/>
			<point x="125" y="420"/>
			<point x="121" y="409"/>
			<point x="101" y="407" type="curve" smooth="yes"/>
			<point x="36" y="399" type="line"/>
		</contour>
	</outline>
</glyph>
<glyph name="ordmasculine" format="2">
	<unicode hex="00BA"/>
	<advance width="397"/>
	<outline>
		<contour>
			<point x="195" y="362" type="curve" smooth="yes"/>
			<point x="301" y="362"/>
			<point x="362" y="432"/>
			<point x="362" y="558" type="curve" smooth="yes"/>
			<point x="362" y="671"/>
			<point x="294" y="742"/>
			<point x="206" y="742" type="curve" smooth="yes"/>
			<point x="109" y="742"/>
			<point x="35" y="688"/>
			<point x="35" y="548" type="curve" smooth="yes"/>
			<point x="35" y="451"/>
			<point x="88" y="362"/>
		</contour>
		<contour>
			<point x="206" y="400" type="curve" smooth="yes"/>
			<point x="115" y="400"/>
			<point x="78" y="461"/>
			<point x="78" y="566" type="curve" smooth="yes"/>
			<point x="78" y="663"/>
			<point x="127" y="704"/>
			<point x="194" y="704" type="curve" smooth="yes"/>
			<point x="278" y="704"/>
			<point x="318" y="645"/>
			<point x="318" y="545" type="curve" smooth="yes"/>
			<point x="318" y="450"/>
			<point x="275" y="400"/>
		</contour>
	</outline>
</glyph>
<glyph name="AE" format="2">
	<unicode hex="00C6"/>
	<advance width="949"/>
	<outline>
		<contour>
			<point x="10" y="0" type="line"/>
			<point x="219" y="0" type="line"/>
			<point x="219" y="27" type="line"/>
			<point x="166" y="33" type="line" smooth="yes"/>
			<point x="130" y="37"/>
			<point x="132" y="53"/>
			<point x="147" y="86" type="curve" smooth="yes"/>
			<point x="256" y="317" type="line"/>
			<point x="498" y="317" type="line"/>
			<point x="498" y="86" type="line" smooth="yes"/>
			<point x="498" y="49"/>
			<point x="492" y="39"/>
			<point x="467" y="35" type="curve" smooth="yes"/>
			<point x="409" y="26" type="line"/>
			<point x="409" y="0" type="line"/>
			<point x="871" y="0" type="line"/>
			<point x="894" y="170" type="line"/>
			<point x="864" y="170" type="line"/>
			<point x="844" y="67"/>
			<point x="823" y="39"/>
			<point x="731" y="39" type="curve" smooth="yes"/>
			<point x="547" y="39" type="line"/>
			<point x="547" y="317" type="line"/>
			<point x="674" y="317" type="line" smooth="yes"/>
			<point x="752" y="317"/>
			<point x="764" y="310"/>
			<point x="775" y="234" type="curve"/>
			<point x="803" y="238" type="line"/>
			<point x="803" y="440" type="line"/>
			<point x="775" y="437" type="line"/>
			<point x="762" y="362"/>
			<point x="752" y="356"/>
			<point x="689" y="356" type="curve" smooth="yes"/>
			<point x="547" y="356" type="line"/>
			<point x="547" y="661" type="line"/>
			<point x="689" y="661" type="line" smooth="yes"/>
			<point x="784" y="661"/>
			<point x="806" y="656"/>
			<point x="843" y="537" type="curve"/>
			<point x="873" y="546" type="line"/>
			<point x="837" y="700" type="line"/>
			<point x="301" y="700" type="line"/>
			<point x="301" y="672" type="line"/>
			<point x="380" y="663" type="line"/>
			<point x="92" y="73" type="line" smooth="yes"/>
			<point x="81" y="51"/>
			<point x="73" y="38"/>
			<point x="52" y="35" type="curve" smooth="yes"/>
			<point x="10" y="27" type="line"/>
		</contour>
		<contour>
			<point x="276" y="356" type="line"/>
			<point x="422" y="661" type="line"/>
			<point x="498" y="661" type="line"/>
			<point x="498" y="356" type="line"/>
		</contour>
	</outline>
	<anchor name="bottom" x="517" y="-30"/>
	<anchor name="top" x="603" y="730"/>
</glyph>
<glyph name="Eth" format="2">
	<unicode hex="00D0"/>
	<advance width="740"/>
	<outline>
		<contour>
			<point x="331" y="700" type="curve" smooth="yes"/>
			<point x="67" y="700" type="line"/>
			<point x="67" y="672" type="line"/>
			<point x="122" y="663" type="line" smooth="yes"/>
			<point x="153" y="658"/>
			<point x="156" y="648"/>
			<point x="156" y="615" type="curve" smooth="yes"/>
			<point x="156" y="379" type="line"/>
			<point x="49" y="379" type="line"/>
			<point x="44" y="340" type="line"/>
			<point x="156" y="340" type="line"/>
			<point x="156" y="86" type="line" smooth="yes"/>
			<point x="156" y="49"/>
			<point x="150" y="39"/>
			<point x="125" y="35" type="curve" smooth="yes"/>
			<point x="67" y="26" type="line"/>
			<point x="67" y="0" type="line"/>
			<point x="321" y="0" type="line" smooth="yes"/>
			<point x="540" y="0"/>
			<point x="675" y="103"/>
			<point x="675" y="371" type="curve" smooth="yes"/>
			<point x="675" y="579"/>
			<point x="554" y="700"/>
		</contour>
		<contour>
			<point x="309" y="39" type="curve" smooth="yes"/>
			<point x="271" y="39"/>
			<point x="226" y="40"/>
			<point x="205" y="43" type="curve"/>
			<point x="205" y="340" type="line"/>
			<point x="421" y="340" type="line"/>
			<point x="421" y="379" type="line"/>
			<point x="205" y="379" type="line"/>
			<point x="205" y="661" type="line"/>
			<point x="323" y="661" type="line" smooth="yes"/>
			<point x="526" y="661"/>
			<point x="624" y="563"/>
			<point x="624" y="359" type="curve" smooth="yes"/>
			<point x="624" y="113"/>
			<point x="494" y="39"/>
		</contour>
	</outline>
	<anchor name="bottom" x="358" y="-30"/>
	<anchor name="top" x="362" y="730"/>
</glyph>
<glyph name="multiply" format="2">
	<unicode hex="00D7"/>
	<advance width="582"/>
	<outline>
		<contour>
			<point x="427" y="139" type="line"/>
			<point x="457" y="169" type="line"/>
			<point x="319" y="307" type="line"/>
			<point x="456" y="444" type="line"/>
			<point x="428" y="472" type="line"/>
			<point x="291" y="335" type="line"/>
			<point x="153" y="473" type="line"/>
			<point x="123" y="443" type="line"/>
			<point x="261" y="305" type="line"/>
			<point x="124" y="168" type="line"/>
			<point x="152" y="140" type="line"/>
			<point x="289" y="277" type="line"/>
		</contour>
	</outline>
</glyph>
<glyph name="Lslash" format="2">
	<unicode hex="0141"/>
	<advance width="584"/>
	<outline>
		<contour>
			<point x="515" y="194" type="line"/>
			<point x="468" y="41"/>
			<point x="453" y="39"/>
			<point x="366" y="39" type="curve" smooth="yes"/>
			<point x="205" y="39" type="line"/>
			<point x="205" y="332" type="line"/>
			<point x="400" y="434" type="line"/>
			<point x="400" y="476" type="line"/>
			<point x="205" y="373" type="line"/>
			<point x="205" y="615" type="line" smooth="yes"/>
			<point x="205" y="651"/>
			<point x="212" y="660"/>
			<point x="237" y="663" type="curve" smooth="yes"/>
			<point x="316" y="673" type="line"/>
			<point x="316" y="700" type="line"/>
			<point x="67" y="700" type="line"/>
			<point x="67" y="672" type="line"/>
			<point x="122" y="663" type="line" smooth="yes"/>
			<point x="147" y="659"/>
			<point x="156" y="651"/>
			<point x="156" y="617" type="curve" smooth="yes"/>
			<point x="156" y="356" type="line"/>
			<point x="33" y="291" type="line"/>
			<point x="33" y="248" type="line"/>
			<point x="156" y="314" type="line"/>
			<point x="156" y="85" type="line" smooth="yes"/>
			<point x="156" y="49"/>
			<point x="149" y="39"/>
			<point x="125" y="35" type="curve" smooth="yes"/>
			<point x="67" y="26" type="line"/>
			<point x="67" y="0" type="line"/>
			<point x="518" y="0" type="line"/>
			<point x="544" y="194" type="line"/>
		</contour>
	</outline>
	<anchor name="bottom" x="309" y="-30"/>
	<anchor name="top" x="181" y="730"/>
</glyph>
<glyph name="lslash" format="2">
	<unicode hex="0142"/>
	<advance width="300"/>
	<outline>
		<contour>
			<point x="57" y="0" type="line"/>
			<point x="254" y="0" type="line"/>
			<point x="254" y="25" type="line"/>
			<point x="205" y="34" type="line" smooth="yes"/>
			<point x="185" y="38"/>
			<point x="180" y="47"/>
			<point x="180" y="78" type="curve" smooth="yes"/>
			<point x="180" y="398" type="line"/>
			<point x="280" y="451" type="line"/>
			<point x="280" y="494" type="line"/>
			<point x="180" y="440" type="line"/>
			<point x="180" y="755" type="line"/>
			<point x="169" y="766" type="line"/>
			<point x="47" y="761" type="line"/>
			<point x="44" y="732" type="line"/>
			<point x="98" y="723" type="line" smooth="yes"/>
			<point x="124" y="719"/>
			<point x="131" y="707"/>
			<point x="131" y="670" type="curve" smooth="yes"/>
			<point x="131" y="423" type="line"/>
			<point x="34" y="371" type="line"/>
			<point x="34" y="328" type="line"/>
			<point x="131" y="381" type="line"/>
			<point x="131" y="82" type="line" smooth="yes"/>
			<point x="131" y="44"/>
			<point x="124" y="36"/>
			<point x="105" y="33" type="curve" smooth="yes"/>
			<point x="57" y="25" type="line"/>
		</contour>
	</outline>
	<anchor name="bottom" x="157" y="-30"/>
	<anchor name="top" x="116" y="780"/>
</glyph>
<glyph name="eng" format="2">
	<unicode hex="014B"/>
	<advance width="601"/>
	<outline>
		<contour>
			<point x="353" y="517" type="curve" smooth="yes"/>
			<point x="282" y="517"/>
			<point x="213" y="483"/>
			<point x="177" y="421" type="curve"/>
			<point x="176" y="421" type="line"/>
			<point x="173" y="503" type="line"/>
			<point x="162" y="509" type="line"/>
			<point x="48" y="497" type="line"/>
			<point x="45" y="469" type="line"/>
			<point x="94" y="462" type="line" smooth="yes"/>
			<point x="123" y="458"/>
			<point x="128" y="447"/>
			<point x="128" y="400" type="curve" smooth="yes"/>
			<point x="128" y="82" type="line" smooth="yes"/>
			<point x="128" y="44"/>
			<point x="121" y="36"/>
			<point x="102" y="33" type="curve" smooth="yes"/>
			<point x="54" y="25" type="line"/>
			<point x="54" y="0" type="line"/>
			<point x="261" y="0" type="line"/>
			<point x="261" y="25" type="line"/>
			<point x="202" y="34" type="line" smooth="yes"/>
			<point x="182" y="37"/>
			<point x="177" y="48"/>
			<point x="177" y="78" type="curve" smooth="yes"/>
			<point x="177" y="316" type="line" smooth="yes"/>
			<point x="177" y="407"/>
			<point x="249" y="473"/>
			<point x="342" y="473" type="curve" smooth="yes"/>
			<point x="428" y="473"/>
			<point x="462" y="431"/>
			<point x="462" y="339" type="curve" smooth="yes"/>
			<point x="462" y="20" type="line" smooth="yes"/>
			<point x="462" y="-111"/>
			<point x="435" y="-156"/>
			<point x="375" y="-206" type="curve"/>
			<point x="390" y="-229" type="line"/>
			<point x="499" y="-158"/>
			<point x="511" y="-93"/>
			<point x="511" y="93" type="curve" smooth="yes"/>
			<point x="511" y="349" type="line" smooth="yes"/>
			<point x="511" y="460"/>
			<point x="453" y="517"/>
		</contour>
	</outline>
	<anchor name="bottom" x="155" y="-30"/>
	<anchor name="top" x="314" y="550"/>
</glyph>
<glyph name="OE" format="2">
	<unicode hex="0152"/>
	<advance width="1068"/>
	<outline>
		<contour>
			<point x="365" y="-14" type="curve" smooth="yes"/>
			<point x="480" y="-14"/>
			<point x="566" y="38"/>
			<point x="617" y="138" type="curve"/>
			<point x="617" y="0" type="line"/>
			<point x="990" y="0" type="line"/>
			<point x="1013" y="170" type="line"/>
			<point x="983" y="170" type="line"/>
			<point x="963" y="67"/>
			<point x="942" y="39"/>
			<point x="850" y="39" type="curve" smooth="yes"/>
			<point x="666" y="39" type="line"/>
			<point x="666" y="337" type="line"/>
			<point x="793" y="337" type="line" smooth="yes"/>
			<point x="871" y="337"/>
			<point x="883" y="330"/>
			<point x="894" y="254" type="curve"/>
			<point x="922" y="258" type="line"/>
			<point x="922" y="460" type="line"/>
			<point x="894" y="457" type="line"/>
			<point x="881" y="382"/>
			<point x="871" y="376"/>
			<point x="808" y="376" type="curve" smooth="yes"/>
			<point x="666" y="376" type="line"/>
			<point x="666" y="661" type="line"/>
			<point x="808" y="661" type="line" smooth="yes"/>
			<point x="903" y="661"/>
			<point x="925" y="656"/>
			<point x="962" y="537" type="curve"/>
			<point x="992" y="546" type="line"/>
			<point x="956" y="700" type="line"/>
			<point x="617" y="700" type="line"/>
			<point x="617" y="576" type="line"/>
			<point x="567" y="666"/>
			<point x="484" y="714"/>
			<point x="371" y="714" type="curve" smooth="yes"/>
			<point x="173" y="714"/>
			<point x="65" y="578"/>
			<point x="65" y="342" type="curve" smooth="yes"/>
			<point x="65" y="124"/>
			<point x="169" y="-14"/>
		</contour>
		<contour>
			<point x="370" y="31" type="curve" smooth="yes"/>
			<point x="204" y="31"/>
			<point x="116" y="154"/>
			<point x="116" y="350" type="curve" smooth="yes"/>
			<point x="116" y="548"/>
			<point x="203" y="669"/>
			<point x="363" y="669" type="curve" smooth="yes"/>
			<point x="530" y="669"/>
			<point x="617" y="552"/>
			<point x="617" y="356" type="curve" smooth="yes"/>
			<point x="617" y="156"/>
			<point x="527" y="31"/>
		</contour>
	</outline>
</glyph>
<glyph name="tcedilla" format="2">
	<unicode hex="0163"/>
	<advance width="375"/>
	<outline>
		<contour>
			<point x="236" y="-229" type="curve" smooth="yes"/>
			<point x="301" y="-229"/>
			<point x="332" y="-189"/>
			<point x="332" y="-138" type="curve" smooth="yes"/>
			<point x="332" y="-85"/>
			<point x="288" y="-58"/>
			<point x="227" y="-62" type="curve"/>
			<point x="246" y="-14" type="line"/>
			<point x="287" y="-11"/>
			<point x="324" y="6"/>
			<point x="365" y="45" type="curve"/>
			<point x="346" y="71" type="line"/>
			<point x="311" y="44"/>
			<point x="278" y="31"/>
			<point x="245" y="31" type="curve" smooth="yes"/>
			<point x="195" y="31"/>
			<point x="165" y="49"/>
			<point x="165" y="127" type="curve" smooth="yes"/>
			<point x="165" y="461" type="line"/>
			<point x="326" y="461" type="line"/>
			<point x="326" y="503" type="line"/>
			<point x="165" y="503" type="line"/>
			<point x="165" y="638" type="line"/>
			<point x="157" y="643" type="line"/>
			<point x="137" y="640" type="line"/>
			<point x="129" y="525"/>
			<point x="93" y="494"/>
			<point x="33" y="493" type="curve"/>
			<point x="33" y="461" type="line"/>
			<point x="116" y="461" type="line"/>
			<point x="116" y="134" type="line" smooth="yes"/>
			<point x="116" y="49"/>
			<point x="137" y="-3"/>
			<point x="208" y="-12" type="curve"/>
			<point x="182" y="-80" type="line"/>
			<point x="190" y="-97" type="line"/>
			<point x="199" y="-95"/>
			<point x="210" y="-93"/>
			<point x="224" y="-93" type="curve" smooth="yes"/>
			<point x="253" y="-93"/>
			<point x="285" y="-102"/>
			<point x="285" y="-140" type="curve" smooth="yes"/>
			<point x="285" y="-176"/>
			<point x="261" y="-189"/>
			<point x="229" y="-189" type="curve" smooth="yes"/>
			<point x="202" y="-189"/>
			<point x="168" y="-174"/>
			<point x="149" y="-160" type="curve"/>
			<point x="131" y="-189" type="line"/>
			<point x="142" y="-201"/>
			<point x="179" y="-229"/>
		</contour>
	</outline>
	<anchor name="bottom" x="240" y="-30"/>
</glyph>
<glyph name="Uogonek" format="2">
	<unicode hex="0172"/>
	<advance width="803"/>
	<outline>
		<contour>
			<point x="445" y="-220" type="curve" smooth="yes"/>
			<point x="473" y="-220"/>
			<point x="504" y="-207"/>
			<point x="527" y="-190" type="curve"/>
			<point x="516" y="-165" type="line"/>
			<point x="494" y="-175"/>
			<point x="473" y="-181"/>
			<point x="455" y="-181" type="curve" smooth="yes"/>
			<point x="430" y="-181"/>
			<point x="414" y="-168"/>
			<point x="414" y="-138" type="curve" smooth="yes"/>
			<point x="414" y="-97"/>
			<point x="456" y="-38"/>
			<point x="517" y="6" type="curve"/>
			<point x="623" y="48"/>
			<point x="663" y="154"/>
			<point x="663" y="308" type="curve" smooth="yes"/>
			<point x="663" y="612" type="line" smooth="yes"/>
			<point x="663" y="649"/>
			<point x="669" y="659"/>
			<point x="693" y="663" type="curve" smooth="yes"/>
			<point x="753" y="672" type="line"/>
			<point x="753" y="700" type="line"/>
			<point x="524" y="700" type="line"/>
			<point x="524" y="672" type="line"/>
			<point x="582" y="663" type="line" smooth="yes"/>
			<point x="609" y="659"/>
			<point x="615" y="649"/>
			<point x="615" y="616" type="curve" smooth="yes"/>
			<point x="615" y="284" type="line" smooth="yes"/>
			<point x="615" y="116"/>
			<point x="542" y="30"/>
			<point x="404" y="30" type="curve" smooth="yes"/>
			<point x="247" y="30"/>
			<point x="191" y="105"/>
			<point x="191" y="270" type="curve" smooth="yes"/>
			<point x="191" y="612" type="line" smooth="yes"/>
			<point x="191" y="649"/>
			<point x="198" y="660"/>
			<point x="221" y="663" type="curve" smooth="yes"/>
			<point x="282" y="672" type="line"/>
			<point x="282" y="700" type="line"/>
			<point x="50" y="700" type="line"/>
			<point x="50" y="672" type="line"/>
			<point x="109" y="663" type="line" smooth="yes"/>
			<point x="136" y="659"/>
			<point x="142" y="649"/>
			<point x="142" y="616" type="curve" smooth="yes"/>
			<point x="142" y="269" type="line" smooth="yes"/>
			<point x="142" y="81"/>
			<point x="213" y="-14"/>
			<point x="395" y="-14" type="curve" smooth="yes"/>
			<point x="417" y="-14"/>
			<point x="438" y="-12"/>
			<point x="457" y="-10" type="curve"/>
			<point x="397" y="-61"/>
			<point x="371" y="-102"/>
			<point x="371" y="-147" type="curve" smooth="yes"/>
			<point x="371" y="-192"/>
			<point x="403" y="-220"/>
		</contour>
	</outline>
	<anchor name="bottom" x="400" y="-30"/>
	<anchor name="top" x="404" y="730"/>
</glyph>
<glyph name="Ohorn" format="2">
	<unicode hex="01A0"/>
	<advance width="792"/>
	<outline>
		<contour>
			<point x="365" y="-14" type="curve" smooth="yes"/>
			<point x="555" y="-14"/>
			<point x="668" y="129"/>
			<point x="668" y="362" type="curve" smooth="yes"/>
			<point x="668" y="408"/>
			<point x="663" y="450"/>
			<point x="654" y="489" type="curve"/>
			<point x="753" y="528"/>
			<point x="792" y="617"/>
			<point x="792" y="686" type="curve" smooth="yes"/>
			<point x="792" y="731"/>
			<point x="774" y="761"/>
			<point x="734" y="761" type="curve" smooth="yes"/>
			<point x="703" y="761"/>
			<point x="681" y="742"/>
			<point x="681" y="708" type="curve" smooth="yes"/>
			<point x="681" y="675"/>
			<point x="701" y="661"/>
			<point x="731" y="661" type="curve" smooth="yes"/>
			<point x="742" y="661" type="line"/>
			<point x="738" y="598"/>
			<point x="707" y="554"/>
			<point x="643" y="525" type="curve"/>
			<point x="601" y="645"/>
			<point x="507" y="714"/>
			<point x="371" y="714" type="curve" smooth="yes"/>
			<point x="173" y="714"/>
			<point x="65" y="578"/>
			<point x="65" y="342" type="curve" smooth="yes"/>
			<point x="65" y="124"/>
			<point x="169" y="-14"/>
		</contour>
		<contour>
			<point x="370" y="31" type="curve" smooth="yes"/>
			<point x="204" y="31"/>
			<point x="116" y="154"/>
			<point x="116" y="350" type="curve" smooth="yes"/>
			<point x="116" y="548"/>
			<point x="203" y="669"/>
			<point x="363" y="669" type="curve" smooth="yes"/>
			<point x="530" y="669"/>
			<point x="617" y="552"/>
			<point x="617" y="356" type="curve" smooth="yes"/>
			<point x="617" y="156"/>
			<point x="527" y="31"/>
		</contour>
	</outline>
	<anchor name="bottom" x="370" y="-30"/>
	<anchor name="top" x="369" y="730"/>
</glyph>
<glyph name="Uhorn" format="2">
	<unicode hex="01AF"/>
	<advance width="850"/>
	<outline>
		<contour>
			<point x="395" y="-14" type="curve" smooth="yes"/>
			<point x="593" y="-14"/>
			<point x="663" y="105"/>
			<point x="663" y="308" type="curve" smooth="yes"/>
			<point x="663" y="473" type="line"/>
			<point x="815" y="516"/>
			<point x="850" y="613"/>
			<point x="850" y="686" type="curve" smooth="yes"/>
			<point x="850" y="731"/>
			<point x="832" y="761"/>
			<point x="792" y="761" type="curve" smooth="yes"/>
			<point x="761" y="761"/>
			<point x="739" y="742"/>
			<point x="739" y="708" type="curve" smooth="yes"/>
			<point x="739" y="675"/>
			<point x="759" y="661"/>
			<point x="789" y="661" type="curve" smooth="yes"/>
			<point x="800" y="661" type="line"/>
			<point x="796" y="596"/>
			<point x="770" y="545"/>
			<point x="663" y="510" type="curve"/>
			<point x="663" y="700" type="line"/>
			<point x="524" y="700" type="line"/>
			<point x="524" y="672" type="line"/>
			<point x="582" y="663" type="line" smooth="yes"/>
			<point x="609" y="659"/>
			<point x="615" y="650"/>
			<point x="615" y="616" type="curve" smooth="yes"/>
			<point x="615" y="284" type="line" smooth="yes"/>
			<point x="615" y="116"/>
			<point x="542" y="30"/>
			<point x="404" y="30" type="curve" smooth="yes"/>
			<point x="247" y="30"/>
			<point x="191" y="105"/>
			<point x="191" y="270" type="curve" smooth="yes"/>
			<point x="191" y="612" type="line" smooth="yes"/>
			<point x="191" y="648"/>
			<point x="197" y="659"/>
			<point x="221" y="663" type="curve" smooth="yes"/>
			<point x="282" y="672" type="line"/>
			<point x="282" y="700" type="line"/>
			<point x="50" y="700" type="line"/>
			<point x="50" y="672" type="line"/>
			<point x="109" y="663" type="line" smooth="yes"/>
			<point x="136" y="659"/>
			<point x="142" y="650"/>
			<point x="142" y="616" type="curve" smooth="yes"/>
			<point x="142" y="269" type="line" smooth="yes"/>
			<point x="142" y="81"/>
			<point x="213" y="-14"/>
		</contour>
	</outline>
	<anchor name="bottom" x="395" y="-30"/>
	<anchor name="top" x="403" y="730"/>
</glyph>
<glyph name="Oogonek" format="2">
	<unicode hex="01EA"/>
	<advance width="733"/>
	<outline>
		<contour>
			<point x="401" y="-220" type="curve" smooth="yes"/>
			<point x="429" y="-220"/>
			<point x="460" y="-207"/>
			<point x="483" y="-190" type="curve"/>
			<point x="472" y="-165" type="line"/>
			<point x="450" y="-175"/>
			<point x="429" y="-181"/>
			<point x="411" y="-181" type="curve" smooth="yes"/>
			<point x="386" y="-181"/>
			<point x="370" y="-168"/>
			<point x="370" y="-138" type="curve" smooth="yes"/>
			<point x="370" y="-98"/>
			<point x="405" y="-50"/>
			<point x="457" y="-1" type="curve"/>
			<point x="591" y="39"/>
			<point x="668" y="170"/>
			<point x="668" y="362" type="curve" smooth="yes"/>
			<point x="668" y="580"/>
			<point x="560" y="714"/>
			<point x="371" y="714" type="curve" smooth="yes"/>
			<point x="173" y="714"/>
			<point x="65" y="578"/>
			<point x="65" y="342" type="curve" smooth="yes"/>
			<point x="65" y="124"/>
			<point x="169" y="-14"/>
			<point x="365" y="-14" type="curve" smooth="yes"/>
			<point x="381" y="-14"/>
			<point x="397" y="-13"/>
			<point x="412" y="-11" type="curve"/>
			<point x="360" y="-56"/>
			<point x="327" y="-103"/>
			<point x="327" y="-147" type="curve" smooth="yes"/>
			<point x="327" y="-192"/>
			<point x="359" y="-220"/>
		</contour>
		<contour>
			<point x="370" y="31" type="curve" smooth="yes"/>
			<point x="204" y="31"/>
			<point x="116" y="154"/>
			<point x="116" y="350" type="curve" smooth="yes"/>
			<point x="116" y="548"/>
			<point x="203" y="669"/>
			<point x="363" y="669" type="curve" smooth="yes"/>
			<point x="530" y="669"/>
			<point x="617" y="552"/>
			<point x="617" y="356" type="curve" smooth="yes"/>
			<point x="617" y="156"/>
			<point x="527" y="31"/>
		</contour>
	</outline>
	<anchor name="bottom" x="368" y="-30"/>
	<anchor name="top" x="365" y="730"/>
</glyph>
<glyph name="jdotless" format="2">
	<unicode hex="0237"/>
	<advance width="261"/>
	<outline>
		<contour>
			<point x="50" y="-229" type="line"/>
			<point x="159" y="-158"/>
			<point x="171" y="-93"/>
			<point x="171" y="93" type="curve" smooth="yes"/>
			<point x="171" y="503" type="line"/>
			<point x="160" y="509" type="line"/>
			<point x="40" y="497" type="line"/>
			<point x="37" y="469" type="line"/>
			<point x="88" y="462" type="line" smooth="yes"/>
			<point x="117" y="458"/>
			<point x="122" y="449"/>
			<point x="122" y="396" type="curve" smooth="yes"/>
			<point x="122" y="20" type="line" smooth="yes"/>
			<point x="122" y="-111"/>
			<point x="95" y="-156"/>
			<point x="35" y="-206" type="curve"/>
		</contour>
	</outline>
	<anchor name="top" x="132" y="550"/>
</glyph>
<glyph name="gsingle" format="2">
	<unicode hex="0261"/>
	<advance width="558"/>
	<outline>
		<contour>
			<point x="281" y="-230" type="curve" smooth="yes"/>
			<point x="369" y="-230"/>
			<point x="468" y="-182"/>
			<point x="468" y="-1" type="curve" smooth="yes"/>
			<point x="468" y="505" type="line"/>
			<point x="448" y="510" type="line"/>
			<point x="423" y="482" type="line"/>
			<point x="386" y="501"/>
			<point x="338" y="517"/>
			<point x="282" y="517" type="curve" smooth="yes"/>
			<point x="142" y="517"/>
			<point x="55" y="413"/>
			<point x="55" y="240" type="curve" smooth="yes"/>
			<point x="55" y="78"/>
			<point x="125" y="-14"/>
			<point x="258" y="-14" type="curve" smooth="yes"/>
			<point x="315" y="-14"/>
			<point x="376" y="5"/>
			<point x="418" y="74" type="curve"/>
			<point x="419" y="74" type="line"/>
			<point x="419" y="-14" type="line" smooth="yes"/>
			<point x="419" y="-151"/>
			<point x="354" y="-190"/>
			<point x="268" y="-190" type="curve" smooth="yes"/>
			<point x="239" y="-190"/>
			<point x="199" y="-183"/>
			<point x="173" y="-169" type="curve"/>
			<point x="181" y="-145"/>
			<point x="186" y="-132"/>
			<point x="186" y="-120" type="curve" smooth="yes"/>
			<point x="186" y="-100"/>
			<point x="173" y="-81"/>
			<point x="146" y="-81" type="curve" smooth="yes"/>
			<point x="115" y="-81"/>
			<point x="100" y="-105"/>
			<point x="100" y="-136" type="curve" smooth="yes"/>
			<point x="100" y="-188"/>
			<point x="164" y="-230"/>
		</contour>
		<contour>
			<point x="266" y="29" type="curve" smooth="yes"/>
			<point x="158" y="29"/>
			<point x="106" y="108"/>
			<point x="106" y="248" type="curve" smooth="yes"/>
			<point x="106" y="390"/>
			<point x="165" y="476"/>
			<point x="279" y="476" type="curve" smooth="yes"/>
			<point x="337" y="476"/>
			<point x="380" y="461"/>
			<point x="419" y="440" type="curve"/>
			<point x="419" y="189" type="line" smooth="yes"/>
			<point x="419" y="94"/>
			<point x="360" y="29"/>
		</contour>
	</outline>
</glyph>
<glyph name="ringhalfleft" format="2">
	<unicode hex="02BF"/>
	<advance width="500"/>
	<outline>
		<contour>
			<point x="291" y="588" type="curve" smooth="yes"/>
			<point x="294" y="588" type="line"/>
			<point x="294" y="625" type="line"/>
			<point x="292" y="625" type="line" smooth="yes"/>
			<point x="243" y="625"/>
			<point x="229" y="655"/>
			<point x="229" y="687" type="curve" smooth="yes"/>
			<point x="229" y="718"/>
			<point x="246" y="745"/>
			<point x="292" y="745" type="curve" smooth="yes"/>
			<point x="294" y="745" type="line"/>
			<point x="294" y="781" type="line"/>
			<point x="292" y="781" type="line"/>
			<point x="221" y="781"/>
			<point x="185" y="736"/>
			<point x="185" y="687" type="curve" smooth="yes"/>
			<point x="185" y="628"/>
			<point x="216" y="588"/>
		</contour>
	</outline>
	<anchor name="_top" x="250" y="550"/>
</glyph>
<glyph name="caron" format="2">
	<unicode hex="02C7"/>
	<advance width="500"/>
	<outline>
		<contour>
			<point x="248" y="593" type="curve" smooth="yes"/>
			<point x="262" y="593"/>
			<point x="276" y="601"/>
			<point x="287" y="615" type="curve" smooth="yes"/>
			<point x="389" y="743" type="line"/>
			<point x="368" y="761" type="line"/>
			<point x="249" y="648" type="line"/>
			<point x="132" y="761" type="line"/>
			<point x="111" y="743" type="line"/>
			<point x="207" y="618" type="line" smooth="yes"/>
			<point x="222" y="599"/>
			<point x="232" y="593"/>
		</contour>
	</outline>
	<anchor name="_top" x="250" y="550"/>
</glyph>
<glyph name="breve" format="2">
	<unicode hex="02D8"/>
	<advance width="500"/>
	<outline>
		<contour>
			<point x="247" y="596" type="curve" smooth="yes"/>
			<point x="341" y="596"/>
			<point x="381" y="668"/>
			<point x="387" y="750" type="curve"/>
			<point x="355" y="754" type="line"/>
			<point x="343" y="687"/>
			<point x="318" y="640"/>
			<point x="250" y="640" type="curve" smooth="yes"/>
			<point x="186" y="640"/>
			<point x="162" y="680"/>
			<point x="148" y="756" type="curve"/>
			<point x="113" y="749" type="line"/>
			<point x="122" y="662"/>
			<point x="160" y="596"/>
		</contour>
	</outline>
	<anchor name="_top" x="250" y="550"/>
</glyph>
<glyph name="dotaccent" format="2">
	<unicode hex="02D9"/>
	<advance width="500"/>
	<outline>
		<contour>
			<point x="250" y="633" type="curve" smooth="yes"/>
			<point x="279" y="633"/>
			<point x="293" y="657"/>
			<point x="293" y="683" type="curve" smooth="yes"/>
			<point x="293" y="711"/>
			<point x="280" y="727"/>
			<point x="251" y="727" type="curve" smooth="yes"/>
			<point x="222" y="727"/>
			<point x="208" y="706"/>
			<point x="208" y="678" type="curve" smooth="yes"/>
			<point x="208" y="652"/>
			<point x="221" y="633"/>
		</contour>
	</outline>
	<anchor name="_top" x="250" y="550"/>
</glyph>
<glyph name="ring" format="2">
	<unicode hex="02DA"/>
	<advance width="500"/>
	<outline>
		<contour>
			<point x="250" y="588" type="curve" smooth="yes"/>
			<point x="315" y="588"/>
			<point x="351" y="628"/>
			<point x="351" y="687" type="curve" smooth="yes"/>
			<point x="351" y="743"/>
			<point x="316" y="781"/>
			<point x="252" y="781" type="curve" smooth="yes"/>
			<point x="184" y="781"/>
			<point x="148" y="736"/>
			<point x="148" y="685" type="curve" smooth="yes"/>
			<point x="148" y="627"/>
			<point x="181" y="588"/>
		</contour>
		<contour>
			<point x="251" y="625" type="curve" smooth="yes"/>
			<point x="208" y="625"/>
			<point x="192" y="654"/>
			<point x="192" y="685" type="curve" smooth="yes"/>
			<point x="192" y="716"/>
			<point x="208" y="745"/>
			<point x="249" y="745" type="curve" smooth="yes"/>
			<point x="290" y="745"/>
			<point x="307" y="717"/>
			<point x="307" y="685" type="curve" smooth="yes"/>
			<point x="307" y="652"/>
			<point x="293" y="625"/>
		</contour>
	</outline>
	<anchor name="_top" x="250" y="550"/>
</glyph>
<glyph name="tilde" format="2">
	<unicode hex="02DC"/>
	<advance width="500"/>
	<outline>
		<contour>
			<point x="325" y="622" type="curve" smooth="yes"/>
			<point x="350" y="622"/>
			<point x="370" y="634"/>
			<point x="395" y="696" type="curve"/>
			<point x="370" y="709" type="line"/>
			<point x="349" y="670"/>
			<point x="341" y="664"/>
			<point x="326" y="664" type="curve" smooth="yes"/>
			<point x="316" y="664"/>
			<point x="298" y="669"/>
			<point x="260" y="687" type="curve" smooth="yes"/>
			<point x="218" y="707"/>
			<point x="200" y="714"/>
			<point x="177" y="714" type="curve" smooth="yes"/>
			<point x="150" y="714"/>
			<point x="128" y="700"/>
			<point x="106" y="640" type="curve"/>
			<point x="131" y="627" type="line"/>
			<point x="149" y="659"/>
			<point x="158" y="671"/>
			<point x="176" y="671" type="curve" smooth="yes"/>
			<point x="190" y="671"/>
			<point x="213" y="662"/>
			<point x="248" y="644" type="curve" smooth="yes"/>
			<point x="281" y="627"/>
			<point x="305" y="622"/>
		</contour>
	</outline>
	<anchor name="_top" x="250" y="550"/>
</glyph>
<glyph name="gravecomb" format="2">
	<unicode hex="0300"/>
	<outline>
		<contour>
			<point x="47" y="584" type="line"/>
			<point x="66" y="602" type="line"/>
			<point x="-35" y="734" type="line" smooth="yes"/>
			<point x="-47" y="749"/>
			<point x="-56" y="756"/>
			<point x="-66" y="756" type="curve" smooth="yes"/>
			<point x="-80" y="756"/>
			<point x="-94" y="740"/>
			<point x="-94" y="726" type="curve" smooth="yes"/>
			<point x="-94" y="714"/>
			<point x="-87" y="701"/>
			<point x="-61" y="678" type="curve" smooth="yes"/>
		</contour>
	</outline>
	<anchor name="_top" x="0" y="550"/>
</glyph>
<glyph name="circumflexcomb" format="2">
	<unicode hex="0302"/>
	<outline>
		<contour>
			<point x="-120" y="584" type="line"/>
			<point x="1" y="699" type="line"/>
			<point x="120" y="584" type="line"/>
			<point x="139" y="602" type="line"/>
			<point x="41" y="727" type="line" smooth="yes"/>
			<point x="26" y="746"/>
			<point x="16" y="752"/>
			<point x="2" y="752" type="curve" smooth="yes"/>
			<point x="-12" y="752"/>
			<point x="-26" y="744"/>
			<point x="-37" y="730" type="curve" smooth="yes"/>
			<point x="-139" y="602" type="line"/>
		</contour>
	</outline>
	<anchor name="_top" x="0" y="550"/>
</glyph>
<glyph name="tildecomb" format="2">
	<unicode hex="0303"/>
	<outline>
		<contour>
			<point x="75" y="618" type="curve" smooth="yes"/>
			<point x="100" y="618"/>
			<point x="120" y="630"/>
			<point x="145" y="692" type="curve"/>
			<point x="120" y="705" type="line"/>
			<point x="99" y="666"/>
			<point x="91" y="660"/>
			<point x="76" y="660" type="curve" smooth="yes"/>
			<point x="66" y="660"/>
			<point x="48" y="665"/>
			<point x="10" y="683" type="curve" smooth="yes"/>
			<point x="-32" y="703"/>
			<point x="-50" y="710"/>
			<point x="-73" y="710" type="curve" smooth="yes"/>
			<point x="-100" y="710"/>
			<point x="-122" y="696"/>
			<point x="-144" y="636" type="curve"/>
			<point x="-119" y="623" type="line"/>
			<point x="-101" y="655"/>
			<point x="-92" y="667"/>
			<point x="-74" y="667" type="curve" smooth="yes"/>
			<point x="-60" y="667"/>
			<point x="-37" y="658"/>
			<point x="-2" y="640" type="curve" smooth="yes"/>
			<point x="31" y="623"/>
			<point x="55" y="618"/>
		</contour>
	</outline>
	<anchor name="_top" x="0" y="550"/>
</glyph>
<glyph name="macroncomb" format="2">
	<unicode hex="0304"/>
	<outline>
		<contour>
			<point x="-130" y="644" type="line"/>
			<point x="130" y="644" type="line"/>
			<point x="130" y="687" type="line"/>
			<point x="-130" y="687" type="line"/>
		</contour>
	</outline>
	<anchor name="_top" x="0" y="550"/>
</glyph>
<glyph name="brevecomb" format="2">
	<unicode hex="0306"/>
	<outline>
		<contour>
			<point x="-3" y="595" type="curve" smooth="yes"/>
			<point x="91" y="595"/>
			<point x="131" y="668"/>
			<point x="137" y="750" type="curve"/>
			<point x="106" y="754" type="line"/>
			<point x="94" y="687"/>
			<point x="68" y="638"/>
			<point x="0" y="638" type="curve" smooth="yes"/>
			<point x="-64" y="638"/>
			<point x="-90" y="677"/>
			<point x="-106" y="753" type="curve"/>
			<point x="-137" y="749" type="line"/>
			<point x="-128" y="662"/>
			<point x="-90" y="595"/>
		</contour>
	</outline>
	<anchor name="_top" x="0" y="550"/>
</glyph>
<glyph name="dieresiscomb" format="2">
	<unicode hex="0308"/>
	<outline>
		<contour>
			<point x="90" y="633" type="curve" smooth="yes"/>
			<point x="119" y="633"/>
			<point x="133" y="657"/>
			<point x="133" y="683" type="curve" smooth="yes"/>
			<point x="133" y="711"/>
			<point x="120" y="727"/>
			<point x="91" y="727" type="curve" smooth="yes"/>
			<point x="62" y="727"/>
			<point x="48" y="706"/>
			<point x="48" y="678" type="curve" smooth="yes"/>
			<point x="48" y="652"/>
			<point x="61" y="633"/>
		</contour>
		<contour>
			<point x="-91" y="633" type="curve" smooth="yes"/>
			<point x="-62" y="633"/>
			<point x="-48" y="657"/>
			<point x="-48" y="683" type="curve" smooth="yes"/>
			<point x="-48" y="711"/>
			<point x="-61" y="727"/>
			<point x="-90" y="727" type="curve" smooth="yes"/>
			<point x="-119" y="727"/>
			<point x="-133" y="706"/>
			<point x="-133" y="678" type="curve" smooth="yes"/>
			<point x="-133" y="652"/>
			<point x="-120" y="633"/>
		</contour>
	</outline>
	<anchor name="_top" x="0" y="550"/>
</glyph>
<glyph name="dblgravecomb" format="2">
	<unicode hex="030F"/>
	<outline>
		<contour>
			<point x="-68" y="584" type="line"/>
			<point x="-49" y="602" type="line"/>
			<point x="-152" y="730" type="line" smooth="yes"/>
			<point x="-164" y="745"/>
			<point x="-173" y="752"/>
			<point x="-183" y="752" type="curve" smooth="yes"/>
			<point x="-196" y="752"/>
			<point x="-207" y="740"/>
			<point x="-207" y="726" type="curve" smooth="yes"/>
			<point x="-207" y="714"/>
			<point x="-200" y="701"/>
			<point x="-174" y="678" type="curve" smooth="yes"/>
		</contour>
		<contour>
			<point x="75" y="584" type="line"/>
			<point x="94" y="602" type="line"/>
			<point x="-5" y="730" type="line" smooth="yes"/>
			<point x="-17" y="745"/>
			<point x="-26" y="752"/>
			<point x="-36" y="752" type="curve" smooth="yes"/>
			<point x="-49" y="752"/>
			<point x="-60" y="740"/>
			<point x="-60" y="726" type="curve" smooth="yes"/>
			<point x="-60" y="714"/>
			<point x="-53" y="702"/>
			<point x="-27" y="678" type="curve" smooth="yes"/>
		</contour>
	</outline>
	<anchor name="_top" x="0" y="550"/>
</glyph>
<glyph name="breveinvertedcomb" format="2">
	<unicode hex="0311"/>
	<outline>
		<contour>
			<point x="3" y="744" type="curve" smooth="yes"/>
			<point x="-91" y="744"/>
			<point x="-131" y="672"/>
			<point x="-137" y="590" type="curve"/>
			<point x="-106" y="586" type="line"/>
			<point x="-94" y="653"/>
			<point x="-68" y="702"/>
			<point x="0" y="702" type="curve" smooth="yes"/>
			<point x="64" y="702"/>
			<point x="90" y="663"/>
			<point x="106" y="587" type="curve"/>
			<point x="137" y="591" type="line"/>
			<point x="128" y="678"/>
			<point x="90" y="744"/>
		</contour>
	</outline>
	<anchor name="_top" x="0" y="550"/>
</glyph>
<glyph name="commaaccentcomb" format="2">
	<unicode hex="0326"/>
	<outline>
		<contour>
			<point x="-19" y="-262" type="line"/>
			<point x="22" y="-224"/>
			<point x="51" y="-169"/>
			<point x="51" y="-122" type="curve" smooth="yes"/>
			<point x="51" y="-91"/>
			<point x="39" y="-59"/>
			<point x="1" y="-59" type="curve" smooth="yes"/>
			<point x="-29" y="-59"/>
			<point x="-42" y="-80"/>
			<point x="-42" y="-103" type="curve" smooth="yes"/>
			<point x="-42" y="-128"/>
			<point x="-27" y="-144"/>
			<point x="-4" y="-144" type="curve" smooth="yes"/>
			<point x="6" y="-144" type="line"/>
			<point x="6" y="-175"/>
			<point x="-6" y="-207"/>
			<point x="-38" y="-241" type="curve"/>
		</contour>
	</outline>
	<anchor name="_bottom" x="0" y="-30"/>
</glyph>
<glyph name="cedillacomb" format="2">
	<unicode hex="0327"/>
	<outline>
		<contour>
			<point x="-4" y="-229" type="curve" smooth="yes"/>
			<point x="61" y="-229"/>
			<point x="92" y="-189"/>
			<point x="92" y="-138" type="curve" smooth="yes"/>
			<point x="92" y="-85"/>
			<point x="48" y="-58"/>
			<point x="-13" y="-62" type="curve"/>
			<point x="16" y="13" type="line"/>
			<point x="-22" y="13" type="line"/>
			<point x="-58" y="-80" type="line"/>
			<point x="-50" y="-97" type="line"/>
			<point x="-41" y="-95"/>
			<point x="-30" y="-93"/>
			<point x="-16" y="-93" type="curve" smooth="yes"/>
			<point x="13" y="-93"/>
			<point x="45" y="-102"/>
			<point x="45" y="-140" type="curve" smooth="yes"/>
			<point x="45" y="-176"/>
			<point x="21" y="-189"/>
			<point x="-11" y="-189" type="curve" smooth="yes"/>
			<point x="-38" y="-189"/>
			<point x="-72" y="-174"/>
			<point x="-91" y="-160" type="curve"/>
			<point x="-109" y="-189" type="line"/>
			<point x="-98" y="-201"/>
			<point x="-61" y="-229"/>
		</contour>
	</outline>
	<anchor name="_bottom" x="0" y="-30"/>
</glyph>
<glyph name="brevebelowcomb" format="2">
	<unicode hex="032E"/>
	<outline>
		<contour>
			<point x="-2" y="-207" type="curve" smooth="yes"/>
			<point x="94" y="-207"/>
			<point x="137" y="-142"/>
			<point x="144" y="-62" type="curve"/>
			<point x="114" y="-57" type="line"/>
			<point x="99" y="-116"/>
			<point x="66" y="-162"/>
			<point x="0" y="-162" type="curve" smooth="yes"/>
			<point x="-65" y="-162"/>
			<point x="-94" y="-124"/>
			<point x="-113" y="-57" type="curve"/>
			<point x="-143" y="-62" type="line"/>
			<point x="-134" y="-149"/>
			<point x="-96" y="-207"/>
		</contour>
	</outline>
	<anchor name="_bottom" x="0" y="-30"/>
</glyph>
<glyph name="ypogegrammeni" format="2">
	<unicode hex="037A"/>
	<advance width="240"/>
	<outline>
		<contour>
			<point x="155" y="-228" type="curve" smooth="yes"/>
			<point x="185" y="-228"/>
			<point x="215" y="-217"/>
			<point x="235" y="-199" type="curve"/>
			<point x="224" y="-175" type="line"/>
			<point x="209" y="-182"/>
			<point x="186" y="-188"/>
			<point x="170" y="-188" type="curve" smooth="yes"/>
			<point x="136" y="-188"/>
			<point x="120" y="-165"/>
			<point x="120" y="-117" type="curve" smooth="yes"/>
			<point x="120" y="-98"/>
			<point x="121" y="-80"/>
			<point x="124" y="-52" type="curve"/>
			<point x="116" y="-44" type="line"/>
			<point x="76" y="-49" type="line"/>
			<point x="76" y="-127" type="line" smooth="yes"/>
			<point x="76" y="-192"/>
			<point x="104" y="-228"/>
		</contour>
	</outline>
	<anchor name="_bottom" x="100" y="-30"/>
</glyph>
<glyph name="Delta" format="2">
	<unicode hex="0394"/>
	<advance width="567"/>
	<outline>
		<contour>
			<point x="27" y="0" type="line"/>
			<point x="541" y="0" type="line"/>
			<point x="547" y="28" type="line"/>
			<point x="306" y="700" type="line"/>
			<point x="267" y="700" type="line"/>
			<point x="20" y="28" type="line"/>
		</contour>
		<contour>
			<point x="80" y="59" type="line"/>
			<point x="283" y="630" type="line"/>
			<point x="285" y="630" type="line"/>
			<point x="485" y="59" type="line"/>
		</contour>
	</outline>
</glyph>
<glyph name="Lambda" format="2">
	<unicode hex="039B"/>
	<advance width="637"/>
	<outline>
		<contour>
			<point x="10" y="0" type="line"/>
			<point x="227" y="0" type="line"/>
			<point x="227" y="27" type="line"/>
			<point x="170" y="34" type="line" smooth="yes"/>
			<point x="141" y="38"/>
			<point x="135" y="53"/>
			<point x="147" y="88" type="curve"/>
			<point x="321" y="630" type="line"/>
			<point x="323" y="630" type="line"/>
			<point x="495" y="84" type="line"/>
			<point x="507" y="49"/>
			<point x="503" y="39"/>
			<point x="476" y="35" type="curve" smooth="yes"/>
			<point x="418" y="27" type="line"/>
			<point x="418" y="0" type="line"/>
			<point x="627" y="0" type="line"/>
			<point x="627" y="29" type="line"/>
			<point x="590" y="35" type="line" smooth="yes"/>
			<point x="564" y="40"/>
			<point x="557" y="48"/>
			<point x="545" y="85" type="curve" smooth="yes"/>
			<point x="344" y="700" type="line"/>
			<point x="305" y="700" type="line"/>
			<point x="99" y="88" type="line" smooth="yes"/>
			<point x="86" y="49"/>
			<point x="78" y="40"/>
			<point x="52" y="35" type="curve" smooth="yes"/>
			<point x="10" y="27" type="line"/>
		</contour>
	</outline>
</glyph>
<glyph name="Pi" format="2">
	<unicode hex="03A0"/>
	<advance width="787"/>
	<outline>
		<contour>
			<point x="67" y="0" type="line"/>
			<point x="293" y="0" type="line"/>
			<point x="293" y="26" type="line"/>
			<point x="237" y="35" type="line" smooth="yes"/>
			<point x="211" y="39"/>
			<point x="205" y="48"/>
			<point x="205" y="82" type="curve"/>
			<point x="205" y="661" type="line"/>
			<point x="583" y="661" type="line"/>
			<point x="583" y="86" type="line"/>
			<point x="583" y="49"/>
			<point x="577" y="39"/>
			<point x="552" y="35" type="curve" smooth="yes"/>
			<point x="495" y="26" type="line"/>
			<point x="495" y="0" type="line"/>
			<point x="720" y="0" type="line"/>
			<point x="720" y="26" type="line"/>
			<point x="665" y="35" type="line" smooth="yes"/>
			<point x="638" y="39"/>
			<point x="632" y="48"/>
			<point x="632" y="82" type="curve" smooth="yes"/>
			<point x="632" y="612" type="line" smooth="yes"/>
			<point x="632" y="649"/>
			<point x="638" y="659"/>
			<point x="663" y="663" type="curve" smooth="yes"/>
			<point x="720" y="672" type="line"/>
			<point x="720" y="700" type="line"/>
			<point x="67" y="700" type="line"/>
			<point x="67" y="672" type="line"/>
			<point x="123" y="663" type="line" smooth="yes"/>
			<point x="150" y="659"/>
			<point x="156" y="650"/>
			<point x="156" y="616" type="curve" smooth="yes"/>
			<point x="156" y="86" type="line" smooth="yes"/>
			<point x="156" y="49"/>
			<point x="150" y="39"/>
			<point x="125" y="35" type="curve" smooth="yes"/>
			<point x="67" y="26" type="line"/>
		</contour>
	</outline>
</glyph>
<glyph name="Sigma" format="2">
	<unicode hex="03A3"/>
	<advance width="638"/>
	<outline>
		<contour>
			<point x="72" y="0" type="line"/>
			<point x="551" y="0" type="line"/>
			<point x="578" y="204" type="line"/>
			<point x="549" y="204" type="line"/>
			<point x="506" y="65"/>
			<point x="495" y="54"/>
			<point x="404" y="54" type="curve" smooth="yes"/>
			<point x="113" y="54" type="line"/>
			<point x="130" y="35" type="line"/>
			<point x="312" y="341" type="line"/>
			<point x="312" y="347" type="line"/>
			<point x="130" y="661" type="line"/>
			<point x="404" y="661" type="line" smooth="yes"/>
			<point x="479" y="661"/>
			<point x="500" y="640"/>
			<point x="531" y="537" type="curve"/>
			<point x="561" y="546" type="line"/>
			<point x="525" y="700" type="line"/>
			<point x="58" y="700" type="line"/>
			<point x="58" y="666" type="line"/>
			<point x="259" y="331" type="line"/>
			<point x="72" y="21" type="line"/>
		</contour>
	</outline>
</glyph>
<glyph name="Phi" format="2">
	<unicode hex="03A6"/>
	<advance width="813"/>
	<outline>
		<contour>
			<point x="293" y="-30" type="line"/>
			<point x="519" y="-30" type="line"/>
			<point x="519" y="-4" type="line"/>
			<point x="463" y="5" type="line" smooth="yes"/>
			<point x="437" y="9"/>
			<point x="431" y="18"/>
			<point x="431" y="52" type="curve" smooth="yes"/>
			<point x="431" y="83" type="line"/>
			<point x="630" y="92"/>
			<point x="748" y="196"/>
			<point x="748" y="362" type="curve" smooth="yes"/>
			<point x="748" y="521"/>
			<point x="631" y="618"/>
			<point x="431" y="624" type="curve"/>
			<point x="431" y="642" type="line" smooth="yes"/>
			<point x="431" y="678"/>
			<point x="437" y="689"/>
			<point x="461" y="693" type="curve" smooth="yes"/>
			<point x="519" y="702" type="line"/>
			<point x="519" y="730" type="line"/>
			<point x="293" y="730" type="line"/>
			<point x="293" y="702" type="line"/>
			<point x="349" y="693" type="line" smooth="yes"/>
			<point x="376" y="689"/>
			<point x="382" y="680"/>
			<point x="382" y="646" type="curve" smooth="yes"/>
			<point x="382" y="624" type="line"/>
			<point x="178" y="615"/>
			<point x="65" y="517"/>
			<point x="65" y="348" type="curve" smooth="yes"/>
			<point x="65" y="186"/>
			<point x="180" y="90"/>
			<point x="382" y="83" type="curve"/>
			<point x="382" y="56" type="line" smooth="yes"/>
			<point x="382" y="19"/>
			<point x="376" y="9"/>
			<point x="351" y="5" type="curve" smooth="yes"/>
			<point x="293" y="-4" type="line"/>
		</contour>
		<contour>
			<point x="382" y="122" type="line"/>
			<point x="213" y="130"/>
			<point x="116" y="214"/>
			<point x="116" y="354" type="curve" smooth="yes"/>
			<point x="116" y="495"/>
			<point x="212" y="579"/>
			<point x="382" y="586" type="curve"/>
		</contour>
		<contour>
			<point x="431" y="121" type="curve"/>
			<point x="431" y="585" type="line"/>
			<point x="602" y="577"/>
			<point x="696" y="497"/>
			<point x="696" y="358" type="curve" smooth="yes"/>
			<point x="696" y="216"/>
			<point x="598" y="128"/>
		</contour>
	</outline>
</glyph>
<glyph name="Psi" format="2">
	<unicode hex="03A8"/>
	<advance width="845"/>
	<outline>
		<contour>
			<point x="310" y="0" type="line"/>
			<point x="536" y="0" type="line"/>
			<point x="536" y="26" type="line"/>
			<point x="478" y="35" type="line" smooth="yes"/>
			<point x="453" y="39"/>
			<point x="447" y="49"/>
			<point x="447" y="86" type="curve" smooth="yes"/>
			<point x="447" y="199" type="line"/>
			<point x="636" y="204"/>
			<point x="705" y="271"/>
			<point x="705" y="448" type="curve" smooth="yes"/>
			<point x="705" y="612" type="line" smooth="yes"/>
			<point x="705" y="648"/>
			<point x="711" y="659"/>
			<point x="735" y="663" type="curve" smooth="yes"/>
			<point x="795" y="672" type="line"/>
			<point x="795" y="700" type="line"/>
			<point x="657" y="700" type="line"/>
			<point x="657" y="457" type="line" smooth="yes"/>
			<point x="657" y="297"/>
			<point x="603" y="240"/>
			<point x="447" y="235" type="curve"/>
			<point x="447" y="616" type="line" smooth="yes"/>
			<point x="447" y="650"/>
			<point x="453" y="659"/>
			<point x="480" y="663" type="curve" smooth="yes"/>
			<point x="536" y="672" type="line"/>
			<point x="536" y="700" type="line"/>
			<point x="310" y="700" type="line"/>
			<point x="310" y="672" type="line"/>
			<point x="368" y="663" type="line" smooth="yes"/>
			<point x="392" y="659"/>
			<point x="398" y="648"/>
			<point x="398" y="612" type="curve" smooth="yes"/>
			<point x="398" y="235" type="line"/>
			<point x="242" y="240"/>
			<point x="188" y="297"/>
			<point x="188" y="457" type="curve" smooth="yes"/>
			<point x="188" y="700" type="line"/>
			<point x="50" y="700" type="line"/>
			<point x="50" y="672" type="line"/>
			<point x="110" y="663" type="line" smooth="yes"/>
			<point x="134" y="659"/>
			<point x="140" y="648"/>
			<point x="140" y="612" type="curve" smooth="yes"/>
			<point x="140" y="448" type="line" smooth="yes"/>
			<point x="140" y="271"/>
			<point x="209" y="204"/>
			<point x="398" y="199" type="curve"/>
			<point x="398" y="82" type="line" smooth="yes"/>
			<point x="398" y="48"/>
			<point x="392" y="39"/>
			<point x="366" y="35" type="curve" smooth="yes"/>
			<point x="310" y="26" type="line"/>
		</contour>
	</outline>
</glyph>
<glyph name="alpha" format="2">
	<unicode hex="03B1"/>
	<advance width="602"/>
	<outline>
		<contour>
			<point x="254" y="-14" type="curve" smooth="yes"/>
			<point x="317" y="-14"/>
			<point x="385" y="25"/>
			<point x="419" y="81" type="curve"/>
			<point x="420" y="81" type="line"/>
			<point x="422" y="19"/>
			<point x="449" y="-14"/>
			<point x="497" y="-14" type="curve" smooth="yes"/>
			<point x="528" y="-14"/>
			<point x="558" y="-3"/>
			<point x="577" y="15" type="curve"/>
			<point x="566" y="39" type="line"/>
			<point x="546" y="30"/>
			<point x="528" y="26"/>
			<point x="515" y="26" type="curve" smooth="yes"/>
			<point x="472" y="26"/>
			<point x="464" y="47"/>
			<point x="464" y="156" type="curve" smooth="yes"/>
			<point x="464" y="234"/>
			<point x="479" y="391"/>
			<point x="498" y="503" type="curve"/>
			<point x="486" y="509" type="line"/>
			<point x="434" y="504" type="line"/>
			<point x="428" y="433" type="line"/>
			<point x="426" y="433" type="line"/>
			<point x="390" y="488"/>
			<point x="334" y="517"/>
			<point x="265" y="517" type="curve" smooth="yes"/>
			<point x="134" y="517"/>
			<point x="56" y="415"/>
			<point x="56" y="245" type="curve" smooth="yes"/>
			<point x="56" y="77"/>
			<point x="125" y="-14"/>
		</contour>
		<contour>
			<point x="261" y="27" type="curve" smooth="yes"/>
			<point x="161" y="27"/>
			<point x="107" y="105"/>
			<point x="107" y="248" type="curve" smooth="yes"/>
			<point x="107" y="396"/>
			<point x="163" y="476"/>
			<point x="267" y="476" type="curve" smooth="yes"/>
			<point x="331" y="476"/>
			<point x="386" y="441"/>
			<point x="423" y="376" type="curve"/>
			<point x="418" y="292"/>
			<point x="415" y="206"/>
			<point x="415" y="147" type="curve"/>
			<point x="377" y="65"/>
			<point x="328" y="27"/>
		</contour>
	</outline>
	<anchor name="bottom" x="256" y="-45"/>
	<anchor name="top" x="280" y="550"/>
</glyph>
<glyph name="delta" format="2">
	<unicode hex="03B4"/>
	<advance width="507"/>
	<outline>
		<contour>
			<point x="252" y="-14" type="curve" smooth="yes"/>
			<point x="373" y="-14"/>
			<point x="462" y="89"/>
			<point x="462" y="228" type="curve" smooth="yes"/>
			<point x="462" y="334"/>
			<point x="414" y="406"/>
			<point x="286" y="494" type="curve" smooth="yes"/>
			<point x="188" y="561"/>
			<point x="151" y="603"/>
			<point x="151" y="649" type="curve" smooth="yes"/>
			<point x="151" y="706"/>
			<point x="197" y="740"/>
			<point x="273" y="740" type="curve" smooth="yes"/>
			<point x="322" y="740"/>
			<point x="371" y="719"/>
			<point x="395" y="688" type="curve"/>
			<point x="372" y="655"/>
			<point x="367" y="645"/>
			<point x="367" y="626" type="curve" smooth="yes"/>
			<point x="367" y="604"/>
			<point x="383" y="591"/>
			<point x="408" y="591" type="curve" smooth="yes"/>
			<point x="437" y="591"/>
			<point x="457" y="615"/>
			<point x="457" y="651" type="curve" smooth="yes"/>
			<point x="457" y="722"/>
			<point x="371" y="782"/>
			<point x="270" y="782" type="curve" smooth="yes"/>
			<point x="174" y="782"/>
			<point x="104" y="725"/>
			<point x="104" y="646" type="curve" smooth="yes"/>
			<point x="104" y="585"/>
			<point x="139" y="541"/>
			<point x="246" y="466" type="curve"/>
			<point x="117" y="444"/>
			<point x="40" y="352"/>
			<point x="40" y="219" type="curve" smooth="yes"/>
			<point x="40" y="79"/>
			<point x="125" y="-14"/>
		</contour>
		<contour>
			<point x="252" y="27" type="curve" smooth="yes"/>
			<point x="156" y="27"/>
			<point x="90" y="106"/>
			<point x="90" y="221" type="curve" smooth="yes"/>
			<point x="90" y="337"/>
			<point x="166" y="425"/>
			<point x="276" y="439" type="curve"/>
			<point x="373" y="385"/>
			<point x="415" y="321"/>
			<point x="415" y="227" type="curve" smooth="yes"/>
			<point x="415" y="105"/>
			<point x="351" y="27"/>
		</contour>
	</outline>
</glyph>
<glyph name="epsilon" format="2">
	<unicode hex="03B5"/>
	<advance width="494"/>
	<outline>
		<contour>
			<point x="245" y="-14" type="curve" smooth="yes"/>
			<point x="325" y="-14"/>
			<point x="385" y="10"/>
			<point x="433" y="62" type="curve"/>
			<point x="411" y="87" type="line"/>
			<point x="364" y="47"/>
			<point x="315" y="30"/>
			<point x="247" y="30" type="curve" smooth="yes"/>
			<point x="157" y="30"/>
			<point x="106" y="67"/>
			<point x="106" y="132" type="curve" smooth="yes"/>
			<point x="106" y="192"/>
			<point x="139" y="231"/>
			<point x="206" y="250" type="curve"/>
			<point x="239" y="225"/>
			<point x="259" y="216"/>
			<point x="278" y="216" type="curve" smooth="yes"/>
			<point x="308" y="216"/>
			<point x="329" y="236"/>
			<point x="329" y="264" type="curve" smooth="yes"/>
			<point x="329" y="293"/>
			<point x="310" y="311"/>
			<point x="281" y="311" type="curve" smooth="yes"/>
			<point x="261" y="311"/>
			<point x="244" y="305"/>
			<point x="207" y="282" type="curve"/>
			<point x="139" y="304"/>
			<point x="111" y="332"/>
			<point x="111" y="379" type="curve" smooth="yes"/>
			<point x="111" y="437"/>
			<point x="173" y="479"/>
			<point x="259" y="479" type="curve" smooth="yes"/>
			<point x="316" y="479"/>
			<point x="359" y="466"/>
			<point x="384" y="441" type="curve"/>
			<point x="361" y="408"/>
			<point x="355" y="395"/>
			<point x="355" y="379" type="curve" smooth="yes"/>
			<point x="355" y="357"/>
			<point x="371" y="343"/>
			<point x="398" y="343" type="curve" smooth="yes"/>
			<point x="427" y="343"/>
			<point x="447" y="367"/>
			<point x="447" y="402" type="curve" smooth="yes"/>
			<point x="447" y="473"/>
			<point x="375" y="517"/>
			<point x="259" y="517" type="curve" smooth="yes"/>
			<point x="141" y="517"/>
			<point x="64" y="460"/>
			<point x="64" y="374" type="curve" smooth="yes"/>
			<point x="64" y="325"/>
			<point x="100" y="285"/>
			<point x="162" y="264" type="curve"/>
			<point x="162" y="263" type="line"/>
			<point x="99" y="245"/>
			<point x="55" y="190"/>
			<point x="55" y="130" type="curve" smooth="yes"/>
			<point x="55" y="42"/>
			<point x="129" y="-14"/>
		</contour>
	</outline>
	<anchor name="top" x="244" y="550"/>
</glyph>
<glyph name="eta" format="2">
	<unicode hex="03B7"/>
	<advance width="572"/>
	<outline>
		<contour>
			<point x="474" y="-221" type="line"/>
			<point x="486" y="-215" type="line"/>
			<point x="492" y="-170"/>
			<point x="496" y="-58"/>
			<point x="496" y="42" type="curve" smooth="yes"/>
			<point x="496" y="352" type="line" smooth="yes"/>
			<point x="496" y="459"/>
			<point x="438" y="517"/>
			<point x="333" y="517" type="curve" smooth="yes"/>
			<point x="265" y="517"/>
			<point x="191" y="471"/>
			<point x="164" y="412" type="curve"/>
			<point x="162" y="412" type="line"/>
			<point x="162" y="478"/>
			<point x="140" y="511"/>
			<point x="95" y="511" type="curve" smooth="yes"/>
			<point x="69" y="511"/>
			<point x="44" y="501"/>
			<point x="23" y="482" type="curve"/>
			<point x="34" y="458" type="line"/>
			<point x="50" y="466"/>
			<point x="67" y="471"/>
			<point x="80" y="471" type="curve" smooth="yes"/>
			<point x="107" y="471"/>
			<point x="118" y="453"/>
			<point x="118" y="409" type="curve" smooth="yes"/>
			<point x="118" y="0" type="line"/>
			<point x="167" y="0" type="line"/>
			<point x="167" y="318" type="line" smooth="yes"/>
			<point x="167" y="400"/>
			<point x="238" y="473"/>
			<point x="319" y="473" type="curve" smooth="yes"/>
			<point x="416" y="473"/>
			<point x="447" y="436"/>
			<point x="447" y="323" type="curve" smooth="yes"/>
			<point x="447" y="24" type="line" smooth="yes"/>
			<point x="447" y="-56"/>
			<point x="441" y="-155"/>
			<point x="432" y="-217" type="curve"/>
		</contour>
	</outline>
	<anchor name="bottom" x="142" y="-30"/>
	<anchor name="top" x="273" y="550"/>
</glyph>
<glyph name="iota" format="2">
	<unicode hex="03B9"/>
	<advance width="283"/>
	<outline>
		<contour>
			<point x="181" y="-14" type="curve" smooth="yes"/>
			<point x="217" y="-14"/>
			<point x="260" y="2"/>
			<point x="278" y="22" type="curve"/>
			<point x="267" y="46" type="line"/>
			<point x="234" y="34"/>
			<point x="220" y="31"/>
			<point x="199" y="31" type="curve" smooth="yes"/>
			<point x="144" y="31"/>
			<point x="129" y="50"/>
			<point x="129" y="121" type="curve" smooth="yes"/>
			<point x="129" y="171"/>
			<point x="134" y="374"/>
			<point x="138" y="503" type="curve"/>
			<point x="126" y="509" type="line"/>
			<point x="76" y="504" type="line"/>
			<point x="79" y="395"/>
			<point x="82" y="217"/>
			<point x="82" y="113" type="curve" smooth="yes"/>
			<point x="82" y="24"/>
			<point x="112" y="-14"/>
		</contour>
	</outline>
	<anchor name="top" x="105" y="550"/>
</glyph>
<glyph name="pi" format="2">
	<unicode hex="03C0"/>
	<advance width="619"/>
	<outline>
		<contour>
			<point x="480" y="-14" type="curve" smooth="yes"/>
			<point x="519" y="-14"/>
			<point x="562" y="1"/>
			<point x="579" y="22" type="curve"/>
			<point x="568" y="46" type="line"/>
			<point x="541" y="35"/>
			<point x="522" y="31"/>
			<point x="493" y="31" type="curve" smooth="yes"/>
			<point x="440" y="31"/>
			<point x="427" y="51"/>
			<point x="427" y="131" type="curve" smooth="yes"/>
			<point x="427" y="234"/>
			<point x="429" y="363"/>
			<point x="429" y="466" type="curve"/>
			<point x="549" y="466" type="line"/>
			<point x="561" y="472" type="line"/>
			<point x="561" y="517" type="line"/>
			<point x="142" y="512" type="line" smooth="yes"/>
			<point x="109" y="512"/>
			<point x="51" y="499"/>
			<point x="14" y="484" type="curve"/>
			<point x="11" y="467" type="line"/>
			<point x="157" y="466" type="line"/>
			<point x="69" y="6" type="line"/>
			<point x="81" y="0" type="line"/>
			<point x="128" y="0" type="line"/>
			<point x="194" y="466" type="line"/>
			<point x="389" y="466" type="line"/>
			<point x="376" y="181"/>
			<point x="375" y="150"/>
			<point x="375" y="110" type="curve" smooth="yes"/>
			<point x="375" y="23"/>
			<point x="406" y="-14"/>
		</contour>
	</outline>
</glyph>
<glyph name="rho" format="2">
	<unicode hex="03C1"/>
	<advance width="534"/>
	<outline>
		<contour>
			<point x="90" y="-222" type="line"/>
			<point x="131" y="-217" type="line"/>
			<point x="123" y="-175"/>
			<point x="115" y="-50"/>
			<point x="115" y="22" type="curve"/>
			<point x="117" y="22" type="line"/>
			<point x="143" y="3"/>
			<point x="210" y="-14"/>
			<point x="259" y="-14" type="curve" smooth="yes"/>
			<point x="392" y="-14"/>
			<point x="479" y="92"/>
			<point x="479" y="253" type="curve" smooth="yes"/>
			<point x="479" y="423"/>
			<point x="407" y="517"/>
			<point x="277" y="517" type="curve" smooth="yes"/>
			<point x="147" y="517"/>
			<point x="66" y="422"/>
			<point x="66" y="271" type="curve" smooth="yes"/>
			<point x="66" y="40" type="line" smooth="yes"/>
			<point x="66" y="-55"/>
			<point x="70" y="-162"/>
			<point x="76" y="-215" type="curve"/>
		</contour>
		<contour>
			<point x="263" y="27" type="curve" smooth="yes"/>
			<point x="207" y="27"/>
			<point x="151" y="43"/>
			<point x="115" y="70" type="curve"/>
			<point x="115" y="274" type="line" smooth="yes"/>
			<point x="115" y="404"/>
			<point x="173" y="476"/>
			<point x="277" y="476" type="curve" smooth="yes"/>
			<point x="375" y="476"/>
			<point x="428" y="399"/>
			<point x="428" y="256" type="curve" smooth="yes"/>
			<point x="428" y="116"/>
			<point x="364" y="27"/>
		</contour>
	</outline>
	<anchor name="top" x="247" y="550"/>
</glyph>
<glyph name="sigmafinal" format="2">
	<unicode hex="03C2"/>
	<advance width="474"/>
	<outline>
		<contour>
			<point x="325" y="-230" type="line"/>
			<point x="384" y="-185"/>
			<point x="412" y="-137"/>
			<point x="412" y="-82" type="curve" smooth="yes"/>
			<point x="412" y="-5"/>
			<point x="375" y="27"/>
			<point x="257" y="54" type="curve" smooth="yes"/>
			<point x="145" y="79"/>
			<point x="97" y="140"/>
			<point x="99" y="252" type="curve" smooth="yes"/>
			<point x="98" y="393"/>
			<point x="159" y="475"/>
			<point x="263" y="475" type="curve" smooth="yes"/>
			<point x="307" y="475"/>
			<point x="343" y="463"/>
			<point x="369" y="440" type="curve"/>
			<point x="345" y="403"/>
			<point x="340" y="394"/>
			<point x="340" y="379" type="curve" smooth="yes"/>
			<point x="340" y="357"/>
			<point x="356" y="343"/>
			<point x="381" y="343" type="curve" smooth="yes"/>
			<point x="413" y="343"/>
			<point x="432" y="366"/>
			<point x="432" y="404" type="curve" smooth="yes"/>
			<point x="432" y="470"/>
			<point x="362" y="517"/>
			<point x="263" y="517" type="curve" smooth="yes"/>
			<point x="131" y="517"/>
			<point x="50" y="416"/>
			<point x="50" y="252" type="curve" smooth="yes"/>
			<point x="50" y="105"/>
			<point x="103" y="39"/>
			<point x="250" y="7" type="curve" smooth="yes"/>
			<point x="341" y="-13"/>
			<point x="369" y="-35"/>
			<point x="369" y="-88" type="curve" smooth="yes"/>
			<point x="369" y="-127"/>
			<point x="346" y="-168"/>
			<point x="303" y="-204" type="curve"/>
		</contour>
	</outline>
</glyph>
<glyph name="tau" format="2">
	<unicode hex="03C4"/>
	<advance width="469"/>
	<outline>
		<contour>
			<point x="278" y="-13" type="curve" smooth="yes"/>
			<point x="326" y="-13"/>
			<point x="368" y="6"/>
			<point x="410" y="46" type="curve"/>
			<point x="391" y="72" type="line"/>
			<point x="363" y="53"/>
			<point x="334" y="32"/>
			<point x="285" y="32" type="curve" smooth="yes"/>
			<point x="232" y="32"/>
			<point x="210" y="60"/>
			<point x="210" y="128" type="curve" smooth="yes"/>
			<point x="210" y="186"/>
			<point x="217" y="391"/>
			<point x="222" y="466" type="curve"/>
			<point x="422" y="466" type="line"/>
			<point x="434" y="472" type="line"/>
			<point x="434" y="517" type="line"/>
			<point x="136" y="512" type="line"/>
			<point x="99" y="510"/>
			<point x="42" y="497"/>
			<point x="15" y="485" type="curve"/>
			<point x="11" y="467" type="line"/>
			<point x="188" y="466" type="line"/>
			<point x="172" y="306"/>
			<point x="161" y="171"/>
			<point x="161" y="134" type="curve" smooth="yes"/>
			<point x="161" y="30"/>
			<point x="195" y="-13"/>
		</contour>
	</outline>
</glyph>
<glyph name="phi" format="2">
	<unicode hex="03C6"/>
	<advance width="714"/>
	<outline>
		<contour>
			<point x="334" y="-219" type="line"/>
			<point x="371" y="-219" type="line"/>
			<point x="375" y="-14" type="line"/>
			<point x="559" y="-9"/>
			<point x="664" y="90"/>
			<point x="664" y="258" type="curve" smooth="yes"/>
			<point x="664" y="410"/>
			<point x="557" y="508"/>
			<point x="383" y="516" type="curve"/>
			<point x="389" y="692" type="line"/>
			<point x="377" y="698" type="line"/>
			<point x="329" y="694" type="line"/>
			<point x="332" y="516" type="line"/>
			<point x="153" y="510"/>
			<point x="50" y="411"/>
			<point x="50" y="247" type="curve" smooth="yes"/>
			<point x="50" y="91"/>
			<point x="153" y="-4"/>
			<point x="332" y="-13" type="curve"/>
		</contour>
		<contour>
			<point x="332" y="28" type="line"/>
			<point x="178" y="39"/>
			<point x="100" y="120"/>
			<point x="100" y="268" type="curve" smooth="yes"/>
			<point x="100" y="398"/>
			<point x="184" y="473"/>
			<point x="332" y="477" type="curve"/>
		</contour>
		<contour>
			<point x="376" y="27" type="curve"/>
			<point x="382" y="476" type="line"/>
			<point x="535" y="463"/>
			<point x="613" y="384"/>
			<point x="613" y="240" type="curve" smooth="yes"/>
			<point x="613" y="104"/>
			<point x="533" y="32"/>
		</contour>
	</outline>
</glyph>
<glyph name="chi" format="2">
	<unicode hex="03C7"/>
	<advance width="511"/>
	<outline>
		<contour>
			<point x="448" y="-230" type="curve" smooth="yes"/>
			<point x="476" y="-230"/>
			<point x="509" y="-218"/>
			<point x="526" y="-201" type="curve"/>
			<point x="515" y="-177" type="line"/>
			<point x="494" y="-186"/>
			<point x="475" y="-190"/>
			<point x="461" y="-190" type="curve" smooth="yes"/>
			<point x="421" y="-190"/>
			<point x="413" y="-181"/>
			<point x="385" y="-104" type="curve" smooth="yes"/>
			<point x="293" y="148" type="line"/>
			<point x="478" y="503" type="line"/>
			<point x="464" y="509" type="line"/>
			<point x="424" y="503" type="line"/>
			<point x="275" y="195" type="line"/>
			<point x="271" y="195" type="line"/>
			<point x="199" y="401" type="line" smooth="yes"/>
			<point x="167" y="493"/>
			<point x="146" y="515"/>
			<point x="89" y="515" type="curve" smooth="yes"/>
			<point x="59" y="515"/>
			<point x="27" y="503"/>
			<point x="10" y="486" type="curve"/>
			<point x="22" y="462" type="line"/>
			<point x="40" y="470"/>
			<point x="59" y="475"/>
			<point x="75" y="475" type="curve" smooth="yes"/>
			<point x="114" y="475"/>
			<point x="128" y="460"/>
			<point x="154" y="389" type="curve" smooth="yes"/>
			<point x="241" y="150" type="line"/>
			<point x="50" y="-216" type="line"/>
			<point x="65" y="-222" type="line"/>
			<point x="106" y="-216" type="line"/>
			<point x="259" y="102" type="line"/>
			<point x="262" y="102" type="line"/>
			<point x="338" y="-116" type="line" smooth="yes"/>
			<point x="368" y="-204"/>
			<point x="393" y="-230"/>
		</contour>
	</outline>
</glyph>
<glyph name="psi" format="2">
	<unicode hex="03C8"/>
	<advance width="718"/>
	<outline>
		<contour>
			<point x="365" y="-219" type="line"/>
			<point x="403" y="-219" type="line"/>
			<point x="407" y="-14" type="line"/>
			<point x="581" y="-12"/>
			<point x="668" y="72"/>
			<point x="668" y="240" type="curve" smooth="yes"/>
			<point x="668" y="335"/>
			<point x="639" y="459"/>
			<point x="607" y="503" type="curve"/>
			<point x="594" y="509" type="line"/>
			<point x="542" y="503" type="line"/>
			<point x="588" y="438"/>
			<point x="616" y="338"/>
			<point x="616" y="239" type="curve" smooth="yes"/>
			<point x="616" y="89"/>
			<point x="558" y="30"/>
			<point x="408" y="28" type="curve"/>
			<point x="422" y="692" type="line"/>
			<point x="408" y="698" type="line"/>
			<point x="359" y="694" type="line"/>
			<point x="362" y="28" type="line"/>
			<point x="223" y="30"/>
			<point x="167" y="84"/>
			<point x="167" y="216" type="curve" smooth="yes"/>
			<point x="167" y="317"/>
			<point x="172" y="343"/>
			<point x="172" y="418" type="curve" smooth="yes"/>
			<point x="172" y="480"/>
			<point x="148" y="511"/>
			<point x="100" y="511" type="curve" smooth="yes"/>
			<point x="72" y="511"/>
			<point x="52" y="503"/>
			<point x="23" y="482" type="curve"/>
			<point x="34" y="458" type="line"/>
			<point x="49" y="467"/>
			<point x="65" y="471"/>
			<point x="82" y="471" type="curve" smooth="yes"/>
			<point x="110" y="471"/>
			<point x="126" y="447"/>
			<point x="126" y="405" type="curve" smooth="yes"/>
			<point x="126" y="316"/>
			<point x="120" y="269"/>
			<point x="120" y="206" type="curve" smooth="yes"/>
			<point x="120" y="55"/>
			<point x="194" y="-12"/>
			<point x="363" y="-14" type="curve"/>
		</contour>
	</outline>
</glyph>
<glyph name="kaiSymbol" format="2">
	<unicode hex="03D7"/>
	<advance width="560"/>
	<outline>
		<contour>
			<point x="353" y="-229" type="curve" smooth="yes"/>
			<point x="461" y="-229"/>
			<point x="520" y="-171"/>
			<point x="520" y="-65" type="curve" smooth="yes"/>
			<point x="520" y="14"/>
			<point x="496" y="54"/>
			<point x="384" y="163" type="curve" smooth="yes"/>
			<point x="323" y="222"/>
			<point x="295" y="274"/>
			<point x="295" y="326" type="curve" smooth="yes"/>
			<point x="295" y="380"/>
			<point x="355" y="447"/>
			<point x="415" y="461" type="curve"/>
			<point x="402" y="429"/>
			<point x="421" y="401"/>
			<point x="456" y="401" type="curve" smooth="yes"/>
			<point x="490" y="401"/>
			<point x="513" y="425"/>
			<point x="513" y="460" type="curve" smooth="yes"/>
			<point x="513" y="494"/>
			<point x="488" y="517"/>
			<point x="451" y="517" type="curve" smooth="yes"/>
			<point x="388" y="517"/>
			<point x="243" y="372"/>
			<point x="139" y="206" type="curve"/>
			<point x="140" y="305"/>
			<point x="137" y="401"/>
			<point x="145" y="503" type="curve"/>
			<point x="133" y="509" type="line"/>
			<point x="81" y="504" type="line"/>
			<point x="92" y="0" type="line"/>
			<point x="139" y="0" type="line"/>
			<point x="139" y="148" type="line"/>
			<point x="216" y="251"/>
			<point x="257" y="305"/>
			<point x="282" y="336" type="curve"/>
			<point x="272" y="306"/>
			<point x="268" y="285"/>
			<point x="268" y="256" type="curve" smooth="yes"/>
			<point x="268" y="207"/>
			<point x="282" y="184"/>
			<point x="351" y="117" type="curve" smooth="yes"/>
			<point x="436" y="36"/>
			<point x="466" y="-17"/>
			<point x="466" y="-85" type="curve" smooth="yes"/>
			<point x="466" y="-165"/>
			<point x="410" y="-206"/>
			<point x="301" y="-206" type="curve" smooth="yes"/>
			<point x="292" y="-206" type="line"/>
			<point x="292" y="-219" type="line"/>
			<point x="310" y="-226"/>
			<point x="329" y="-229"/>
		</contour>
	</outline>
</glyph>
<glyph name="KoppaArchaic" format="2">
	<unicode hex="03D8"/>
	<advance width="733"/>
	<outline>
		<contour>
			<point x="355" y="-217" type="line"/>
			<point x="403" y="-212" type="line"/>
			<point x="400" y="-59"/>
			<point x="400" y="-46"/>
			<point x="400" y="-12" type="curve"/>
			<point x="568" y="4"/>
			<point x="668" y="143"/>
			<point x="668" y="362" type="curve" smooth="yes"/>
			<point x="668" y="583"/>
			<point x="557" y="714"/>
			<point x="371" y="714" type="curve" smooth="yes"/>
			<point x="175" y="714"/>
			<point x="65" y="580"/>
			<point x="65" y="342" type="curve" smooth="yes"/>
			<point x="65" y="123"/>
			<point x="171" y="-8"/>
			<point x="353" y="-14" type="curve"/>
			<point x="351" y="-97"/>
			<point x="348" y="-161"/>
			<point x="344" y="-206" type="curve"/>
		</contour>
		<contour>
			<point x="400" y="30" type="curve"/>
			<point x="401" y="74"/>
			<point x="403" y="168"/>
			<point x="409" y="234" type="curve"/>
			<point x="398" y="245" type="line"/>
			<point x="350" y="240" type="line"/>
			<point x="352" y="120"/>
			<point x="353" y="73"/>
			<point x="353" y="31" type="curve"/>
			<point x="202" y="40"/>
			<point x="116" y="156"/>
			<point x="116" y="350" type="curve" smooth="yes"/>
			<point x="116" y="552"/>
			<point x="206" y="669"/>
			<point x="363" y="669" type="curve" smooth="yes"/>
			<point x="526" y="669"/>
			<point x="617" y="557"/>
			<point x="617" y="356" type="curve" smooth="yes"/>
			<point x="617" y="167"/>
			<point x="537" y="45"/>
		</contour>
	</outline>
</glyph>
<glyph name="Stigma" format="2">
	<unicode hex="03DA"/>
	<advance width="611"/>
	<outline>
		<contour>
			<point x="454" y="-210" type="line"/>
			<point x="513" y="-166"/>
			<point x="545" y="-113"/>
			<point x="545" y="-61" type="curve" smooth="yes"/>
			<point x="545" y="15"/>
			<point x="502" y="50"/>
			<point x="380" y="74" type="curve" smooth="yes"/>
			<point x="188" y="112"/>
			<point x="116" y="191"/>
			<point x="116" y="364" type="curve" smooth="yes"/>
			<point x="116" y="558"/>
			<point x="206" y="670"/>
			<point x="363" y="670" type="curve" smooth="yes"/>
			<point x="411" y="670"/>
			<point x="458" y="654"/>
			<point x="486" y="628" type="curve"/>
			<point x="459" y="588"/>
			<point x="453" y="575"/>
			<point x="453" y="559" type="curve" smooth="yes"/>
			<point x="453" y="535"/>
			<point x="471" y="519"/>
			<point x="499" y="519" type="curve" smooth="yes"/>
			<point x="534" y="519"/>
			<point x="556" y="545"/>
			<point x="556" y="587" type="curve" smooth="yes"/>
			<point x="556" y="661"/>
			<point x="477" y="714"/>
			<point x="367" y="714" type="curve" smooth="yes"/>
			<point x="175" y="714"/>
			<point x="65" y="583"/>
			<point x="65" y="356" type="curve" smooth="yes"/>
			<point x="65" y="177"/>
			<point x="162" y="73"/>
			<point x="372" y="28" type="curve" smooth="yes"/>
			<point x="472" y="7"/>
			<point x="502" y="-15"/>
			<point x="502" y="-67" type="curve" smooth="yes"/>
			<point x="502" y="-106"/>
			<point x="477" y="-146"/>
			<point x="430" y="-184" type="curve"/>
		</contour>
	</outline>
</glyph>
<glyph name="stigma" format="2">
	<unicode hex="03DB"/>
	<advance width="474"/>
	<outline>
		<contour>
			<point x="325" y="-230" type="line"/>
			<point x="384" y="-185"/>
			<point x="412" y="-137"/>
			<point x="412" y="-82" type="curve" smooth="yes"/>
			<point x="412" y="-5"/>
			<point x="375" y="27"/>
			<point x="257" y="54" type="curve" smooth="yes"/>
			<point x="132" y="82"/>
			<point x="89" y="134"/>
			<point x="89" y="255" type="curve" smooth="yes"/>
			<point x="90" y="405"/>
			<point x="159" y="476"/>
			<point x="300" y="472" type="curve" smooth="yes"/>
			<point x="390" y="469"/>
			<point x="432" y="495"/>
			<point x="432" y="553" type="curve" smooth="yes"/>
			<point x="432" y="580"/>
			<point x="419" y="615"/>
			<point x="403" y="631" type="curve"/>
			<point x="379" y="620" type="line"/>
			<point x="389" y="595"/>
			<point x="392" y="583"/>
			<point x="392" y="567" type="curve" smooth="yes"/>
			<point x="392" y="526"/>
			<point x="371" y="515"/>
			<point x="294" y="515" type="curve" smooth="yes"/>
			<point x="141" y="515"/>
			<point x="50" y="417"/>
			<point x="50" y="252" type="curve" smooth="yes"/>
			<point x="50" y="105"/>
			<point x="103" y="39"/>
			<point x="250" y="7" type="curve" smooth="yes"/>
			<point x="341" y="-13"/>
			<point x="369" y="-35"/>
			<point x="369" y="-88" type="curve" smooth="yes"/>
			<point x="369" y="-127"/>
			<point x="346" y="-168"/>
			<point x="303" y="-204" type="curve"/>
		</contour>
	</outline>
</glyph>
<glyph name="E-cy" format="2">
	<unicode hex="0404"/>
	<advance width="647"/>
	<outline>
		<contour>
			<point x="365" y="-14" type="curve" smooth="yes"/>
			<point x="452" y="-14"/>
			<point x="541" y="26"/>
			<point x="603" y="127" type="curve"/>
			<point x="575" y="152" type="line"/>
			<point x="517" y="66"/>
			<point x="452" y="31"/>
			<point x="370" y="31" type="curve" smooth="yes"/>
			<point x="214" y="31"/>
			<point x="120" y="141"/>
			<point x="116" y="340" type="curve"/>
			<point x="464" y="340" type="line"/>
			<point x="464" y="379" type="line"/>
			<point x="117" y="379" type="line"/>
			<point x="125" y="576"/>
			<point x="230" y="669"/>
			<point x="363" y="669" type="curve" smooth="yes"/>
			<point x="463" y="669"/>
			<point x="525" y="617"/>
			<point x="568" y="489" type="curve"/>
			<point x="595" y="496" type="line"/>
			<point x="558" y="714" type="line"/>
			<point x="535" y="714" type="line"/>
			<point x="525" y="649" type="line"/>
			<point x="481" y="694"/>
			<point x="422" y="714"/>
			<point x="364" y="714" type="curve" smooth="yes"/>
			<point x="182" y="714"/>
			<point x="65" y="579"/>
			<point x="65" y="346" type="curve" smooth="yes"/>
			<point x="65" y="113"/>
			<point x="187" y="-14"/>
		</contour>
	</outline>
	<anchor name="top" x="362" y="730"/>
</glyph>
<glyph name="Tshe-cy" format="2">
	<unicode hex="040B"/>
	<advance width="880"/>
	<outline>
		<contour>
			<point x="179" y="0" type="line"/>
			<point x="416" y="0" type="line"/>
			<point x="416" y="25" type="line"/>
			<point x="356" y="38" type="line" smooth="yes"/>
			<point x="328" y="44"/>
			<point x="322" y="48"/>
			<point x="322" y="82" type="curve" smooth="yes"/>
			<point x="322" y="316" type="line"/>
			<point x="378" y="360"/>
			<point x="449" y="395"/>
			<point x="533" y="395" type="curve" smooth="yes"/>
			<point x="638" y="395"/>
			<point x="702" y="345"/>
			<point x="702" y="249" type="curve" smooth="yes"/>
			<point x="702" y="88" type="line" smooth="yes"/>
			<point x="702" y="52"/>
			<point x="696" y="41"/>
			<point x="672" y="37" type="curve" smooth="yes"/>
			<point x="614" y="28" type="line"/>
			<point x="614" y="0" type="line"/>
			<point x="840" y="0" type="line"/>
			<point x="840" y="28" type="line"/>
			<point x="784" y="37" type="line" smooth="yes"/>
			<point x="757" y="41"/>
			<point x="751" y="50"/>
			<point x="751" y="84" type="curve" smooth="yes"/>
			<point x="751" y="257" type="line" smooth="yes"/>
			<point x="751" y="374"/>
			<point x="660" y="435"/>
			<point x="544" y="435" type="curve" smooth="yes"/>
			<point x="462" y="435"/>
			<point x="380" y="402"/>
			<point x="322" y="360" type="curve"/>
			<point x="322" y="661" type="line"/>
			<point x="510" y="661" type="line" smooth="yes"/>
			<point x="604" y="661"/>
			<point x="623" y="645"/>
			<point x="667" y="500" type="curve"/>
			<point x="695" y="507" type="line"/>
			<point x="655" y="700" type="line"/>
			<point x="73" y="700" type="line"/>
			<point x="33" y="507" type="line"/>
			<point x="61" y="500" type="line"/>
			<point x="105" y="645"/>
			<point x="124" y="661"/>
			<point x="218" y="661" type="curve" smooth="yes"/>
			<point x="273" y="661" type="line"/>
			<point x="273" y="86" type="line" smooth="yes"/>
			<point x="273" y="49"/>
			<point x="262" y="43"/>
			<point x="240" y="38" type="curve" smooth="yes"/>
			<point x="179" y="25" type="line"/>
		</contour>
	</outline>
</glyph>
<glyph name="De-cy" format="2">
	<unicode hex="0414"/>
	<advance width="715"/>
	<outline>
		<contour>
			<point x="12" y="-166" type="line"/>
			<point x="41" y="-166" type="line"/>
			<point x="47" y="-107" type="line" smooth="yes"/>
			<point x="55" y="-25"/>
			<point x="76" y="0"/>
			<point x="144" y="0" type="curve" smooth="yes"/>
			<point x="534" y="0" type="line" smooth="yes"/>
			<point x="602" y="0"/>
			<point x="619" y="-26"/>
			<point x="628" y="-110" type="curve" smooth="yes"/>
			<point x="634" y="-166" type="line"/>
			<point x="663" y="-166" type="line"/>
			<point x="663" y="39" type="line"/>
			<point x="563" y="39" type="line"/>
			<point x="563" y="612" type="line" smooth="yes"/>
			<point x="563" y="649"/>
			<point x="569" y="659"/>
			<point x="594" y="663" type="curve" smooth="yes"/>
			<point x="651" y="672" type="line"/>
			<point x="651" y="700" type="line"/>
			<point x="112" y="700" type="line"/>
			<point x="112" y="672" type="line"/>
			<point x="168" y="663" type="line" smooth="yes"/>
			<point x="193" y="659"/>
			<point x="201" y="651"/>
			<point x="201" y="622" type="curve" smooth="yes"/>
			<point x="201" y="272"/>
			<point x="156" y="154"/>
			<point x="109" y="39" type="curve"/>
			<point x="12" y="39" type="line"/>
		</contour>
		<contour>
			<point x="155" y="39" type="line"/>
			<point x="196" y="135"/>
			<point x="221" y="254"/>
			<point x="232" y="379" type="curve" smooth="yes"/>
			<point x="241" y="484"/>
			<point x="244" y="585"/>
			<point x="244" y="661" type="curve"/>
			<point x="514" y="661" type="line"/>
			<point x="514" y="39" type="line"/>
		</contour>
	</outline>
</glyph>
<glyph name="Zhe-cy" format="2">
	<unicode hex="0416"/>
	<advance width="991"/>
	<outline>
		<contour>
			<point x="87" y="-14" type="curve" smooth="yes"/>
			<point x="147" y="-14"/>
			<point x="168" y="11"/>
			<point x="225" y="158" type="curve" smooth="yes"/>
			<point x="277" y="293"/>
			<point x="298" y="330"/>
			<point x="404" y="330" type="curve" smooth="yes"/>
			<point x="471" y="330" type="line"/>
			<point x="471" y="86" type="line" smooth="yes"/>
			<point x="471" y="49"/>
			<point x="465" y="39"/>
			<point x="440" y="35" type="curve" smooth="yes"/>
			<point x="382" y="26" type="line"/>
			<point x="382" y="0" type="line"/>
			<point x="608" y="0" type="line"/>
			<point x="608" y="26" type="line"/>
			<point x="552" y="35" type="line" smooth="yes"/>
			<point x="526" y="39"/>
			<point x="520" y="48"/>
			<point x="520" y="82" type="curve" smooth="yes"/>
			<point x="520" y="330" type="line"/>
			<point x="583" y="330" type="line" smooth="yes"/>
			<point x="695" y="330"/>
			<point x="716" y="288"/>
			<point x="766" y="158" type="curve" smooth="yes"/>
			<point x="823" y="11"/>
			<point x="847" y="-14"/>
			<point x="909" y="-14" type="curve" smooth="yes"/>
			<point x="934" y="-14"/>
			<point x="968" y="0"/>
			<point x="986" y="17" type="curve"/>
			<point x="979" y="41" type="line"/>
			<point x="966" y="36"/>
			<point x="946" y="29"/>
			<point x="920" y="29" type="curve" smooth="yes"/>
			<point x="878" y="29"/>
			<point x="858" y="59"/>
			<point x="812" y="176" type="curve" smooth="yes"/>
			<point x="762" y="303"/>
			<point x="729" y="336"/>
			<point x="637" y="351" type="curve"/>
			<point x="637" y="355" type="line"/>
			<point x="714" y="381"/>
			<point x="745" y="429"/>
			<point x="776" y="513" type="curve" smooth="yes"/>
			<point x="813" y="613"/>
			<point x="822" y="637"/>
			<point x="839" y="650" type="curve"/>
			<point x="847" y="612"/>
			<point x="861" y="598"/>
			<point x="888" y="598" type="curve" smooth="yes"/>
			<point x="915" y="598"/>
			<point x="936" y="623"/>
			<point x="936" y="653" type="curve" smooth="yes"/>
			<point x="936" y="685"/>
			<point x="912" y="709"/>
			<point x="878" y="709" type="curve" smooth="yes"/>
			<point x="816" y="709"/>
			<point x="788" y="661"/>
			<point x="746" y="541" type="curve" smooth="yes"/>
			<point x="710" y="439"/>
			<point x="681" y="412"/>
			<point x="640" y="386" type="curve" smooth="yes"/>
			<point x="616" y="371"/>
			<point x="597" y="367"/>
			<point x="520" y="365" type="curve"/>
			<point x="520" y="612" type="line" smooth="yes"/>
			<point x="520" y="648"/>
			<point x="526" y="659"/>
			<point x="550" y="663" type="curve" smooth="yes"/>
			<point x="608" y="672" type="line"/>
			<point x="608" y="700" type="line"/>
			<point x="382" y="700" type="line"/>
			<point x="382" y="672" type="line"/>
			<point x="438" y="663" type="line" smooth="yes"/>
			<point x="465" y="659"/>
			<point x="471" y="650"/>
			<point x="471" y="616" type="curve" smooth="yes"/>
			<point x="471" y="365" type="line"/>
			<point x="394" y="367"/>
			<point x="375" y="371"/>
			<point x="351" y="386" type="curve" smooth="yes"/>
			<point x="310" y="412"/>
			<point x="281" y="440"/>
			<point x="245" y="541" type="curve" smooth="yes"/>
			<point x="202" y="661"/>
			<point x="177" y="709"/>
			<point x="113" y="709" type="curve" smooth="yes"/>
			<point x="79" y="709"/>
			<point x="55" y="685"/>
			<point x="55" y="653" type="curve" smooth="yes"/>
			<point x="55" y="623"/>
			<point x="77" y="598"/>
			<point x="104" y="598" type="curve" smooth="yes"/>
			<point x="131" y="598"/>
			<point x="144" y="612"/>
			<point x="152" y="650" type="curve"/>
			<point x="169" y="637"/>
			<point x="178" y="613"/>
			<point x="215" y="513" type="curve" smooth="yes"/>
			<point x="246" y="429"/>
			<point x="277" y="381"/>
			<point x="354" y="355" type="curve"/>
			<point x="354" y="351" type="line"/>
			<point x="259" y="335"/>
			<point x="226" y="301"/>
			<point x="178" y="177" type="curve" smooth="yes"/>
			<point x="132" y="57"/>
			<point x="113" y="29"/>
			<point x="71" y="29" type="curve" smooth="yes"/>
			<point x="45" y="29"/>
			<point x="25" y="36"/>
			<point x="12" y="41" type="curve"/>
			<point x="5" y="17" type="line"/>
			<point x="23" y="0"/>
			<point x="57" y="-14"/>
		</contour>
	</outline>
	<guideline x="178" y="177" angle="0.0902"/>
</glyph>
<glyph name="El-cy" format="2">
	<unicode hex="041B"/>
	<advance width="725"/>
	<outline>
		<contour>
			<point x="80" y="-13" type="curve" smooth="yes"/>
			<point x="154" y="-13"/>
			<point x="225" y="84"/>
			<point x="239" y="349" type="curve" smooth="yes"/>
			<point x="244" y="443"/>
			<point x="249" y="584"/>
			<point x="249" y="661" type="curve"/>
			<point x="521" y="661" type="line"/>
			<point x="521" y="86" type="line" smooth="yes"/>
			<point x="521" y="49"/>
			<point x="515" y="39"/>
			<point x="490" y="35" type="curve" smooth="yes"/>
			<point x="433" y="26" type="line"/>
			<point x="433" y="0" type="line"/>
			<point x="658" y="0" type="line"/>
			<point x="658" y="26" type="line"/>
			<point x="603" y="35" type="line" smooth="yes"/>
			<point x="576" y="39"/>
			<point x="570" y="48"/>
			<point x="570" y="82" type="curve" smooth="yes"/>
			<point x="570" y="612" type="line" smooth="yes"/>
			<point x="570" y="649"/>
			<point x="576" y="659"/>
			<point x="601" y="663" type="curve" smooth="yes"/>
			<point x="658" y="672" type="line"/>
			<point x="658" y="700" type="line"/>
			<point x="119" y="700" type="line"/>
			<point x="119" y="672" type="line"/>
			<point x="175" y="663" type="line" smooth="yes"/>
			<point x="200" y="659"/>
			<point x="208" y="651"/>
			<point x="208" y="622" type="curve" smooth="yes"/>
			<point x="208" y="195"/>
			<point x="169" y="99"/>
			<point x="123" y="54" type="curve"/>
			<point x="111" y="86"/>
			<point x="92" y="98"/>
			<point x="72" y="98" type="curve" smooth="yes"/>
			<point x="41" y="98"/>
			<point x="16" y="71"/>
			<point x="16" y="42" type="curve" smooth="yes"/>
			<point x="16" y="13"/>
			<point x="42" y="-13"/>
		</contour>
	</outline>
</glyph>
<glyph name="Pe-cy" format="2">
	<unicode hex="041F"/>
	<advance width="807"/>
	<outline>
		<contour>
			<point x="67" y="0" type="line"/>
			<point x="293" y="0" type="line"/>
			<point x="293" y="26" type="line"/>
			<point x="237" y="35" type="line" smooth="yes"/>
			<point x="211" y="39"/>
			<point x="205" y="48"/>
			<point x="205" y="82" type="curve" smooth="yes"/>
			<point x="205" y="661" type="line"/>
			<point x="603" y="661" type="line"/>
			<point x="603" y="86" type="line" smooth="yes"/>
			<point x="603" y="49"/>
			<point x="597" y="39"/>
			<point x="572" y="35" type="curve" smooth="yes"/>
			<point x="515" y="26" type="line"/>
			<point x="515" y="0" type="line"/>
			<point x="740" y="0" type="line"/>
			<point x="740" y="26" type="line"/>
			<point x="685" y="35" type="line" smooth="yes"/>
			<point x="658" y="39"/>
			<point x="652" y="48"/>
			<point x="652" y="82" type="curve" smooth="yes"/>
			<point x="652" y="612" type="line" smooth="yes"/>
			<point x="652" y="649"/>
			<point x="658" y="659"/>
			<point x="683" y="663" type="curve" smooth="yes"/>
			<point x="740" y="672" type="line"/>
			<point x="740" y="700" type="line"/>
			<point x="67" y="700" type="line"/>
			<point x="67" y="672" type="line"/>
			<point x="123" y="663" type="line" smooth="yes"/>
			<point x="150" y="659"/>
			<point x="156" y="650"/>
			<point x="156" y="616" type="curve" smooth="yes"/>
			<point x="156" y="86" type="line" smooth="yes"/>
			<point x="156" y="49"/>
			<point x="150" y="39"/>
			<point x="125" y="35" type="curve" smooth="yes"/>
			<point x="67" y="26" type="line"/>
		</contour>
	</outline>
</glyph>
<glyph name="Ef-cy" format="2">
	<unicode hex="0424"/>
	<advance width="789"/>
	<outline>
		<contour>
			<point x="283" y="-17" type="line"/>
			<point x="509" y="-17" type="line"/>
			<point x="509" y="9" type="line"/>
			<point x="453" y="18" type="line" smooth="yes"/>
			<point x="427" y="22"/>
			<point x="421" y="31"/>
			<point x="421" y="65" type="curve" smooth="yes"/>
			<point x="421" y="129" type="line"/>
			<point x="446" y="124"/>
			<point x="470" y="121"/>
			<point x="497" y="121" type="curve" smooth="yes"/>
			<point x="614" y="121"/>
			<point x="739" y="204"/>
			<point x="739" y="372" type="curve" smooth="yes"/>
			<point x="739" y="529"/>
			<point x="647" y="616"/>
			<point x="503" y="616" type="curve" smooth="yes"/>
			<point x="478" y="616"/>
			<point x="449" y="613"/>
			<point x="421" y="609" type="curve"/>
			<point x="421" y="649" type="line" smooth="yes"/>
			<point x="421" y="685"/>
			<point x="427" y="693"/>
			<point x="451" y="697" type="curve" smooth="yes"/>
			<point x="509" y="706" type="line"/>
			<point x="509" y="734" type="line"/>
			<point x="283" y="734" type="line"/>
			<point x="283" y="706" type="line"/>
			<point x="339" y="697" type="line" smooth="yes"/>
			<point x="366" y="693"/>
			<point x="372" y="684"/>
			<point x="372" y="650" type="curve" smooth="yes"/>
			<point x="372" y="609" type="line"/>
			<point x="352" y="612"/>
			<point x="321" y="616"/>
			<point x="291" y="616" type="curve" smooth="yes"/>
			<point x="148" y="616"/>
			<point x="50" y="523"/>
			<point x="50" y="371" type="curve" smooth="yes"/>
			<point x="50" y="206"/>
			<point x="162" y="121"/>
			<point x="287" y="121" type="curve" smooth="yes"/>
			<point x="319" y="121"/>
			<point x="349" y="125"/>
			<point x="372" y="129" type="curve"/>
			<point x="372" y="69" type="line" smooth="yes"/>
			<point x="372" y="32"/>
			<point x="366" y="22"/>
			<point x="341" y="18" type="curve" smooth="yes"/>
			<point x="283" y="9" type="line"/>
		</contour>
		<contour>
			<point x="302" y="159" type="curve" smooth="yes"/>
			<point x="170" y="159"/>
			<point x="107" y="258"/>
			<point x="107" y="365" type="curve" smooth="yes"/>
			<point x="107" y="503"/>
			<point x="176" y="580"/>
			<point x="299" y="580" type="curve" smooth="yes"/>
			<point x="328" y="580"/>
			<point x="348" y="577"/>
			<point x="372" y="573" type="curve"/>
			<point x="372" y="167" type="line"/>
			<point x="352" y="162"/>
			<point x="326" y="159"/>
		</contour>
		<contour>
			<point x="494" y="158" type="curve" smooth="yes"/>
			<point x="462" y="158"/>
			<point x="441" y="161"/>
			<point x="421" y="167" type="curve"/>
			<point x="421" y="573" type="line"/>
			<point x="446" y="577"/>
			<point x="477" y="580"/>
			<point x="496" y="580" type="curve" smooth="yes"/>
			<point x="617" y="580"/>
			<point x="686" y="508"/>
			<point x="686" y="369" type="curve" smooth="yes"/>
			<point x="686" y="258"/>
			<point x="623" y="158"/>
		</contour>
	</outline>
</glyph>
<glyph name="Tse-cy" format="2">
	<unicode hex="0426"/>
	<advance width="817"/>
	<outline>
		<contour>
			<point x="736" y="-161" type="line"/>
			<point x="765" y="-154" type="line"/>
			<point x="765" y="39" type="line"/>
			<point x="652" y="39" type="line"/>
			<point x="652" y="612" type="line" smooth="yes"/>
			<point x="652" y="649"/>
			<point x="658" y="659"/>
			<point x="683" y="663" type="curve" smooth="yes"/>
			<point x="740" y="672" type="line"/>
			<point x="740" y="700" type="line"/>
			<point x="515" y="700" type="line"/>
			<point x="515" y="672" type="line"/>
			<point x="570" y="663" type="line" smooth="yes"/>
			<point x="597" y="659"/>
			<point x="603" y="650"/>
			<point x="603" y="616" type="curve" smooth="yes"/>
			<point x="603" y="39" type="line"/>
			<point x="205" y="39" type="line"/>
			<point x="205" y="612" type="line" smooth="yes"/>
			<point x="205" y="648"/>
			<point x="211" y="659"/>
			<point x="235" y="663" type="curve" smooth="yes"/>
			<point x="293" y="672" type="line"/>
			<point x="293" y="700" type="line"/>
			<point x="67" y="700" type="line"/>
			<point x="67" y="672" type="line"/>
			<point x="123" y="663" type="line" smooth="yes"/>
			<point x="150" y="659"/>
			<point x="156" y="650"/>
			<point x="156" y="616" type="curve" smooth="yes"/>
			<point x="156" y="86" type="line" smooth="yes"/>
			<point x="156" y="49"/>
			<point x="150" y="39"/>
			<point x="125" y="35" type="curve" smooth="yes"/>
			<point x="67" y="26" type="line"/>
			<point x="67" y="0" type="line"/>
			<point x="620" y="0" type="line" smooth="yes"/>
			<point x="687" y="0"/>
			<point x="713" y="-16"/>
			<point x="721" y="-66" type="curve" smooth="yes"/>
		</contour>
	</outline>
</glyph>
<glyph name="Shcha-cy" format="2">
	<unicode hex="0429"/>
	<advance width="1097"/>
	<outline>
		<contour>
			<point x="1016" y="-161" type="line"/>
			<point x="1045" y="-154" type="line"/>
			<point x="1045" y="39" type="line"/>
			<point x="941" y="39" type="line"/>
			<point x="941" y="612" type="line" smooth="yes"/>
			<point x="941" y="649"/>
			<point x="947" y="659"/>
			<point x="972" y="663" type="curve" smooth="yes"/>
			<point x="1029" y="672" type="line"/>
			<point x="1029" y="700" type="line"/>
			<point x="804" y="700" type="line"/>
			<point x="804" y="672" type="line"/>
			<point x="859" y="663" type="line" smooth="yes"/>
			<point x="886" y="659"/>
			<point x="892" y="650"/>
			<point x="892" y="616" type="curve" smooth="yes"/>
			<point x="892" y="39" type="line"/>
			<point x="573" y="39" type="line"/>
			<point x="573" y="612" type="line" smooth="yes"/>
			<point x="573" y="649"/>
			<point x="579" y="659"/>
			<point x="604" y="663" type="curve" smooth="yes"/>
			<point x="661" y="672" type="line"/>
			<point x="661" y="700" type="line"/>
			<point x="436" y="700" type="line"/>
			<point x="436" y="672" type="line"/>
			<point x="491" y="663" type="line" smooth="yes"/>
			<point x="518" y="659"/>
			<point x="524" y="650"/>
			<point x="524" y="616" type="curve" smooth="yes"/>
			<point x="524" y="39" type="line"/>
			<point x="205" y="39" type="line"/>
			<point x="205" y="612" type="line" smooth="yes"/>
			<point x="205" y="648"/>
			<point x="211" y="659"/>
			<point x="235" y="663" type="curve" smooth="yes"/>
			<point x="293" y="672" type="line"/>
			<point x="293" y="700" type="line"/>
			<point x="67" y="700" type="line"/>
			<point x="67" y="672" type="line"/>
			<point x="123" y="663" type="line" smooth="yes"/>
			<point x="150" y="659"/>
			<point x="156" y="650"/>
			<point x="156" y="616" type="curve" smooth="yes"/>
			<point x="156" y="86" type="line" smooth="yes"/>
			<point x="156" y="49"/>
			<point x="150" y="39"/>
			<point x="125" y="35" type="curve" smooth="yes"/>
			<point x="67" y="26" type="line"/>
			<point x="67" y="0" type="line"/>
			<point x="910" y="0" type="line" smooth="yes"/>
			<point x="975" y="0"/>
			<point x="995" y="-16"/>
			<point x="1003" y="-68" type="curve"/>
		</contour>
	</outline>
</glyph>
<glyph name="Hardsign-cy" format="2">
	<unicode hex="042A"/>
	<advance width="747"/>
	<outline>
		<contour>
			<point x="191" y="0" type="line"/>
			<point x="427" y="0" type="line" smooth="yes"/>
			<point x="583" y="0"/>
			<point x="696" y="68"/>
			<point x="696" y="211" type="curve" smooth="yes"/>
			<point x="696" y="352"/>
			<point x="569" y="400"/>
			<point x="443" y="400" type="curve" smooth="yes"/>
			<point x="400" y="400"/>
			<point x="364" y="397"/>
			<point x="329" y="392" type="curve"/>
			<point x="329" y="612" type="line" smooth="yes"/>
			<point x="329" y="649"/>
			<point x="335" y="659"/>
			<point x="360" y="663" type="curve" smooth="yes"/>
			<point x="417" y="672" type="line"/>
			<point x="417" y="700" type="line"/>
			<point x="73" y="700" type="line"/>
			<point x="33" y="507" type="line"/>
			<point x="61" y="500" type="line"/>
			<point x="90" y="622"/>
			<point x="104" y="661"/>
			<point x="200" y="661" type="curve" smooth="yes"/>
			<point x="280" y="661" type="line"/>
			<point x="280" y="86" type="line" smooth="yes"/>
			<point x="280" y="49"/>
			<point x="274" y="39"/>
			<point x="249" y="35" type="curve" smooth="yes"/>
			<point x="191" y="26" type="line"/>
		</contour>
		<contour>
			<point x="329" y="44" type="curve"/>
			<point x="329" y="354" type="line"/>
			<point x="364" y="359"/>
			<point x="395" y="362"/>
			<point x="437" y="362" type="curve" smooth="yes"/>
			<point x="560" y="362"/>
			<point x="645" y="310"/>
			<point x="645" y="209" type="curve" smooth="yes"/>
			<point x="645" y="91"/>
			<point x="564" y="39"/>
			<point x="416" y="39" type="curve" smooth="yes"/>
			<point x="379" y="39"/>
			<point x="342" y="42"/>
		</contour>
	</outline>
	<anchor name="top" x="232" y="730"/>
</glyph>
<glyph name="Yeru-cy" format="2">
	<unicode hex="042B"/>
	<advance width="929"/>
	<outline>
		<contour>
			<point x="67" y="0" type="line"/>
			<point x="293" y="0" type="line" smooth="yes"/>
			<point x="449" y="0"/>
			<point x="562" y="68"/>
			<point x="562" y="211" type="curve" smooth="yes"/>
			<point x="562" y="352"/>
			<point x="435" y="400"/>
			<point x="309" y="400" type="curve" smooth="yes"/>
			<point x="266" y="400"/>
			<point x="240" y="397"/>
			<point x="205" y="392" type="curve"/>
			<point x="205" y="612" type="line" smooth="yes"/>
			<point x="205" y="649"/>
			<point x="211" y="659"/>
			<point x="236" y="663" type="curve" smooth="yes"/>
			<point x="293" y="672" type="line"/>
			<point x="293" y="700" type="line"/>
			<point x="67" y="700" type="line"/>
			<point x="67" y="672" type="line"/>
			<point x="122" y="663" type="line" smooth="yes"/>
			<point x="149" y="659"/>
			<point x="156" y="651"/>
			<point x="156" y="615" type="curve" smooth="yes"/>
			<point x="156" y="86" type="line" smooth="yes"/>
			<point x="156" y="49"/>
			<point x="150" y="39"/>
			<point x="125" y="35" type="curve" smooth="yes"/>
			<point x="67" y="26" type="line"/>
		</contour>
		<contour>
			<point x="205" y="44" type="curve"/>
			<point x="205" y="354" type="line"/>
			<point x="240" y="359"/>
			<point x="261" y="362"/>
			<point x="303" y="362" type="curve" smooth="yes"/>
			<point x="426" y="362"/>
			<point x="511" y="310"/>
			<point x="511" y="209" type="curve" smooth="yes"/>
			<point x="511" y="91"/>
			<point x="430" y="39"/>
			<point x="282" y="39" type="curve" smooth="yes"/>
			<point x="245" y="39"/>
			<point x="218" y="42"/>
		</contour>
		<contour>
			<point x="636" y="0" type="line"/>
			<point x="862" y="0" type="line"/>
			<point x="862" y="26" type="line"/>
			<point x="806" y="35" type="line"/>
			<point x="780" y="39"/>
			<point x="774" y="48"/>
			<point x="774" y="82" type="curve"/>
			<point x="774" y="612" type="line"/>
			<point x="774" y="648"/>
			<point x="780" y="659"/>
			<point x="804" y="663" type="curve"/>
			<point x="862" y="672" type="line"/>
			<point x="862" y="700" type="line"/>
			<point x="636" y="700" type="line"/>
			<point x="636" y="672" type="line"/>
			<point x="692" y="663" type="line"/>
			<point x="719" y="659"/>
			<point x="725" y="650"/>
			<point x="725" y="616" type="curve"/>
			<point x="725" y="86" type="line"/>
			<point x="725" y="49"/>
			<point x="719" y="39"/>
			<point x="694" y="35" type="curve"/>
			<point x="636" y="26" type="line"/>
		</contour>
	</outline>
	<anchor name="top" x="473" y="730"/>
</glyph>
<glyph name="Iu-cy" format="2">
	<unicode hex="042E"/>
	<advance width="1067"/>
	<outline>
		<contour>
			<point x="710" y="-14" type="curve" smooth="yes"/>
			<point x="896" y="-14"/>
			<point x="1002" y="130"/>
			<point x="1002" y="362" type="curve" smooth="yes"/>
			<point x="1002" y="578"/>
			<point x="902" y="714"/>
			<point x="716" y="714" type="curve" smooth="yes"/>
			<point x="535" y="714"/>
			<point x="433" y="588"/>
			<point x="423" y="379" type="curve"/>
			<point x="205" y="379" type="line"/>
			<point x="205" y="612" type="line" smooth="yes"/>
			<point x="205" y="648"/>
			<point x="211" y="659"/>
			<point x="235" y="663" type="curve" smooth="yes"/>
			<point x="293" y="672" type="line"/>
			<point x="293" y="700" type="line"/>
			<point x="67" y="700" type="line"/>
			<point x="67" y="672" type="line"/>
			<point x="123" y="663" type="line" smooth="yes"/>
			<point x="150" y="659"/>
			<point x="156" y="650"/>
			<point x="156" y="616" type="curve" smooth="yes"/>
			<point x="156" y="86" type="line" smooth="yes"/>
			<point x="156" y="49"/>
			<point x="150" y="39"/>
			<point x="125" y="35" type="curve" smooth="yes"/>
			<point x="67" y="26" type="line"/>
			<point x="67" y="0" type="line"/>
			<point x="293" y="0" type="line"/>
			<point x="293" y="26" type="line"/>
			<point x="237" y="35" type="line" smooth="yes"/>
			<point x="211" y="39"/>
			<point x="205" y="48"/>
			<point x="205" y="82" type="curve" smooth="yes"/>
			<point x="205" y="340" type="line"/>
			<point x="422" y="340" type="line"/>
			<point x="424" y="144"/>
			<point x="521" y="-14"/>
		</contour>
		<contour>
			<point x="715" y="31" type="curve" smooth="yes"/>
			<point x="556" y="31"/>
			<point x="473" y="165"/>
			<point x="473" y="350" type="curve" smooth="yes"/>
			<point x="473" y="541"/>
			<point x="551" y="669"/>
			<point x="708" y="669" type="curve" smooth="yes"/>
			<point x="872" y="669"/>
			<point x="951" y="550"/>
			<point x="951" y="356" type="curve" smooth="yes"/>
			<point x="951" y="159"/>
			<point x="867" y="31"/>
		</contour>
	</outline>
	<anchor name="top" x="715" y="730"/>
</glyph>
<glyph name="be-cy" format="2">
	<unicode hex="0431"/>
	<advance width="544"/>
	<outline>
		<contour>
			<point x="269" y="-14" type="curve" smooth="yes"/>
			<point x="403" y="-14"/>
			<point x="494" y="88"/>
			<point x="494" y="261" type="curve" smooth="yes"/>
			<point x="494" y="416"/>
			<point x="417" y="517"/>
			<point x="280" y="517" type="curve" smooth="yes"/>
			<point x="185" y="517"/>
			<point x="128" y="470"/>
			<point x="91" y="392" type="curve"/>
			<point x="93" y="424" type="line"/>
			<point x="107" y="562"/>
			<point x="166" y="664"/>
			<point x="286" y="668" type="curve" smooth="yes"/>
			<point x="375" y="671"/>
			<point x="398" y="671"/>
			<point x="418" y="676" type="curve" smooth="yes"/>
			<point x="451" y="684"/>
			<point x="475" y="710"/>
			<point x="483" y="776" type="curve"/>
			<point x="455" y="784" type="line"/>
			<point x="453" y="775"/>
			<point x="449" y="757"/>
			<point x="446" y="748" type="curve" smooth="yes"/>
			<point x="440" y="730"/>
			<point x="431" y="724"/>
			<point x="411" y="724" type="curve" smooth="yes"/>
			<point x="378" y="724"/>
			<point x="345" y="723"/>
			<point x="312" y="723" type="curve" smooth="yes"/>
			<point x="150" y="722"/>
			<point x="50" y="581"/>
			<point x="50" y="333" type="curve" smooth="yes"/>
			<point x="50" y="285" type="line" smooth="yes"/>
			<point x="50" y="100"/>
			<point x="126" y="-14"/>
		</contour>
		<contour>
			<point x="278" y="27" type="curve" smooth="yes"/>
			<point x="172" y="27"/>
			<point x="101" y="105"/>
			<point x="101" y="257" type="curve" smooth="yes"/>
			<point x="101" y="405"/>
			<point x="173" y="476"/>
			<point x="272" y="476" type="curve" smooth="yes"/>
			<point x="384" y="476"/>
			<point x="443" y="401"/>
			<point x="443" y="249" type="curve" smooth="yes"/>
			<point x="443" y="104"/>
			<point x="369" y="27"/>
		</contour>
	</outline>
</glyph>
<glyph name="ge-cy" format="2">
	<unicode hex="0433"/>
	<advance width="466"/>
	<outline>
		<contour>
			<point x="51" y="0" type="line"/>
			<point x="278" y="0" type="line"/>
			<point x="278" y="25" type="line"/>
			<point x="195" y="37" type="line" smooth="yes"/>
			<point x="174" y="40"/>
			<point x="174" y="50"/>
			<point x="174" y="86" type="curve" smooth="yes"/>
			<point x="174" y="463" type="line"/>
			<point x="257" y="463" type="line" smooth="yes"/>
			<point x="347" y="463"/>
			<point x="370" y="455"/>
			<point x="400" y="361" type="curve"/>
			<point x="413" y="319" type="line"/>
			<point x="441" y="326" type="line"/>
			<point x="413" y="502" type="line"/>
			<point x="50" y="502" type="line"/>
			<point x="45" y="477" type="line"/>
			<point x="101" y="470" type="line" smooth="yes"/>
			<point x="123" y="467"/>
			<point x="125" y="458"/>
			<point x="125" y="423" type="curve" smooth="yes"/>
			<point x="125" y="80" type="line" smooth="yes"/>
			<point x="125" y="45"/>
			<point x="120" y="37"/>
			<point x="99" y="33" type="curve" smooth="yes"/>
			<point x="51" y="25" type="line"/>
		</contour>
	</outline>
	<anchor name="top" x="233" y="550"/>
</glyph>
<glyph name="de-cy" format="2">
	<unicode hex="0434"/>
	<advance width="586"/>
	<outline>
		<contour>
			<point x="523" y="-147" type="line"/>
			<point x="550" y="-142" type="line"/>
			<point x="551" y="38" type="line"/>
			<point x="459" y="38" type="line"/>
			<point x="459" y="428" type="line" smooth="yes"/>
			<point x="459" y="458"/>
			<point x="464" y="466"/>
			<point x="490" y="470" type="curve" smooth="yes"/>
			<point x="533" y="477" type="line"/>
			<point x="533" y="502" type="line"/>
			<point x="91" y="502" type="line"/>
			<point x="86" y="477" type="line"/>
			<point x="142" y="470" type="line" smooth="yes"/>
			<point x="164" y="467"/>
			<point x="166" y="458"/>
			<point x="166" y="423" type="curve" smooth="yes"/>
			<point x="166" y="235"/>
			<point x="145" y="132"/>
			<point x="106" y="39" type="curve"/>
			<point x="30" y="39" type="line"/>
			<point x="30" y="-147" type="line"/>
			<point x="58" y="-147" type="line"/>
			<point x="69" y="-84" type="line" smooth="yes"/>
			<point x="80" y="-23"/>
			<point x="99" y="0"/>
			<point x="163" y="0" type="curve" smooth="yes"/>
			<point x="434" y="0" type="line" smooth="yes"/>
			<point x="482" y="0"/>
			<point x="498" y="-15"/>
			<point x="512" y="-90" type="curve" smooth="yes"/>
		</contour>
		<contour>
			<point x="154" y="39" type="line"/>
			<point x="174" y="89"/>
			<point x="189" y="145"/>
			<point x="199" y="222" type="curve" smooth="yes"/>
			<point x="207" y="286"/>
			<point x="211" y="379"/>
			<point x="211" y="462" type="curve"/>
			<point x="410" y="462" type="line"/>
			<point x="410" y="38" type="line"/>
		</contour>
	</outline>
</glyph>
<glyph name="ze-cy" format="2">
	<unicode hex="0437"/>
	<advance width="467"/>
	<outline>
		<contour>
			<point x="230" y="-14" type="curve" smooth="yes"/>
			<point x="361" y="-14"/>
			<point x="422" y="67"/>
			<point x="422" y="139" type="curve" smooth="yes"/>
			<point x="422" y="234"/>
			<point x="330" y="261"/>
			<point x="264" y="264" type="curve"/>
			<point x="264" y="266" type="line"/>
			<point x="347" y="274"/>
			<point x="402" y="326"/>
			<point x="402" y="397" type="curve" smooth="yes"/>
			<point x="402" y="477"/>
			<point x="345" y="521"/>
			<point x="251" y="521" type="curve" smooth="yes"/>
			<point x="200" y="521"/>
			<point x="143" y="500"/>
			<point x="113" y="469" type="curve"/>
			<point x="93" y="520" type="line"/>
			<point x="66" y="520" type="line"/>
			<point x="79" y="335" type="line"/>
			<point x="102" y="335" type="line"/>
			<point x="111" y="448"/>
			<point x="180" y="482"/>
			<point x="249" y="482" type="curve" smooth="yes"/>
			<point x="324" y="482"/>
			<point x="352" y="452"/>
			<point x="352" y="389" type="curve" smooth="yes"/>
			<point x="352" y="333"/>
			<point x="306" y="282"/>
			<point x="227" y="282" type="curve" smooth="yes"/>
			<point x="172" y="282" type="line"/>
			<point x="172" y="242" type="line"/>
			<point x="237" y="242" type="line" smooth="yes"/>
			<point x="335" y="242"/>
			<point x="374" y="200"/>
			<point x="374" y="141" type="curve" smooth="yes"/>
			<point x="374" y="64"/>
			<point x="313" y="24"/>
			<point x="229" y="24" type="curve" smooth="yes"/>
			<point x="176" y="24"/>
			<point x="141" y="38"/>
			<point x="116" y="66" type="curve"/>
			<point x="139" y="99"/>
			<point x="143" y="112"/>
			<point x="143" y="129" type="curve" smooth="yes"/>
			<point x="143" y="148"/>
			<point x="132" y="165"/>
			<point x="103" y="165" type="curve" smooth="yes"/>
			<point x="73" y="165"/>
			<point x="50" y="146"/>
			<point x="50" y="109" type="curve" smooth="yes"/>
			<point x="50" y="64"/>
			<point x="98" y="-14"/>
		</contour>
	</outline>
</glyph>
<glyph name="te-cy" format="2">
	<unicode hex="0442"/>
	<advance width="543"/>
	<outline>
		<contour>
			<point x="173" y="0" type="line"/>
			<point x="370" y="0" type="line"/>
			<point x="370" y="25" type="line"/>
			<point x="321" y="34" type="line" smooth="yes"/>
			<point x="301" y="38"/>
			<point x="296" y="47"/>
			<point x="296" y="78" type="curve" smooth="yes"/>
			<point x="296" y="463" type="line"/>
			<point x="335" y="463" type="line" smooth="yes"/>
			<point x="422" y="463"/>
			<point x="447" y="457"/>
			<point x="477" y="361" type="curve" smooth="yes"/>
			<point x="490" y="319" type="line"/>
			<point x="518" y="326" type="line"/>
			<point x="490" y="502" type="line"/>
			<point x="53" y="502" type="line"/>
			<point x="25" y="326" type="line"/>
			<point x="53" y="319" type="line"/>
			<point x="66" y="361" type="line" smooth="yes"/>
			<point x="96" y="457"/>
			<point x="121" y="463"/>
			<point x="208" y="463" type="curve" smooth="yes"/>
			<point x="247" y="463" type="line"/>
			<point x="247" y="82" type="line" smooth="yes"/>
			<point x="247" y="47"/>
			<point x="242" y="37"/>
			<point x="221" y="33" type="curve" smooth="yes"/>
			<point x="173" y="25" type="line"/>
		</contour>
	</outline>
</glyph>
<glyph name="che-cy" format="2">
	<unicode hex="0447"/>
	<advance width="578"/>
	<outline>
		<contour>
			<point x="330" y="0" type="line"/>
			<point x="533" y="0" type="line"/>
			<point x="533" y="25" type="line"/>
			<point x="490" y="32" type="line" smooth="yes"/>
			<point x="464" y="36"/>
			<point x="459" y="44"/>
			<point x="459" y="74" type="curve" smooth="yes"/>
			<point x="459" y="428" type="line" smooth="yes"/>
			<point x="459" y="458"/>
			<point x="464" y="466"/>
			<point x="490" y="470" type="curve" smooth="yes"/>
			<point x="533" y="477" type="line"/>
			<point x="533" y="502" type="line"/>
			<point x="328" y="502" type="line"/>
			<point x="323" y="477" type="line"/>
			<point x="380" y="470" type="line" smooth="yes"/>
			<point x="405" y="467"/>
			<point x="410" y="457"/>
			<point x="410" y="427" type="curve" smooth="yes"/>
			<point x="410" y="271" type="line"/>
			<point x="381" y="240"/>
			<point x="322" y="213"/>
			<point x="261" y="213" type="curve" smooth="yes"/>
			<point x="181" y="213"/>
			<point x="144" y="251"/>
			<point x="144" y="332" type="curve" smooth="yes"/>
			<point x="144" y="424" type="line" smooth="yes"/>
			<point x="144" y="455"/>
			<point x="149" y="465"/>
			<point x="169" y="468" type="curve" smooth="yes"/>
			<point x="228" y="477" type="line"/>
			<point x="228" y="502" type="line"/>
			<point x="20" y="502" type="line"/>
			<point x="15" y="477" type="line"/>
			<point x="71" y="470" type="line" smooth="yes"/>
			<point x="93" y="467"/>
			<point x="95" y="458"/>
			<point x="95" y="423" type="curve" smooth="yes"/>
			<point x="95" y="313" type="line" smooth="yes"/>
			<point x="95" y="220"/>
			<point x="160" y="169"/>
			<point x="245" y="169" type="curve" smooth="yes"/>
			<point x="305" y="169"/>
			<point x="361" y="192"/>
			<point x="410" y="232" type="curve"/>
			<point x="410" y="75" type="line" smooth="yes"/>
			<point x="410" y="45"/>
			<point x="405" y="35"/>
			<point x="380" y="32" type="curve" smooth="yes"/>
			<point x="330" y="25" type="line"/>
		</contour>
	</outline>
</glyph>
<glyph name="shcha-cy" format="2">
	<unicode hex="0449"/>
	<advance width="915"/>
	<outline>
		<contour>
			<point x="855" y="-147" type="line"/>
			<point x="882" y="-140" type="line"/>
			<point x="882" y="38" type="line"/>
			<point x="782" y="38" type="line"/>
			<point x="782" y="428" type="line"/>
			<point x="782" y="458"/>
			<point x="787" y="466"/>
			<point x="813" y="470" type="curve" smooth="yes"/>
			<point x="856" y="477" type="line"/>
			<point x="856" y="502" type="line"/>
			<point x="651" y="502" type="line"/>
			<point x="646" y="477" type="line"/>
			<point x="703" y="470" type="line" smooth="yes"/>
			<point x="728" y="467"/>
			<point x="733" y="457"/>
			<point x="733" y="427" type="curve" smooth="yes"/>
			<point x="733" y="37" type="line"/>
			<point x="478" y="37" type="line"/>
			<point x="478" y="428" type="line" smooth="yes"/>
			<point x="478" y="458"/>
			<point x="483" y="466"/>
			<point x="509" y="470" type="curve" smooth="yes"/>
			<point x="552" y="477" type="line"/>
			<point x="552" y="502" type="line"/>
			<point x="347" y="502" type="line"/>
			<point x="342" y="477" type="line"/>
			<point x="399" y="470" type="line" smooth="yes"/>
			<point x="424" y="467"/>
			<point x="429" y="457"/>
			<point x="429" y="427" type="curve" smooth="yes"/>
			<point x="429" y="37" type="line"/>
			<point x="174" y="37" type="line"/>
			<point x="174" y="424" type="line" smooth="yes"/>
			<point x="174" y="455"/>
			<point x="179" y="465"/>
			<point x="199" y="468" type="curve" smooth="yes"/>
			<point x="258" y="477" type="line"/>
			<point x="258" y="502" type="line"/>
			<point x="50" y="502" type="line"/>
			<point x="45" y="477" type="line"/>
			<point x="101" y="470" type="line" smooth="yes"/>
			<point x="123" y="467"/>
			<point x="125" y="458"/>
			<point x="125" y="423" type="curve" smooth="yes"/>
			<point x="125" y="82" type="line" smooth="yes"/>
			<point x="125" y="47"/>
			<point x="120" y="37"/>
			<point x="99" y="33" type="curve" smooth="yes"/>
			<point x="51" y="25" type="line"/>
			<point x="51" y="0" type="line"/>
			<point x="778" y="0" type="line" smooth="yes"/>
			<point x="816" y="0"/>
			<point x="832" y="-15"/>
			<point x="845" y="-90" type="curve" smooth="yes"/>
		</contour>
	</outline>
</glyph>
<glyph name="hardsign-cy" format="2">
	<unicode hex="044A"/>
	<advance width="585"/>
	<outline>
		<contour>
			<point x="145" y="0" type="line"/>
			<point x="352" y="0" type="line" smooth="yes"/>
			<point x="469" y="0"/>
			<point x="555" y="46"/>
			<point x="555" y="162" type="curve" smooth="yes"/>
			<point x="555" y="249"/>
			<point x="486" y="298"/>
			<point x="385" y="298" type="curve" smooth="yes"/>
			<point x="343" y="298"/>
			<point x="313" y="295"/>
			<point x="268" y="288" type="curve"/>
			<point x="268" y="424" type="line" smooth="yes"/>
			<point x="268" y="455"/>
			<point x="273" y="465"/>
			<point x="293" y="468" type="curve" smooth="yes"/>
			<point x="352" y="477" type="line"/>
			<point x="352" y="502" type="line"/>
			<point x="53" y="502" type="line"/>
			<point x="25" y="326" type="line"/>
			<point x="53" y="319" type="line"/>
			<point x="68" y="361" type="line" smooth="yes"/>
			<point x="97" y="442"/>
			<point x="109" y="463"/>
			<point x="165" y="463" type="curve" smooth="yes"/>
			<point x="219" y="463" type="line"/>
			<point x="219" y="82" type="line" smooth="yes"/>
			<point x="219" y="47"/>
			<point x="214" y="37"/>
			<point x="193" y="33" type="curve" smooth="yes"/>
			<point x="145" y="25" type="line"/>
		</contour>
		<contour>
			<point x="357" y="37" type="curve" smooth="yes"/>
			<point x="320" y="37"/>
			<point x="292" y="40"/>
			<point x="268" y="44" type="curve"/>
			<point x="268" y="250" type="line"/>
			<point x="298" y="256"/>
			<point x="334" y="259"/>
			<point x="368" y="259" type="curve" smooth="yes"/>
			<point x="456" y="259"/>
			<point x="506" y="225"/>
			<point x="506" y="155" type="curve" smooth="yes"/>
			<point x="506" y="77"/>
			<point x="452" y="37"/>
		</contour>
	</outline>
	<anchor name="top" x="212" y="550"/>
</glyph>
<glyph name="yeru-cy" format="2">
	<unicode hex="044B"/>
	<advance width="756"/>
	<outline>
		<contour>
			<point x="51" y="0" type="line"/>
			<point x="253" y="0" type="line" smooth="yes"/>
			<point x="370" y="0"/>
			<point x="456" y="46"/>
			<point x="456" y="162" type="curve" smooth="yes"/>
			<point x="456" y="249"/>
			<point x="387" y="298"/>
			<point x="286" y="298" type="curve" smooth="yes"/>
			<point x="244" y="298"/>
			<point x="219" y="295"/>
			<point x="174" y="288" type="curve"/>
			<point x="174" y="424" type="line" smooth="yes"/>
			<point x="174" y="455"/>
			<point x="179" y="465"/>
			<point x="199" y="468" type="curve" smooth="yes"/>
			<point x="258" y="477" type="line"/>
			<point x="258" y="502" type="line"/>
			<point x="50" y="502" type="line"/>
			<point x="45" y="477" type="line"/>
			<point x="101" y="470" type="line" smooth="yes"/>
			<point x="123" y="467"/>
			<point x="125" y="458"/>
			<point x="125" y="423" type="curve" smooth="yes"/>
			<point x="125" y="82" type="line" smooth="yes"/>
			<point x="125" y="47"/>
			<point x="120" y="37"/>
			<point x="99" y="33" type="curve" smooth="yes"/>
			<point x="51" y="25" type="line"/>
		</contour>
		<contour>
			<point x="258" y="37" type="curve" smooth="yes"/>
			<point x="221" y="37"/>
			<point x="198" y="40"/>
			<point x="174" y="44" type="curve"/>
			<point x="174" y="250" type="line"/>
			<point x="204" y="256"/>
			<point x="235" y="259"/>
			<point x="269" y="259" type="curve" smooth="yes"/>
			<point x="357" y="259"/>
			<point x="407" y="225"/>
			<point x="407" y="155" type="curve" smooth="yes"/>
			<point x="407" y="77"/>
			<point x="353" y="37"/>
		</contour>
		<contour>
			<point x="504" y="0" type="line"/>
			<point x="711" y="0" type="line"/>
			<point x="711" y="25" type="line"/>
			<point x="652" y="34" type="line" smooth="yes"/>
			<point x="632" y="37"/>
			<point x="627" y="47"/>
			<point x="627" y="78" type="curve" smooth="yes"/>
			<point x="627" y="424" type="line" smooth="yes"/>
			<point x="627" y="455"/>
			<point x="632" y="465"/>
			<point x="652" y="468" type="curve" smooth="yes"/>
			<point x="711" y="477" type="line"/>
			<point x="711" y="502" type="line"/>
			<point x="503" y="502" type="line"/>
			<point x="498" y="477" type="line"/>
			<point x="554" y="470" type="line" smooth="yes"/>
			<point x="576" y="467"/>
			<point x="578" y="458"/>
			<point x="578" y="423" type="curve" smooth="yes"/>
			<point x="578" y="82" type="line" smooth="yes"/>
			<point x="578" y="47"/>
			<point x="573" y="37"/>
			<point x="552" y="33" type="curve" smooth="yes"/>
			<point x="504" y="25" type="line"/>
		</contour>
	</outline>
	<anchor name="top" x="384" y="550"/>
</glyph>
<glyph name="ia-cy" format="2">
	<unicode hex="044F"/>
	<advance width="545"/>
	<outline>
		<contour>
			<point x="81" y="-14" type="curve" smooth="yes"/>
			<point x="122" y="-14"/>
			<point x="136" y="-1"/>
			<point x="185" y="126" type="curve" smooth="yes"/>
			<point x="209" y="189"/>
			<point x="229" y="212"/>
			<point x="278" y="216" type="curve" smooth="yes"/>
			<point x="313" y="219"/>
			<point x="351" y="219"/>
			<point x="377" y="219" type="curve"/>
			<point x="377" y="75" type="line" smooth="yes"/>
			<point x="377" y="45"/>
			<point x="372" y="35"/>
			<point x="347" y="32" type="curve" smooth="yes"/>
			<point x="297" y="25" type="line"/>
			<point x="297" y="0" type="line"/>
			<point x="500" y="0" type="line"/>
			<point x="500" y="25" type="line"/>
			<point x="457" y="32" type="line" smooth="yes"/>
			<point x="431" y="36"/>
			<point x="426" y="44"/>
			<point x="426" y="74" type="curve" smooth="yes"/>
			<point x="426" y="428" type="line" smooth="yes"/>
			<point x="426" y="458"/>
			<point x="431" y="466"/>
			<point x="457" y="470" type="curve" smooth="yes"/>
			<point x="500" y="477" type="line"/>
			<point x="500" y="502" type="line"/>
			<point x="276" y="502" type="line" smooth="yes"/>
			<point x="160" y="502"/>
			<point x="91" y="446"/>
			<point x="91" y="362" type="curve" smooth="yes"/>
			<point x="91" y="295"/>
			<point x="131" y="246"/>
			<point x="236" y="232" type="curve"/>
			<point x="246" y="231" type="line"/>
			<point x="187" y="220"/>
			<point x="153" y="193"/>
			<point x="134" y="138" type="curve" smooth="yes"/>
			<point x="105" y="56"/>
			<point x="92" y="32"/>
			<point x="55" y="32" type="curve" smooth="yes"/>
			<point x="38" y="32"/>
			<point x="28" y="36"/>
			<point x="20" y="42" type="curve"/>
			<point x="15" y="18" type="line"/>
			<point x="35" y="0"/>
			<point x="58" y="-14"/>
		</contour>
		<contour>
			<point x="291" y="258" type="line" smooth="yes"/>
			<point x="187" y="258"/>
			<point x="140" y="303"/>
			<point x="140" y="359" type="curve" smooth="yes"/>
			<point x="140" y="420"/>
			<point x="182" y="463"/>
			<point x="277" y="463" type="curve" smooth="yes"/>
			<point x="305" y="463"/>
			<point x="341" y="462"/>
			<point x="377" y="458" type="curve"/>
			<point x="377" y="258" type="line"/>
		</contour>
	</outline>
	<anchor name="top" x="297" y="550"/>
</glyph>
<glyph name="dje-cy" format="2">
	<unicode hex="0452"/>
	<advance width="598"/>
	<outline>
		<contour>
			<point x="387" y="-229" type="line"/>
			<point x="492" y="-160"/>
			<point x="507" y="-98"/>
			<point x="508" y="74" type="curve" smooth="yes"/>
			<point x="508" y="349" type="line" smooth="yes"/>
			<point x="508" y="460"/>
			<point x="452" y="517"/>
			<point x="350" y="517" type="curve" smooth="yes"/>
			<point x="279" y="517"/>
			<point x="211" y="484"/>
			<point x="175" y="422" type="curve"/>
			<point x="174" y="422" type="line"/>
			<point x="174" y="588" type="line"/>
			<point x="355" y="588" type="line"/>
			<point x="355" y="627" type="line"/>
			<point x="174" y="627" type="line"/>
			<point x="174" y="755" type="line"/>
			<point x="163" y="766" type="line"/>
			<point x="41" y="761" type="line"/>
			<point x="38" y="732" type="line"/>
			<point x="87" y="724" type="line" smooth="yes"/>
			<point x="118" y="719"/>
			<point x="125" y="709"/>
			<point x="125" y="668" type="curve" smooth="yes"/>
			<point x="125" y="627" type="line"/>
			<point x="39" y="627" type="line"/>
			<point x="34" y="588" type="line"/>
			<point x="125" y="588" type="line"/>
			<point x="125" y="82" type="line" smooth="yes"/>
			<point x="125" y="47"/>
			<point x="120" y="37"/>
			<point x="99" y="33" type="curve" smooth="yes"/>
			<point x="51" y="25" type="line"/>
			<point x="51" y="0" type="line"/>
			<point x="257" y="0" type="line"/>
			<point x="257" y="25" type="line"/>
			<point x="199" y="34" type="line" smooth="yes"/>
			<point x="179" y="37"/>
			<point x="174" y="47"/>
			<point x="174" y="78" type="curve" smooth="yes"/>
			<point x="174" y="316" type="line" smooth="yes"/>
			<point x="174" y="407"/>
			<point x="246" y="473"/>
			<point x="339" y="473" type="curve" smooth="yes"/>
			<point x="427" y="473"/>
			<point x="459" y="431"/>
			<point x="459" y="339" type="curve" smooth="yes"/>
			<point x="459" y="20" type="line" smooth="yes"/>
			<point x="459" y="-111"/>
			<point x="432" y="-156"/>
			<point x="372" y="-206" type="curve"/>
		</contour>
	</outline>
</glyph>
